%TF.GenerationSoftware,KiCad,Pcbnew,10.0.0*%
%TF.CreationDate,2026-04-02T17:02:13+06:00*%
%TF.ProjectId,Reflow Plate Controller,5265666c-6f77-4205-906c-61746520436f,rev?*%
%TF.SameCoordinates,Original*%
%TF.FileFunction,Soldermask,Top*%
%TF.FilePolarity,Negative*%
%FSLAX46Y46*%
G04 Gerber Fmt 4.6, Leading zero omitted, Abs format (unit mm)*
G04 Created by KiCad (PCBNEW 10.0.0) date 2026-04-02 17:02:13*
%MOMM*%
%LPD*%
G01*
G04 APERTURE LIST*
G04 Aperture macros list*
%AMRoundRect*
0 Rectangle with rounded corners*
0 $1 Rounding radius*
0 $2 $3 $4 $5 $6 $7 $8 $9 X,Y pos of 4 corners*
0 Add a 4 corners polygon primitive as box body*
4,1,4,$2,$3,$4,$5,$6,$7,$8,$9,$2,$3,0*
0 Add four circle primitives for the rounded corners*
1,1,$1+$1,$2,$3*
1,1,$1+$1,$4,$5*
1,1,$1+$1,$6,$7*
1,1,$1+$1,$8,$9*
0 Add four rect primitives between the rounded corners*
20,1,$1+$1,$2,$3,$4,$5,0*
20,1,$1+$1,$4,$5,$6,$7,0*
20,1,$1+$1,$6,$7,$8,$9,0*
20,1,$1+$1,$8,$9,$2,$3,0*%
G04 Aperture macros list end*
%ADD10C,1.400000*%
%ADD11RoundRect,0.770000X-0.980000X-0.980000X0.980000X-0.980000X0.980000X0.980000X-0.980000X0.980000X0*%
%ADD12C,3.500000*%
%ADD13RoundRect,0.100000X0.225000X0.100000X-0.225000X0.100000X-0.225000X-0.100000X0.225000X-0.100000X0*%
%ADD14RoundRect,0.250000X-0.400000X-1.450000X0.400000X-1.450000X0.400000X1.450000X-0.400000X1.450000X0*%
%ADD15RoundRect,0.237500X-0.300000X-0.237500X0.300000X-0.237500X0.300000X0.237500X-0.300000X0.237500X0*%
%ADD16C,6.400000*%
%ADD17RoundRect,0.237500X-0.250000X-0.237500X0.250000X-0.237500X0.250000X0.237500X-0.250000X0.237500X0*%
%ADD18RoundRect,0.150000X-0.512500X-0.150000X0.512500X-0.150000X0.512500X0.150000X-0.512500X0.150000X0*%
%ADD19RoundRect,0.237500X0.250000X0.237500X-0.250000X0.237500X-0.250000X-0.237500X0.250000X-0.237500X0*%
%ADD20RoundRect,0.250000X1.100000X-0.412500X1.100000X0.412500X-1.100000X0.412500X-1.100000X-0.412500X0*%
%ADD21C,1.000000*%
%ADD22RoundRect,0.125000X0.625000X0.125000X-0.625000X0.125000X-0.625000X-0.125000X0.625000X-0.125000X0*%
%ADD23RoundRect,0.125000X0.125000X0.625000X-0.125000X0.625000X-0.125000X-0.625000X0.125000X-0.625000X0*%
%ADD24RoundRect,0.237500X0.237500X-0.250000X0.237500X0.250000X-0.237500X0.250000X-0.237500X-0.250000X0*%
%ADD25RoundRect,0.237500X0.287500X0.237500X-0.287500X0.237500X-0.287500X-0.237500X0.287500X-0.237500X0*%
%ADD26RoundRect,0.250000X0.525000X0.250000X-0.525000X0.250000X-0.525000X-0.250000X0.525000X-0.250000X0*%
%ADD27R,1.000000X1.000000*%
%ADD28RoundRect,0.250000X0.475000X-0.337500X0.475000X0.337500X-0.475000X0.337500X-0.475000X-0.337500X0*%
%ADD29RoundRect,0.237500X0.300000X0.237500X-0.300000X0.237500X-0.300000X-0.237500X0.300000X-0.237500X0*%
%ADD30RoundRect,0.770000X0.980000X0.980000X-0.980000X0.980000X-0.980000X-0.980000X0.980000X-0.980000X0*%
%ADD31RoundRect,0.250000X-0.525000X-0.250000X0.525000X-0.250000X0.525000X0.250000X-0.525000X0.250000X0*%
%ADD32RoundRect,0.237500X-0.237500X0.250000X-0.237500X-0.250000X0.237500X-0.250000X0.237500X0.250000X0*%
%ADD33RoundRect,0.250000X-0.250000X0.525000X-0.250000X-0.525000X0.250000X-0.525000X0.250000X0.525000X0*%
%ADD34R,1.700000X1.700000*%
%ADD35C,1.700000*%
%ADD36R,2.000000X2.000000*%
%ADD37C,2.000000*%
%ADD38RoundRect,0.250000X-0.350000X0.850000X-0.350000X-0.850000X0.350000X-0.850000X0.350000X0.850000X0*%
%ADD39RoundRect,0.249997X-2.650003X2.950003X-2.650003X-2.950003X2.650003X-2.950003X2.650003X2.950003X0*%
%ADD40RoundRect,0.250000X0.337500X0.475000X-0.337500X0.475000X-0.337500X-0.475000X0.337500X-0.475000X0*%
%ADD41RoundRect,0.250000X-0.300000X-0.300000X0.300000X-0.300000X0.300000X0.300000X-0.300000X0.300000X0*%
%ADD42RoundRect,0.249999X-1.425001X0.512501X-1.425001X-0.512501X1.425001X-0.512501X1.425001X0.512501X0*%
%ADD43RoundRect,0.250000X-0.850000X-0.350000X0.850000X-0.350000X0.850000X0.350000X-0.850000X0.350000X0*%
%ADD44RoundRect,0.249997X-2.950003X-2.650003X2.950003X-2.650003X2.950003X2.650003X-2.950003X2.650003X0*%
%ADD45RoundRect,0.250000X-0.750000X0.750000X-0.750000X-0.750000X0.750000X-0.750000X0.750000X0.750000X0*%
%ADD46RoundRect,0.225000X0.225000X-0.425000X0.225000X0.425000X-0.225000X0.425000X-0.225000X-0.425000X0*%
%ADD47RoundRect,0.225000X0.225000X-0.625000X0.225000X0.625000X-0.225000X0.625000X-0.225000X-0.625000X0*%
%ADD48RoundRect,0.250000X0.616500X1.312500X-0.616500X1.312500X-0.616500X-1.312500X0.616500X-1.312500X0*%
%ADD49RoundRect,0.050000X-0.050000X0.362500X-0.050000X-0.362500X0.050000X-0.362500X0.050000X0.362500X0*%
%ADD50RoundRect,0.050000X-0.362500X0.050000X-0.362500X-0.050000X0.362500X-0.050000X0.362500X0.050000X0*%
%ADD51RoundRect,0.150000X0.150000X0.425000X-0.150000X0.425000X-0.150000X-0.425000X0.150000X-0.425000X0*%
%ADD52RoundRect,0.075000X0.075000X0.500000X-0.075000X0.500000X-0.075000X-0.500000X0.075000X-0.500000X0*%
%ADD53O,1.000000X2.100000*%
%ADD54O,1.000000X1.800000*%
%ADD55RoundRect,0.250000X-0.650000X0.412500X-0.650000X-0.412500X0.650000X-0.412500X0.650000X0.412500X0*%
%ADD56RoundRect,0.150000X0.587500X0.150000X-0.587500X0.150000X-0.587500X-0.150000X0.587500X-0.150000X0*%
%ADD57RoundRect,0.250000X-0.600000X-0.750000X0.600000X-0.750000X0.600000X0.750000X-0.600000X0.750000X0*%
%ADD58O,1.700000X2.000000*%
%ADD59RoundRect,0.250000X-0.412500X-1.100000X0.412500X-1.100000X0.412500X1.100000X-0.412500X1.100000X0*%
%ADD60RoundRect,0.218750X0.256250X-0.218750X0.256250X0.218750X-0.256250X0.218750X-0.256250X-0.218750X0*%
%ADD61RoundRect,0.250000X0.650000X-1.000000X0.650000X1.000000X-0.650000X1.000000X-0.650000X-1.000000X0*%
%ADD62RoundRect,0.237500X-0.237500X0.300000X-0.237500X-0.300000X0.237500X-0.300000X0.237500X0.300000X0*%
G04 APERTURE END LIST*
D10*
%TO.C,J6*%
X108000000Y-80900000D03*
X119000000Y-80900000D03*
D11*
X111000000Y-85900000D03*
D12*
X116000000Y-85900000D03*
%TD*%
D13*
%TO.C,D6*%
X188950000Y-101650000D03*
X188950000Y-101000000D03*
X188950000Y-100350000D03*
X187050000Y-100350000D03*
X187050000Y-101000000D03*
X187050000Y-101650000D03*
%TD*%
D14*
%TO.C,L1*%
X111025000Y-105000000D03*
X115475000Y-105000000D03*
%TD*%
D15*
%TO.C,C5*%
X162325000Y-83250000D03*
X164050000Y-83250000D03*
%TD*%
%TO.C,C13*%
X135387500Y-89000000D03*
X137112500Y-89000000D03*
%TD*%
D16*
%TO.C,H1*%
X102500000Y-82250000D03*
%TD*%
D17*
%TO.C,R1*%
X117687500Y-104250000D03*
X119512500Y-104250000D03*
%TD*%
D18*
%TO.C,U2*%
X102112500Y-102800000D03*
X102112500Y-103750000D03*
X102112500Y-104700000D03*
X104387500Y-104700000D03*
X104387500Y-103750000D03*
X104387500Y-102800000D03*
%TD*%
D16*
%TO.C,H4*%
X189500000Y-117250000D03*
%TD*%
D19*
%TO.C,R13*%
X114162500Y-99250000D03*
X112337500Y-99250000D03*
%TD*%
D17*
%TO.C,R12*%
X126087500Y-105500000D03*
X127912500Y-105500000D03*
%TD*%
D20*
%TO.C,C21*%
X151000000Y-109062500D03*
X151000000Y-105937500D03*
%TD*%
D21*
%TO.C,TP2*%
X173500000Y-119250000D03*
%TD*%
D22*
%TO.C,U3*%
X172925000Y-90550000D03*
X172925000Y-89750000D03*
X172925000Y-88950000D03*
X172925000Y-88150000D03*
X172925000Y-87350000D03*
X172925000Y-86550000D03*
X172925000Y-85750000D03*
X172925000Y-84950000D03*
D23*
X171550000Y-83575000D03*
X170750000Y-83575000D03*
X169950000Y-83575000D03*
X169150000Y-83575000D03*
X168350000Y-83575000D03*
X167550000Y-83575000D03*
X166750000Y-83575000D03*
X165950000Y-83575000D03*
D22*
X164575000Y-84950000D03*
X164575000Y-85750000D03*
X164575000Y-86550000D03*
X164575000Y-87350000D03*
X164575000Y-88150000D03*
X164575000Y-88950000D03*
X164575000Y-89750000D03*
X164575000Y-90550000D03*
D23*
X165950000Y-91925000D03*
X166750000Y-91925000D03*
X167550000Y-91925000D03*
X168350000Y-91925000D03*
X169150000Y-91925000D03*
X169950000Y-91925000D03*
X170750000Y-91925000D03*
X171550000Y-91925000D03*
%TD*%
D24*
%TO.C,R6*%
X170500000Y-116500000D03*
X170500000Y-114675000D03*
%TD*%
D15*
%TO.C,C6*%
X166025000Y-81575000D03*
X167750000Y-81575000D03*
%TD*%
D19*
%TO.C,R3*%
X104587500Y-106500000D03*
X102762500Y-106500000D03*
%TD*%
D25*
%TO.C,FB1*%
X164000000Y-79750000D03*
X162250000Y-79750000D03*
%TD*%
D24*
%TO.C,R16*%
X180750000Y-97662500D03*
X180750000Y-95837500D03*
%TD*%
D26*
%TO.C,SW5*%
X183875000Y-103350000D03*
X178625000Y-103350000D03*
X183875000Y-100150000D03*
X178625000Y-100150000D03*
%TD*%
D27*
%TO.C,D3*%
X116500000Y-116250000D03*
X116500000Y-118750000D03*
%TD*%
D15*
%TO.C,C10*%
X115250000Y-109500000D03*
X116975000Y-109500000D03*
%TD*%
D28*
%TO.C,C9*%
X162750000Y-99037500D03*
X162750000Y-96962500D03*
%TD*%
D29*
%TO.C,C4*%
X174862500Y-92575000D03*
X173137500Y-92575000D03*
%TD*%
D10*
%TO.C,J5*%
X151500000Y-118600000D03*
X140500000Y-118600000D03*
D30*
X148500000Y-113600000D03*
D12*
X143500000Y-113600000D03*
%TD*%
D31*
%TO.C,SW2*%
X108125000Y-113900000D03*
X113375000Y-113900000D03*
X108125000Y-117100000D03*
X113375000Y-117100000D03*
%TD*%
D27*
%TO.C,D2*%
X103250000Y-97750000D03*
X105750000Y-97750000D03*
%TD*%
D28*
%TO.C,C8*%
X170750000Y-99037500D03*
X170750000Y-96962500D03*
%TD*%
D24*
%TO.C,R5*%
X118750000Y-118912500D03*
X118750000Y-117087500D03*
%TD*%
D21*
%TO.C,TP1*%
X101500000Y-111500000D03*
%TD*%
D32*
%TO.C,R19*%
X137250000Y-114087500D03*
X137250000Y-115912500D03*
%TD*%
D33*
%TO.C,SW4*%
X189350000Y-104875000D03*
X189350000Y-110125000D03*
X186150000Y-104875000D03*
X186150000Y-110125000D03*
%TD*%
D15*
%TO.C,C3*%
X162325000Y-81500000D03*
X164050000Y-81500000D03*
%TD*%
%TO.C,C7*%
X166000000Y-79750000D03*
X167725000Y-79750000D03*
%TD*%
D33*
%TO.C,SW3*%
X176100000Y-104875000D03*
X176100000Y-110125000D03*
X172900000Y-104875000D03*
X172900000Y-110125000D03*
%TD*%
D34*
%TO.C,J1*%
X142130000Y-80000000D03*
D35*
X144670000Y-80000000D03*
X147210000Y-80000000D03*
X149750000Y-80000000D03*
X152290000Y-80000000D03*
X154830000Y-80000000D03*
%TD*%
D36*
%TO.C,BZ1*%
X125129216Y-113750000D03*
D37*
X130129216Y-113750000D03*
%TD*%
D38*
%TO.C,Q1*%
X159360000Y-107625000D03*
D39*
X157080000Y-113925000D03*
D38*
X154800000Y-107625000D03*
%TD*%
D15*
%TO.C,C14*%
X175000000Y-87500000D03*
X176725000Y-87500000D03*
%TD*%
D17*
%TO.C,R10*%
X113087500Y-97500000D03*
X114912500Y-97500000D03*
%TD*%
D40*
%TO.C,C18*%
X121037500Y-99500000D03*
X118962500Y-99500000D03*
%TD*%
D34*
%TO.C,J4*%
X180000000Y-80250000D03*
D35*
X177460000Y-80250000D03*
X174920000Y-80250000D03*
X172380000Y-80250000D03*
%TD*%
D41*
%TO.C,D4*%
X144350000Y-108250000D03*
X147150000Y-108250000D03*
%TD*%
D24*
%TO.C,R14*%
X184250000Y-97662500D03*
X184250000Y-95837500D03*
%TD*%
D19*
%TO.C,R20*%
X175250000Y-83250000D03*
X173425000Y-83250000D03*
%TD*%
%TO.C,R11*%
X136662500Y-119750000D03*
X134837500Y-119750000D03*
%TD*%
D20*
%TO.C,C16*%
X141000000Y-108812500D03*
X141000000Y-105687500D03*
%TD*%
D16*
%TO.C,H3*%
X102500000Y-117250000D03*
%TD*%
D26*
%TO.C,SW6*%
X183875000Y-114850000D03*
X178625000Y-114850000D03*
X183875000Y-111650000D03*
X178625000Y-111650000D03*
%TD*%
D24*
%TO.C,R15*%
X182500000Y-97662500D03*
X182500000Y-95837500D03*
%TD*%
%TO.C,R17*%
X179000000Y-97662500D03*
X179000000Y-95837500D03*
%TD*%
D42*
%TO.C,F1*%
X114000000Y-89512500D03*
X114000000Y-95487500D03*
%TD*%
D19*
%TO.C,R2*%
X106237500Y-108250000D03*
X104412500Y-108250000D03*
%TD*%
D43*
%TO.C,Q2*%
X118050000Y-92292500D03*
D44*
X124350000Y-94572500D03*
D43*
X118050000Y-96852500D03*
%TD*%
D18*
%TO.C,U4*%
X156112500Y-86550000D03*
X156112500Y-87500000D03*
X156112500Y-88450000D03*
X158387500Y-88450000D03*
X158387500Y-87500000D03*
X158387500Y-86550000D03*
%TD*%
D45*
%TO.C,C19*%
X137250000Y-95632323D03*
D37*
X137250000Y-100632323D03*
%TD*%
D46*
%TO.C,U1*%
X165250000Y-99150000D03*
D47*
X166750000Y-98950000D03*
D48*
X166750000Y-96760000D03*
D46*
X168250000Y-99150000D03*
%TD*%
D17*
%TO.C,R18*%
X117675000Y-102500000D03*
X119500000Y-102500000D03*
%TD*%
D49*
%TO.C,U5*%
X132050000Y-89037500D03*
X131650000Y-89037500D03*
X131250000Y-89037500D03*
X130850000Y-89037500D03*
X130450000Y-89037500D03*
D50*
X129787500Y-89700000D03*
X129787500Y-90100000D03*
X129787500Y-90500000D03*
X129787500Y-90900000D03*
X129787500Y-91300000D03*
D49*
X130450000Y-91962500D03*
X130850000Y-91962500D03*
X131250000Y-91962500D03*
X131650000Y-91962500D03*
X132050000Y-91962500D03*
D50*
X132712500Y-91300000D03*
X132712500Y-90900000D03*
X132712500Y-90500000D03*
X132712500Y-90100000D03*
X132712500Y-89700000D03*
D34*
X131250000Y-90500000D03*
%TD*%
D32*
%TO.C,R7*%
X155387500Y-100337500D03*
X155387500Y-102162500D03*
%TD*%
%TO.C,R9*%
X126000000Y-101837500D03*
X126000000Y-103662500D03*
%TD*%
D51*
%TO.C,J2*%
X133700000Y-85680000D03*
X132900000Y-85680000D03*
D52*
X131750000Y-85680000D03*
X130750000Y-85680000D03*
X130250000Y-85680000D03*
X129250000Y-85680000D03*
D51*
X128100000Y-85680000D03*
X127300000Y-85680000D03*
X127300000Y-85680000D03*
X128100000Y-85680000D03*
D52*
X128750000Y-85680000D03*
X129750000Y-85680000D03*
X131250000Y-85680000D03*
X132250000Y-85680000D03*
D51*
X132900000Y-85680000D03*
X133700000Y-85680000D03*
D53*
X134820000Y-85105000D03*
D54*
X134820000Y-80925000D03*
D53*
X126180000Y-85105000D03*
D54*
X126180000Y-80925000D03*
%TD*%
D55*
%TO.C,C2*%
X107000000Y-103187500D03*
X107000000Y-106312500D03*
%TD*%
D56*
%TO.C,Q3*%
X134937500Y-108450000D03*
X134937500Y-106550000D03*
X133062500Y-107500000D03*
%TD*%
D19*
%TO.C,R4*%
X137162500Y-90750000D03*
X135337500Y-90750000D03*
%TD*%
D15*
%TO.C,C11*%
X175025000Y-89250000D03*
X176750000Y-89250000D03*
%TD*%
D16*
%TO.C,H2*%
X189500000Y-82250000D03*
%TD*%
D57*
%TO.C,J3*%
X164000000Y-111805000D03*
D58*
X166500000Y-111805000D03*
%TD*%
D15*
%TO.C,C1*%
X102412500Y-100700000D03*
X104137500Y-100700000D03*
%TD*%
D59*
%TO.C,C17*%
X164125000Y-105500000D03*
X167250000Y-105500000D03*
%TD*%
D60*
%TO.C,LED1*%
X119410000Y-107727500D03*
X119410000Y-106152500D03*
%TD*%
D15*
%TO.C,C22*%
X175000000Y-85750000D03*
X176725000Y-85750000D03*
%TD*%
D61*
%TO.C,D5*%
X109750000Y-94250000D03*
X109750000Y-90250000D03*
%TD*%
D32*
%TO.C,R21*%
X135250000Y-114087500D03*
X135250000Y-115912500D03*
%TD*%
D45*
%TO.C,C20*%
X148250000Y-95632323D03*
D37*
X148250000Y-100632323D03*
%TD*%
D17*
%TO.C,R8*%
X157337500Y-103250000D03*
X159162500Y-103250000D03*
%TD*%
D33*
%TO.C,SW1*%
X106100000Y-89875000D03*
X106100000Y-95125000D03*
X102900000Y-89875000D03*
X102900000Y-95125000D03*
%TD*%
D18*
%TO.C,U6*%
X157362500Y-99550000D03*
X157362500Y-100500000D03*
X157362500Y-101450000D03*
X159637500Y-101450000D03*
X159637500Y-100500000D03*
X159637500Y-99550000D03*
%TD*%
D26*
%TO.C,SW7*%
X183875000Y-109100000D03*
X178625000Y-109100000D03*
X183875000Y-105900000D03*
X178625000Y-105900000D03*
%TD*%
D28*
%TO.C,C15*%
X156500000Y-97537500D03*
X156500000Y-95462500D03*
%TD*%
D62*
%TO.C,C12*%
X129250000Y-93137500D03*
X129250000Y-94862500D03*
%TD*%
M02*
