M48
; DRILL file {KiCad 9.0.8} date 2026-03-26T03:57:17+0600
; FORMAT={-:-/ absolute / inch / decimal}
; #@! TF.CreationDate,2026-03-26T03:57:17+06:00
; #@! TF.GenerationSoftware,Kicad,Pcbnew,9.0.8
; #@! TF.FileFunction,Plated,1,4,PTH
FMAT,2
INCH
; #@! TA.AperFunction,Plated,PTH,ComponentDrill
T1C0.0079
; #@! TA.AperFunction,Plated,PTH,ViaDrill
T2C0.0118
; #@! TA.AperFunction,Plated,PTH,ComponentDrill
T3C0.0236
; #@! TA.AperFunction,Plated,PTH,ComponentDrill
T4C0.0394
; #@! TA.AperFunction,Plated,PTH,ComponentDrill
T5C0.0748
; #@! TA.AperFunction,Plated,PTH,ComponentDrill
T6C0.1260
%
G90
G05
T1
X5.1437Y-3.5394
X5.1437Y-3.5866
X5.1909Y-3.5394
X5.1909Y-3.5866
T2
X3.9469Y-4.0354
X3.9469Y-4.124
X4.0453Y-4.252
X4.0512Y-3.6024
X4.1831Y-4.311
X4.1929Y-4.2028
X4.2421Y-3.3268
X4.2421Y-3.3563
X4.2421Y-3.4154
X4.2421Y-3.4449
X4.2717Y-3.3268
X4.2717Y-3.3563
X4.2717Y-3.4154
X4.2717Y-3.4449
X4.311Y-3.8681
X4.3209Y-3.2874
X4.3307Y-3.9961
X4.3504Y-3.2874
X4.3799Y-3.2874
X4.4094Y-3.2874
X4.4621Y-3.9665
X4.502Y-4.6811
X4.5177Y-3.6811
X4.5374Y-4.252
X4.5571Y-4.0256
X4.5669Y-4.252
X4.5866Y-3.8681
X4.5965Y-4.252
X4.626Y-4.1634
X4.626Y-4.1929
X4.626Y-4.2224
X4.6358Y-4.3996
X4.8917Y-3.8878
X4.8917Y-3.9173
X4.9114Y-3.2972
X4.9114Y-3.3366
X4.9114Y-3.376
X4.9311Y-3.435
X4.9311Y-3.4646
X4.9311Y-3.8878
X4.9311Y-3.9173
X4.9606Y-3.435
X4.9606Y-3.4646
X4.9705Y-3.2677
X4.9705Y-3.8878
X4.9705Y-3.9173
X4.9902Y-3.435
X5.0098Y-3.8878
X5.0098Y-3.9173
X5.0197Y-3.435
X5.0295Y-4.3209
X5.0394Y-4.065
X5.0492Y-3.8878
X5.0492Y-3.9173
X5.0689Y-3.3268
X5.0689Y-3.5335
X5.0689Y-3.5787
X5.0689Y-3.8091
X5.0689Y-3.8484
X5.0886Y-3.8878
X5.0984Y-3.8091
X5.0984Y-3.8484
X5.12Y-3.4429
X5.1252Y-3.3268
X5.1476Y-3.7795
X5.1673Y-3.3268
X5.187Y-3.7205
X5.1969Y-3.6811
X5.2067Y-3.3268
X5.2362Y-3.435
X5.2657Y-3.435
X5.2756Y-3.5236
X5.2756Y-3.5551
X5.2756Y-3.5925
X5.2953Y-3.435
X5.3051Y-3.2677
X5.3125Y-4.1339
X5.3248Y-3.435
X5.3248Y-4.6161
X5.3346Y-3.7303
X5.3346Y-3.7598
X5.3346Y-3.7894
X5.3346Y-3.8189
X5.3346Y-3.9272
X5.3346Y-3.9567
X5.3346Y-3.9862
X5.3346Y-4.0157
X5.374Y-3.2972
X5.374Y-3.3366
X5.374Y-3.376
X5.374Y-3.8287
X5.374Y-4.0256
X5.3981Y-3.4601
X5.4035Y-3.8287
X5.4035Y-4.0256
X5.4035Y-4.3012
X5.4331Y-3.8287
X5.4331Y-4.0256
X5.4724Y-3.7303
X5.4724Y-3.7598
X5.4724Y-3.7894
X5.4724Y-3.8189
X5.4724Y-3.9272
X5.4724Y-3.9567
X5.4724Y-3.9862
X5.4724Y-4.0157
X5.502Y-4.3602
X5.502Y-4.3996
X5.5315Y-3.5827
X5.5315Y-4.3602
X5.5315Y-4.3996
X5.561Y-4.3602
X5.561Y-4.3996
X5.5807Y-3.5266
X5.5807Y-3.56
X5.5906Y-4.3602
X5.6152Y-3.627
X5.6201Y-4.3602
X5.6398Y-4.1437
X5.6398Y-4.1831
X5.6496Y-3.5039
X5.6496Y-4.3602
X5.6693Y-3.6417
X5.6791Y-4.3602
X5.7677Y-3.7303
X5.7677Y-3.7598
X5.7677Y-3.7894
X5.7677Y-3.8189
X5.7677Y-3.9272
X5.7677Y-3.9567
X5.7677Y-3.9862
X5.7677Y-4.0157
X5.8071Y-3.8287
X5.8071Y-4.0256
X5.8366Y-3.8287
X5.8366Y-4.0256
X5.8563Y-4.1437
X5.8563Y-4.1831
X5.8661Y-3.8287
X5.8661Y-4.0256
X5.876Y-4.3504
X5.9055Y-3.7303
X5.9055Y-3.7598
X5.9055Y-3.7894
X5.9055Y-3.8189
X5.9055Y-3.9272
X5.9055Y-3.9567
X5.9055Y-3.9862
X5.9055Y-4.0157
X5.9449Y-4.3504
X5.9744Y-3.622
X6.0039Y-3.4744
X6.0138Y-4.3504
X6.0433Y-3.376
X6.0581Y-3.8041
X6.0728Y-3.7402
X6.0827Y-3.4449
X6.0861Y-4.7047
X6.0925Y-3.5925
X6.122Y-3.7697
X6.1417Y-4.2028
X6.1713Y-4.2028
X6.2008Y-4.2028
X6.2106Y-3.6457
X6.2303Y-4.2028
X6.25Y-3.8189
X6.2598Y-4.2028
X6.2633Y-4.7047
X6.2697Y-3.3465
X6.2894Y-3.6516
X6.2894Y-3.7795
X6.2894Y-4.2028
X6.2992Y-3.4449
X6.2992Y-3.4803
X6.2992Y-4.2323
X6.2992Y-4.2618
X6.2992Y-4.2913
X6.2992Y-4.3209
X6.3189Y-3.4055
X6.3366Y-3.9941
X6.3386Y-3.7992
X6.3386Y-3.8386
X6.3386Y-3.8976
X6.3386Y-3.9567
X6.3484Y-3.6713
X6.3878Y-3.4449
X6.3878Y-3.5236
X6.3907Y-3.3268
X6.405Y-4.1535
X6.4173Y-3.565
X6.4177Y-3.4349
X6.4764Y-3.622
X6.5256Y-3.5335
X6.565Y-3.4075
X6.565Y-3.5689
X6.5846Y-4.2397
X6.5965Y-3.3701
X6.5994Y-3.499
X6.6437Y-3.4055
X6.6831Y-3.3701
X6.6831Y-3.7047
X6.7028Y-3.5728
X6.7126Y-4.6358
X6.7224Y-3.3366
X6.752Y-3.439
X6.7559Y-3.4705
X6.7594Y-3.5064
X6.7618Y-3.7008
X6.7913Y-3.7992
X6.7913Y-3.8386
X6.7913Y-3.8976
X6.8164Y-3.6865
X6.8701Y-3.3268
X6.8844Y-3.6855
X6.8996Y-4.0551
X6.8996Y-4.2323
X6.9291Y-3.5591
X6.9587Y-3.3268
X6.9587Y-3.5827
X7.0177Y-3.6122
X7.0768Y-3.5827
X7.0965Y-4.2618
X7.1161Y-3.5827
X7.1358Y-4.3957
X7.1358Y-4.4882
X7.1506Y-3.9911
X7.185Y-4.0256
X7.3031Y-4.0157
X7.313Y-3.5433
X7.3819Y-3.7795
X7.4213Y-4.2323
X7.5Y-3.9764
X7.5Y-4.0157
T4
X4.252Y-3.185
X4.685Y-3.185
X4.9263Y-4.4783
X5.1232Y-4.4783
X5.4035Y-3.7651
X5.4035Y-3.9619
X5.5315Y-4.6693
X5.5957Y-3.1496
X5.6957Y-3.1496
X5.7957Y-3.1496
X5.8366Y-3.7651
X5.8366Y-3.9619
X5.8957Y-3.1496
X5.9646Y-4.6693
X5.9957Y-3.1496
X6.0957Y-3.1496
X6.4567Y-4.4018
X6.5551Y-4.4018
X6.7866Y-3.1594
X6.8866Y-3.1594
X6.9866Y-3.1594
X7.0866Y-3.1594
T5
X4.3701Y-3.3819
X4.5669Y-3.3819
X5.6496Y-4.4724
X5.8465Y-4.4724
T6
X4.0354Y-3.2382
X4.0354Y-4.6161
X7.4606Y-3.2382
X7.4606Y-4.6161
T3
G00X4.9677Y-3.2018
M15
G01X4.9677Y-3.1703
M16
G05
G00X4.9677Y-3.3722
M15
G01X4.9677Y-3.3289
M16
G05
G00X5.3079Y-3.2018
M15
G01X5.3079Y-3.1703
M16
G05
G00X5.3079Y-3.3722
M15
G01X5.3079Y-3.3289
M16
G05
M30
