%TF.GenerationSoftware,KiCad,Pcbnew,9.0.8*%
%TF.CreationDate,2026-03-25T21:00:04+06:00*%
%TF.ProjectId,Heating Element,48656174-696e-4672-9045-6c656d656e74,rev?*%
%TF.SameCoordinates,Original*%
%TF.FileFunction,Legend,Top*%
%TF.FilePolarity,Positive*%
%FSLAX46Y46*%
G04 Gerber Fmt 4.6, Leading zero omitted, Abs format (unit mm)*
G04 Created by KiCad (PCBNEW 9.0.8) date 2026-03-25 21:00:04*
%MOMM*%
%LPD*%
G01*
G04 APERTURE LIST*
%ADD10C,1.500000*%
%ADD11C,0.100000*%
%ADD12C,0.440000*%
%ADD13C,0.400000*%
%ADD14C,1.200000*%
%ADD15C,0.000000*%
%ADD16C,0.200000*%
%ADD17C,3.600000*%
%ADD18C,6.400000*%
G04 APERTURE END LIST*
D10*
X80500000Y-48000000D02*
X220500000Y-48000000D01*
X220500000Y-148000000D01*
X80500000Y-148000000D01*
X80500000Y-48000000D01*
D11*
X200000000Y-34625000D02*
X213000000Y-34625000D01*
X213000000Y-38875000D01*
X200000000Y-38875000D01*
X200000000Y-34625000D01*
G36*
X200000000Y-34625000D02*
G01*
X213000000Y-34625000D01*
X213000000Y-38875000D01*
X200000000Y-38875000D01*
X200000000Y-34625000D01*
G37*
D12*
X213958520Y-37707881D02*
X214482330Y-37707881D01*
X214482330Y-37707881D02*
X214482330Y-37288834D01*
X214482330Y-37288834D02*
X214272806Y-37184072D01*
X214272806Y-37184072D02*
X214063282Y-36974548D01*
X214063282Y-36974548D02*
X213958520Y-36660262D01*
X213958520Y-36660262D02*
X213958520Y-36136453D01*
X213958520Y-36136453D02*
X214063282Y-35822167D01*
X214063282Y-35822167D02*
X214272806Y-35612643D01*
X214272806Y-35612643D02*
X214587092Y-35507881D01*
X214587092Y-35507881D02*
X215006139Y-35507881D01*
X215006139Y-35507881D02*
X215320425Y-35612643D01*
X215320425Y-35612643D02*
X215529949Y-35822167D01*
X215529949Y-35822167D02*
X215634711Y-36136453D01*
X215634711Y-36136453D02*
X215634711Y-36660262D01*
X215634711Y-36660262D02*
X215529949Y-36974548D01*
X215529949Y-36974548D02*
X215320425Y-37184072D01*
X215320425Y-37184072D02*
X215110901Y-37288834D01*
X215110901Y-37288834D02*
X215110901Y-37707881D01*
X215110901Y-37707881D02*
X215634711Y-37707881D01*
D13*
G36*
X139622644Y-125747529D02*
G01*
X138749049Y-125747529D01*
X138749049Y-126995000D01*
X138060101Y-126995000D01*
X138060101Y-124084419D01*
X138749049Y-124084419D01*
X138749049Y-125210073D01*
X139622644Y-125210073D01*
X139622644Y-124084419D01*
X140311409Y-124084419D01*
X140311409Y-126995000D01*
X139622644Y-126995000D01*
X139622644Y-125747529D01*
G37*
G36*
X142280944Y-124030534D02*
G01*
X142497563Y-124080628D01*
X142687158Y-124160837D01*
X142853804Y-124270741D01*
X143000340Y-124411948D01*
X143118918Y-124574385D01*
X143214161Y-124763624D01*
X143285477Y-124983758D01*
X143330847Y-125239815D01*
X143346920Y-125537602D01*
X143327989Y-125851017D01*
X143274332Y-126121944D01*
X143189384Y-126356610D01*
X143066614Y-126571568D01*
X142915896Y-126745687D01*
X142735642Y-126883808D01*
X142531148Y-126983346D01*
X142298656Y-127044943D01*
X142032222Y-127066441D01*
X141765692Y-127045124D01*
X141533909Y-126984150D01*
X141330818Y-126885823D01*
X141151870Y-126749242D01*
X141001869Y-126576599D01*
X140879274Y-126363021D01*
X140794714Y-126129620D01*
X140740980Y-125856797D01*
X140721920Y-125537602D01*
X141444208Y-125537602D01*
X141455974Y-125818364D01*
X141487448Y-126034429D01*
X141533709Y-126197768D01*
X141591120Y-126318874D01*
X141674817Y-126426341D01*
X141773945Y-126500909D01*
X141891327Y-126546371D01*
X142032222Y-126562323D01*
X142177772Y-126546257D01*
X142297458Y-126500777D01*
X142396997Y-126426774D01*
X142479553Y-126320889D01*
X142535970Y-126201001D01*
X142581613Y-126038026D01*
X142612772Y-125821044D01*
X142624450Y-125537602D01*
X142612581Y-125254173D01*
X142580937Y-125037652D01*
X142534612Y-124875392D01*
X142477355Y-124756331D01*
X142393992Y-124651148D01*
X142294432Y-124577749D01*
X142175655Y-124532759D01*
X142032222Y-124516912D01*
X141888948Y-124532898D01*
X141770609Y-124578261D01*
X141671669Y-124652295D01*
X141589105Y-124758529D01*
X141532600Y-124878455D01*
X141486963Y-125040907D01*
X141455854Y-125256563D01*
X141444208Y-125537602D01*
X140721920Y-125537602D01*
X140740773Y-125227050D01*
X140794315Y-124957437D01*
X140879274Y-124722808D01*
X141001916Y-124507694D01*
X141151936Y-124333660D01*
X141330818Y-124195793D01*
X141534044Y-124096219D01*
X141765817Y-124034532D01*
X142032222Y-124012978D01*
X142280944Y-124030534D01*
G37*
G36*
X145534848Y-124613632D02*
G01*
X144816774Y-124613632D01*
X144816774Y-126995000D01*
X144127826Y-126995000D01*
X144127826Y-124613632D01*
X143376046Y-124613632D01*
X143376046Y-124084419D01*
X145602076Y-124084419D01*
X145534848Y-124613632D01*
G37*
G36*
X147807039Y-124012978D02*
G01*
X148024239Y-124024133D01*
X148212677Y-124055716D01*
X148376186Y-124105484D01*
X148531100Y-124177146D01*
X148677073Y-124270473D01*
X148815090Y-124386852D01*
X148495804Y-124760544D01*
X148339400Y-124651164D01*
X148182187Y-124575927D01*
X148022303Y-124531654D01*
X147857414Y-124516912D01*
X147738909Y-124526158D01*
X147645404Y-124551490D01*
X147571833Y-124590551D01*
X147513767Y-124646432D01*
X147479075Y-124715688D01*
X147466870Y-124802676D01*
X147479110Y-124892671D01*
X147513032Y-124960212D01*
X147571493Y-125015419D01*
X147676797Y-125075617D01*
X148029605Y-125205860D01*
X148320508Y-125317415D01*
X148533719Y-125434926D01*
X148684848Y-125556470D01*
X148773583Y-125666288D01*
X148838824Y-125798067D01*
X148880193Y-125956253D01*
X148894958Y-126146683D01*
X148878996Y-126324400D01*
X148832617Y-126483460D01*
X148756289Y-126627536D01*
X148652565Y-126753647D01*
X148520886Y-126861291D01*
X148357135Y-126951036D01*
X148179979Y-127013255D01*
X147975722Y-127052572D01*
X147739811Y-127066441D01*
X147504009Y-127053027D01*
X147294515Y-127014577D01*
X147107833Y-126953051D01*
X146930534Y-126867657D01*
X146773632Y-126766868D01*
X146635223Y-126650617D01*
X146983819Y-126268316D01*
X147157367Y-126395164D01*
X147330216Y-126482639D01*
X147514599Y-126535832D01*
X147718929Y-126554080D01*
X147858879Y-126542298D01*
X147969512Y-126509903D01*
X148056900Y-126459558D01*
X148125515Y-126388786D01*
X148166544Y-126302907D01*
X148180914Y-126197058D01*
X148168643Y-126094161D01*
X148134569Y-126014426D01*
X148075582Y-125947846D01*
X147975017Y-125881985D01*
X147847956Y-125825547D01*
X147647487Y-125755956D01*
X147331412Y-125639454D01*
X147109586Y-125518339D01*
X146960738Y-125394904D01*
X146872427Y-125281946D01*
X146809313Y-125155841D01*
X146770511Y-125014027D01*
X146757039Y-124853051D01*
X146772463Y-124689305D01*
X146817349Y-124542786D01*
X146891495Y-124409933D01*
X146991057Y-124293995D01*
X147114510Y-124196187D01*
X147265186Y-124115926D01*
X147427793Y-124059796D01*
X147607510Y-124025023D01*
X147807039Y-124012978D01*
G37*
G36*
X151501090Y-126029080D02*
G01*
X151486271Y-126224456D01*
X151443225Y-126401150D01*
X151372863Y-126562323D01*
X151274357Y-126706626D01*
X151147428Y-126829352D01*
X150988546Y-126931985D01*
X150812901Y-127004311D01*
X150606363Y-127050163D01*
X150362979Y-127066441D01*
X150084824Y-127046238D01*
X149857159Y-126990105D01*
X149670836Y-126902584D01*
X149518693Y-126785073D01*
X149394197Y-126635697D01*
X149304410Y-126463185D01*
X149248538Y-126263029D01*
X149228899Y-126029080D01*
X149228899Y-124084419D01*
X149917664Y-124084419D01*
X149917664Y-125999588D01*
X149931805Y-126184915D01*
X149969227Y-126320306D01*
X150024825Y-126417609D01*
X150105785Y-126490784D01*
X150215333Y-126537076D01*
X150362979Y-126554080D01*
X150513491Y-126536964D01*
X150624208Y-126490573D01*
X150705164Y-126417609D01*
X150760762Y-126320306D01*
X150798184Y-126184915D01*
X150812325Y-125999588D01*
X150812325Y-124084419D01*
X151501090Y-124084419D01*
X151501090Y-126029080D01*
G37*
G36*
X153261719Y-124100950D02*
G01*
X153506236Y-124146094D01*
X153700157Y-124214491D01*
X153852599Y-124302772D01*
X153981258Y-124423113D01*
X154073861Y-124570359D01*
X154132044Y-124750073D01*
X154152835Y-124970654D01*
X154136748Y-125153990D01*
X154091249Y-125308209D01*
X154018379Y-125438867D01*
X153918105Y-125551194D01*
X153779433Y-125657011D01*
X153594312Y-125755956D01*
X154333452Y-126995000D01*
X153556577Y-126995000D01*
X152960136Y-125881985D01*
X152691408Y-125881985D01*
X152691408Y-126995000D01*
X152002460Y-126995000D01*
X152002460Y-125407360D01*
X152691408Y-125407360D01*
X152981202Y-125407360D01*
X153131833Y-125393897D01*
X153244311Y-125357687D01*
X153327599Y-125302397D01*
X153388711Y-125224616D01*
X153428398Y-125117304D01*
X153443187Y-124970654D01*
X153427708Y-124836370D01*
X153385627Y-124737080D01*
X153319173Y-124664007D01*
X153231029Y-124613983D01*
X153107967Y-124580240D01*
X152939070Y-124567470D01*
X152691408Y-124567470D01*
X152691408Y-125407360D01*
X152002460Y-125407360D01*
X152002460Y-124084419D01*
X152955923Y-124084419D01*
X153261719Y-124100950D01*
G37*
G36*
X154593388Y-124084419D02*
G01*
X156328123Y-124084419D01*
X156256681Y-124575713D01*
X155282336Y-124575713D01*
X155282336Y-125348558D01*
X156130652Y-125348558D01*
X156130652Y-125840036D01*
X155282336Y-125840036D01*
X155282336Y-126995000D01*
X154593388Y-126995000D01*
X154593388Y-124084419D01*
G37*
G36*
X158692088Y-126995000D02*
G01*
X157961191Y-126995000D01*
X157810066Y-126369249D01*
X156961566Y-126369249D01*
X156814654Y-126995000D01*
X156100610Y-126995000D01*
X156440099Y-125869345D01*
X157079169Y-125869345D01*
X157692463Y-125869345D01*
X157385816Y-124584139D01*
X157079169Y-125869345D01*
X156440099Y-125869345D01*
X156978419Y-124084419D01*
X157814279Y-124084419D01*
X158692088Y-126995000D01*
G37*
G36*
X160052399Y-124012978D02*
G01*
X160315807Y-124033890D01*
X160537465Y-124092845D01*
X160741658Y-124191255D01*
X160938634Y-124332264D01*
X160610921Y-124722808D01*
X160478718Y-124632800D01*
X160354832Y-124571683D01*
X160225420Y-124533921D01*
X160085921Y-124521125D01*
X159945250Y-124536948D01*
X159823570Y-124582714D01*
X159716541Y-124658720D01*
X159621737Y-124768970D01*
X159553962Y-124893835D01*
X159500607Y-125056726D01*
X159464930Y-125266495D01*
X159451744Y-125533389D01*
X159464879Y-125795615D01*
X159500470Y-126002308D01*
X159553809Y-126163376D01*
X159621737Y-126287367D01*
X159716376Y-126395999D01*
X159824597Y-126471404D01*
X159949054Y-126517122D01*
X160094347Y-126533014D01*
X160248432Y-126517417D01*
X160384141Y-126472198D01*
X160514530Y-126401233D01*
X160665509Y-126297808D01*
X160972156Y-126692566D01*
X160793449Y-126840036D01*
X160575200Y-126961477D01*
X160416830Y-127019130D01*
X160246100Y-127054369D01*
X160060825Y-127066441D01*
X159796859Y-127045731D01*
X159564881Y-126986256D01*
X159359420Y-126890036D01*
X159220419Y-126792727D01*
X159097262Y-126674496D01*
X158988942Y-126533546D01*
X158895237Y-126367234D01*
X158805992Y-126130592D01*
X158749466Y-125854973D01*
X158729457Y-125533389D01*
X158749795Y-125220636D01*
X158807573Y-124949760D01*
X158899450Y-124714382D01*
X159030039Y-124499610D01*
X159186346Y-124326979D01*
X159369862Y-124191580D01*
X159576461Y-124093333D01*
X159802508Y-124033523D01*
X160052399Y-124012978D01*
G37*
G36*
X162992472Y-124575713D02*
G01*
X161967751Y-124575713D01*
X161967751Y-125273087D01*
X162862229Y-125273087D01*
X162862229Y-125755956D01*
X161967751Y-125755956D01*
X161967751Y-126499309D01*
X163063913Y-126499309D01*
X163063913Y-126995000D01*
X161278803Y-126995000D01*
X161278803Y-124084419D01*
X163063913Y-124084419D01*
X162992472Y-124575713D01*
G37*
D12*
G36*
X88766728Y-35244580D02*
G01*
X88995016Y-35262705D01*
X89187119Y-35313799D01*
X89364087Y-35399087D01*
X89534799Y-35521295D01*
X89250781Y-35859767D01*
X89136205Y-35781760D01*
X89028838Y-35728792D01*
X88916681Y-35696065D01*
X88795781Y-35684975D01*
X88673867Y-35698689D01*
X88568410Y-35738352D01*
X88475652Y-35804224D01*
X88393489Y-35899774D01*
X88334750Y-36007990D01*
X88288509Y-36149162D01*
X88257589Y-36330962D01*
X88246161Y-36562271D01*
X88257544Y-36789533D01*
X88288391Y-36968666D01*
X88334617Y-37108259D01*
X88393489Y-37215718D01*
X88475509Y-37309865D01*
X88569301Y-37375217D01*
X88677163Y-37414839D01*
X88803084Y-37428612D01*
X88936624Y-37415095D01*
X89054239Y-37375905D01*
X89167242Y-37314402D01*
X89298091Y-37224767D01*
X89563852Y-37566890D01*
X89408972Y-37694698D01*
X89219823Y-37799947D01*
X89082569Y-37849912D01*
X88934603Y-37880453D01*
X88774031Y-37890915D01*
X88545261Y-37872967D01*
X88344213Y-37821422D01*
X88166147Y-37738031D01*
X88045679Y-37653697D01*
X87938943Y-37551230D01*
X87845066Y-37429074D01*
X87763855Y-37284936D01*
X87686509Y-37079846D01*
X87637520Y-36840977D01*
X87620179Y-36562271D01*
X87637805Y-36291218D01*
X87687879Y-36056459D01*
X87767506Y-35852464D01*
X87880684Y-35666328D01*
X88016150Y-35516715D01*
X88175197Y-35399369D01*
X88354249Y-35314222D01*
X88550157Y-35262387D01*
X88766728Y-35244580D01*
G37*
G36*
X90720681Y-35847231D02*
G01*
X90887170Y-35882601D01*
X91016738Y-35936063D01*
X91116503Y-36005348D01*
X91197668Y-36096893D01*
X91257482Y-36209660D01*
X91295658Y-36348191D01*
X91309394Y-36518612D01*
X91309394Y-37268426D01*
X91318436Y-37369466D01*
X91340352Y-37428612D01*
X91379518Y-37472139D01*
X91440528Y-37504975D01*
X91320348Y-37879961D01*
X91152340Y-37851429D01*
X91029187Y-37801693D01*
X90960817Y-37752455D01*
X90902721Y-37687143D01*
X90854394Y-37603246D01*
X90771280Y-37706070D01*
X90673934Y-37785076D01*
X90560540Y-37842403D01*
X90427979Y-37878263D01*
X90272070Y-37890915D01*
X90129798Y-37879485D01*
X90008222Y-37847030D01*
X89903680Y-37795072D01*
X89813419Y-37723426D01*
X89739358Y-37634539D01*
X89686375Y-37533812D01*
X89653685Y-37418926D01*
X89642278Y-37286683D01*
X89647475Y-37235721D01*
X90217458Y-37235721D01*
X90233180Y-37342443D01*
X90275722Y-37415912D01*
X90343651Y-37462803D01*
X90439560Y-37479573D01*
X90530632Y-37468298D01*
X90610234Y-37435372D01*
X90681277Y-37379803D01*
X90745169Y-37297637D01*
X90745169Y-36951704D01*
X90603239Y-36951704D01*
X90473276Y-36960936D01*
X90379056Y-36985222D01*
X90312077Y-37020922D01*
X90260790Y-37073655D01*
X90228987Y-37143389D01*
X90217458Y-37235721D01*
X89647475Y-37235721D01*
X89657948Y-37133013D01*
X89702469Y-37004262D01*
X89774717Y-36895211D01*
X89877081Y-36802630D01*
X89996452Y-36734134D01*
X90144164Y-36681716D01*
X90325971Y-36647533D01*
X90548627Y-36635140D01*
X90745169Y-36635140D01*
X90745169Y-36551316D01*
X90735189Y-36439465D01*
X90709604Y-36364795D01*
X90672299Y-36316672D01*
X90619413Y-36284367D01*
X90538126Y-36261722D01*
X90417651Y-36252852D01*
X90318603Y-36259024D01*
X90188246Y-36280158D01*
X89911690Y-36354774D01*
X89780715Y-35976295D01*
X89964941Y-35915285D01*
X90153637Y-35870721D01*
X90341926Y-35842931D01*
X90508620Y-35834207D01*
X90720681Y-35847231D01*
G37*
G36*
X92241461Y-37890915D02*
G01*
X92079960Y-37873464D01*
X91952044Y-37824873D01*
X91850123Y-37747080D01*
X91774952Y-37642923D01*
X91727259Y-37509310D01*
X91709940Y-37337644D01*
X91709940Y-35128052D01*
X92285120Y-35066295D01*
X92285120Y-37315735D01*
X92297915Y-37385810D01*
X92330785Y-37422776D01*
X92387042Y-37435915D01*
X92481662Y-37417658D01*
X92590887Y-37825348D01*
X92433444Y-37873661D01*
X92241461Y-37890915D01*
G37*
G36*
X93648215Y-35834207D02*
G01*
X93842027Y-35849365D01*
X94008595Y-35892471D01*
X94162609Y-35965266D01*
X94310711Y-36070915D01*
X94063208Y-36413038D01*
X93936601Y-36333816D01*
X93814987Y-36289171D01*
X93695525Y-36274760D01*
X93574353Y-36291452D01*
X93479449Y-36338529D01*
X93404363Y-36416690D01*
X93354449Y-36517002D01*
X93319588Y-36664596D01*
X93306092Y-36875341D01*
X93319764Y-37078637D01*
X93354723Y-37217311D01*
X93404363Y-37308591D01*
X93478108Y-37378340D01*
X93570734Y-37420810D01*
X93688222Y-37435915D01*
X93783427Y-37427913D01*
X93866507Y-37404957D01*
X93949484Y-37367205D01*
X94059556Y-37304781D01*
X94310711Y-37661510D01*
X94160801Y-37762644D01*
X94003645Y-37833713D01*
X93837274Y-37876432D01*
X93659169Y-37890915D01*
X93465990Y-37876085D01*
X93297509Y-37833657D01*
X93149556Y-37765338D01*
X93017460Y-37670456D01*
X92907568Y-37553553D01*
X92818229Y-37412260D01*
X92755031Y-37256603D01*
X92715632Y-37080114D01*
X92701859Y-36878993D01*
X92715484Y-36677845D01*
X92754756Y-36498152D01*
X92818229Y-36336676D01*
X92907832Y-36189057D01*
X93017805Y-36066724D01*
X93149556Y-35967087D01*
X93297805Y-35894247D01*
X93462791Y-35849635D01*
X93648215Y-35834207D01*
G37*
G36*
X96137697Y-37829000D02*
G01*
X95639038Y-37829000D01*
X95613637Y-37585147D01*
X95522398Y-37696632D01*
X95420036Y-37780986D01*
X95305231Y-37841120D01*
X95175520Y-37878071D01*
X95027503Y-37890915D01*
X94896032Y-37879709D01*
X94787993Y-37848358D01*
X94698856Y-37798766D01*
X94625369Y-37730728D01*
X94552550Y-37616423D01*
X94505850Y-37470144D01*
X94488838Y-37283031D01*
X94488838Y-35896123D01*
X95064017Y-35896123D01*
X95064017Y-37210161D01*
X95077515Y-37339541D01*
X95109422Y-37408609D01*
X95164765Y-37449855D01*
X95249605Y-37464968D01*
X95332635Y-37452408D01*
X95410953Y-37414088D01*
X95487259Y-37345769D01*
X95562676Y-37239373D01*
X95562676Y-35896123D01*
X96137697Y-35896123D01*
X96137697Y-37829000D01*
G37*
G36*
X97085481Y-37890915D02*
G01*
X96923980Y-37873464D01*
X96796064Y-37824873D01*
X96694143Y-37747080D01*
X96618971Y-37642923D01*
X96571278Y-37509310D01*
X96553960Y-37337644D01*
X96553960Y-35128052D01*
X97129139Y-35066295D01*
X97129139Y-37315735D01*
X97141934Y-37385810D01*
X97174805Y-37422776D01*
X97231062Y-37435915D01*
X97325682Y-37417658D01*
X97434907Y-37825348D01*
X97277463Y-37873661D01*
X97085481Y-37890915D01*
G37*
G36*
X98595070Y-35847231D02*
G01*
X98761560Y-35882601D01*
X98891128Y-35936063D01*
X98990893Y-36005348D01*
X99072057Y-36096893D01*
X99131872Y-36209660D01*
X99170047Y-36348191D01*
X99183784Y-36518612D01*
X99183784Y-37268426D01*
X99192825Y-37369466D01*
X99214741Y-37428612D01*
X99253907Y-37472139D01*
X99314918Y-37504975D01*
X99194738Y-37879961D01*
X99026729Y-37851429D01*
X98903576Y-37801693D01*
X98835206Y-37752455D01*
X98777111Y-37687143D01*
X98728784Y-37603246D01*
X98645669Y-37706070D01*
X98548323Y-37785076D01*
X98434930Y-37842403D01*
X98302368Y-37878263D01*
X98146460Y-37890915D01*
X98004188Y-37879485D01*
X97882611Y-37847030D01*
X97778069Y-37795072D01*
X97687808Y-37723426D01*
X97613747Y-37634539D01*
X97560764Y-37533812D01*
X97528074Y-37418926D01*
X97516667Y-37286683D01*
X97521864Y-37235721D01*
X98091847Y-37235721D01*
X98107570Y-37342443D01*
X98150111Y-37415912D01*
X98218040Y-37462803D01*
X98313949Y-37479573D01*
X98405021Y-37468298D01*
X98484623Y-37435372D01*
X98555666Y-37379803D01*
X98619558Y-37297637D01*
X98619558Y-36951704D01*
X98477629Y-36951704D01*
X98347665Y-36960936D01*
X98253446Y-36985222D01*
X98186467Y-37020922D01*
X98135179Y-37073655D01*
X98103377Y-37143389D01*
X98091847Y-37235721D01*
X97521864Y-37235721D01*
X97532337Y-37133013D01*
X97576858Y-37004262D01*
X97649107Y-36895211D01*
X97751470Y-36802630D01*
X97870842Y-36734134D01*
X98018553Y-36681716D01*
X98200361Y-36647533D01*
X98423016Y-36635140D01*
X98619558Y-36635140D01*
X98619558Y-36551316D01*
X98609579Y-36439465D01*
X98583994Y-36364795D01*
X98546688Y-36316672D01*
X98493803Y-36284367D01*
X98412515Y-36261722D01*
X98292041Y-36252852D01*
X98192992Y-36259024D01*
X98062636Y-36280158D01*
X97786079Y-36354774D01*
X97655104Y-35976295D01*
X97839331Y-35915285D01*
X98028026Y-35870721D01*
X98216315Y-35842931D01*
X98383009Y-35834207D01*
X98595070Y-35847231D01*
G37*
G36*
X100853599Y-37738031D02*
G01*
X100741326Y-37801667D01*
X100607841Y-37850749D01*
X100467241Y-37881002D01*
X100329380Y-37890915D01*
X100153861Y-37874312D01*
X100014981Y-37830513D01*
X99905040Y-37762631D01*
X99818755Y-37670213D01*
X99753876Y-37549317D01*
X99711500Y-37393017D01*
X99695936Y-37192063D01*
X99695936Y-36296510D01*
X99423032Y-36296510D01*
X99423032Y-35896123D01*
X99695936Y-35896123D01*
X99695936Y-35477637D01*
X100271116Y-35412070D01*
X100271116Y-35896123D01*
X100715162Y-35896123D01*
X100653405Y-36296510D01*
X100271116Y-36296510D01*
X100271116Y-37184760D01*
X100283905Y-37308122D01*
X100314774Y-37377651D01*
X100368748Y-37420302D01*
X100453053Y-37435915D01*
X100550942Y-37421377D01*
X100660549Y-37374000D01*
X100853599Y-37738031D01*
G37*
G36*
X101979814Y-35852078D02*
G01*
X102154026Y-35902699D01*
X102302251Y-35983825D01*
X102428794Y-36096316D01*
X102528241Y-36233057D01*
X102601848Y-36396280D01*
X102648648Y-36591194D01*
X102665343Y-36824380D01*
X102654389Y-37031876D01*
X101456878Y-37031876D01*
X101488909Y-37190713D01*
X101536138Y-37300652D01*
X101595157Y-37374000D01*
X101673444Y-37426740D01*
X101772247Y-37460179D01*
X101897273Y-37472271D01*
X102011928Y-37461841D01*
X102123026Y-37430517D01*
X102232440Y-37379574D01*
X102359576Y-37301130D01*
X102596284Y-37621503D01*
X102419536Y-37740869D01*
X102236572Y-37824272D01*
X102045206Y-37874107D01*
X101842660Y-37890915D01*
X101653101Y-37878441D01*
X101489953Y-37843085D01*
X101349144Y-37786993D01*
X101227328Y-37710955D01*
X101122058Y-37614359D01*
X101015393Y-37469660D01*
X100937334Y-37300912D01*
X100888252Y-37103545D01*
X100870903Y-36871690D01*
X100882654Y-36686102D01*
X101456878Y-36686102D01*
X102101118Y-36686102D01*
X102101118Y-36660542D01*
X102082065Y-36479911D01*
X102038472Y-36358387D01*
X101976214Y-36279523D01*
X101894951Y-36232982D01*
X101788206Y-36216496D01*
X101694175Y-36229221D01*
X101618622Y-36265408D01*
X101557055Y-36325721D01*
X101513871Y-36403455D01*
X101479166Y-36519385D01*
X101456878Y-36686102D01*
X100882654Y-36686102D01*
X100883204Y-36677418D01*
X100918802Y-36501761D01*
X100976477Y-36342073D01*
X101058763Y-36194997D01*
X101161442Y-36072091D01*
X101285737Y-35970739D01*
X101427275Y-35896186D01*
X101588413Y-35850230D01*
X101773600Y-35834207D01*
X101979814Y-35852078D01*
G37*
G36*
X104708874Y-35128052D02*
G01*
X104708874Y-37829000D01*
X104199262Y-37829000D01*
X104170050Y-37603246D01*
X104057035Y-37731095D01*
X103930005Y-37819373D01*
X103786120Y-37872546D01*
X103620430Y-37890915D01*
X103446213Y-37872558D01*
X103300478Y-37820356D01*
X103177135Y-37735376D01*
X103072557Y-37614359D01*
X102995213Y-37473855D01*
X102936608Y-37304540D01*
X102898798Y-37101040D01*
X102885426Y-36860735D01*
X103482152Y-36860735D01*
X103493945Y-37088257D01*
X103523546Y-37239014D01*
X103564071Y-37333993D01*
X103627674Y-37409719D01*
X103704434Y-37453520D01*
X103798874Y-37468619D01*
X103891790Y-37455865D01*
X103976944Y-37417670D01*
X104057158Y-37351219D01*
X104133695Y-37250168D01*
X104133695Y-36416690D01*
X104061423Y-36341646D01*
X103993511Y-36293017D01*
X103918643Y-36263167D01*
X103831578Y-36252852D01*
X103732804Y-36269171D01*
X103649279Y-36317364D01*
X103576772Y-36402084D01*
X103528352Y-36506529D01*
X103494936Y-36654911D01*
X103482152Y-36860735D01*
X102885426Y-36860735D01*
X102885223Y-36857084D01*
X102896740Y-36662489D01*
X102929954Y-36487462D01*
X102983494Y-36329373D01*
X103060109Y-36182191D01*
X103152807Y-36061983D01*
X103261955Y-35965341D01*
X103387446Y-35892707D01*
X103524061Y-35849099D01*
X103675043Y-35834207D01*
X103810462Y-35846132D01*
X103930204Y-35880585D01*
X104037236Y-35936924D01*
X104133695Y-36016302D01*
X104133695Y-35066295D01*
X104708874Y-35128052D01*
G37*
G36*
X107119352Y-35320823D02*
G01*
X107331267Y-35359948D01*
X107499331Y-35419225D01*
X107631448Y-35495735D01*
X107742952Y-35600032D01*
X107823208Y-35727645D01*
X107873633Y-35883397D01*
X107891652Y-36074566D01*
X107877710Y-36233458D01*
X107838278Y-36367114D01*
X107775123Y-36480352D01*
X107688220Y-36577702D01*
X107568037Y-36669410D01*
X107407599Y-36755161D01*
X108048187Y-37829000D01*
X107374895Y-37829000D01*
X106857979Y-36864387D01*
X106625081Y-36864387D01*
X106625081Y-37829000D01*
X106027993Y-37829000D01*
X106027993Y-36453045D01*
X106625081Y-36453045D01*
X106876236Y-36453045D01*
X107006784Y-36441377D01*
X107104265Y-36409996D01*
X107176448Y-36362077D01*
X107229411Y-36294667D01*
X107263807Y-36201663D01*
X107276624Y-36074566D01*
X107263209Y-35958187D01*
X107226738Y-35872136D01*
X107169145Y-35808806D01*
X107092753Y-35765452D01*
X106986099Y-35736208D01*
X106839722Y-35725140D01*
X106625081Y-35725140D01*
X106625081Y-36453045D01*
X106027993Y-36453045D01*
X106027993Y-35306496D01*
X106854328Y-35306496D01*
X107119352Y-35320823D01*
G37*
G36*
X110204953Y-35257920D02*
G01*
X110430697Y-35296418D01*
X110635363Y-35358399D01*
X110821528Y-35443028D01*
X110998008Y-35552803D01*
X111148782Y-35676740D01*
X111276257Y-35815149D01*
X111382102Y-35968993D01*
X111466726Y-36136729D01*
X111526701Y-36309951D01*
X111562807Y-36490089D01*
X111574993Y-36678799D01*
X111563419Y-36895457D01*
X111530129Y-37089857D01*
X111476721Y-37264774D01*
X111399397Y-37429270D01*
X111306525Y-37562508D01*
X111198260Y-37668813D01*
X111071776Y-37749738D01*
X110934083Y-37797966D01*
X110781521Y-37814394D01*
X110649631Y-37801294D01*
X110541484Y-37764453D01*
X110452098Y-37705327D01*
X110377786Y-37626485D01*
X110325587Y-37539677D01*
X110293658Y-37443218D01*
X110239701Y-37546476D01*
X110173123Y-37632541D01*
X110093464Y-37703422D01*
X110001847Y-37756111D01*
X109896236Y-37788586D01*
X109773250Y-37799947D01*
X109610922Y-37784589D01*
X109477228Y-37741409D01*
X109366350Y-37672359D01*
X109274433Y-37576098D01*
X109204260Y-37461132D01*
X109152054Y-37326146D01*
X109118882Y-37167524D01*
X109107332Y-36984566D01*
X109627669Y-36984566D01*
X109635211Y-37151262D01*
X109654256Y-37263663D01*
X109680376Y-37335898D01*
X109723177Y-37394023D01*
X109778238Y-37427763D01*
X109849612Y-37439566D01*
X109931384Y-37426549D01*
X109998845Y-37388605D01*
X110054040Y-37331681D01*
X110097116Y-37261123D01*
X110097116Y-36394781D01*
X110013634Y-36369929D01*
X109936929Y-36362077D01*
X109845712Y-36377839D01*
X109770718Y-36424161D01*
X109707683Y-36505912D01*
X109667760Y-36606189D01*
X109638992Y-36759609D01*
X109627669Y-36984566D01*
X109107332Y-36984566D01*
X109107102Y-36980915D01*
X109122775Y-36755046D01*
X109166922Y-36563863D01*
X109236624Y-36401647D01*
X109330950Y-36263806D01*
X109451807Y-36149105D01*
X109593108Y-36066995D01*
X109758928Y-36016009D01*
X109955186Y-35998045D01*
X110109058Y-36008237D01*
X110273654Y-36039957D01*
X110434781Y-36091592D01*
X110584979Y-36161883D01*
X110584979Y-37060929D01*
X110596715Y-37265948D01*
X110623080Y-37370348D01*
X110655413Y-37419429D01*
X110698539Y-37447729D01*
X110755961Y-37457665D01*
X110839996Y-37439799D01*
X110912822Y-37384743D01*
X110977904Y-37281126D01*
X111017552Y-37158861D01*
X111046577Y-36968392D01*
X111058077Y-36686102D01*
X111045582Y-36488716D01*
X111010134Y-36318141D01*
X110953897Y-36170370D01*
X110877775Y-36042070D01*
X110781362Y-35930732D01*
X110668092Y-35839931D01*
X110532607Y-35766658D01*
X110371226Y-35711385D01*
X110179329Y-35675905D01*
X109951535Y-35663225D01*
X109760353Y-35674139D01*
X109588782Y-35705570D01*
X109434263Y-35756113D01*
X109294595Y-35825158D01*
X109125810Y-35947394D01*
X108987042Y-36096874D01*
X108875950Y-36276506D01*
X108797709Y-36474227D01*
X108749067Y-36696611D01*
X108732116Y-36948052D01*
X108746333Y-37187287D01*
X108786747Y-37395489D01*
X108850895Y-37577058D01*
X108937580Y-37735724D01*
X109046933Y-37874404D01*
X109178327Y-37991430D01*
X109331104Y-38083963D01*
X109508486Y-38152488D01*
X109714781Y-38195813D01*
X109955186Y-38211130D01*
X110138148Y-38202635D01*
X110330013Y-38176520D01*
X110516852Y-38135789D01*
X110672295Y-38087457D01*
X110806922Y-38484193D01*
X110621378Y-38545159D01*
X110401137Y-38595165D01*
X110173885Y-38626701D01*
X109951535Y-38637077D01*
X109689133Y-38623196D01*
X109450650Y-38583040D01*
X109233194Y-38518238D01*
X109034232Y-38429580D01*
X108847521Y-38313961D01*
X108685208Y-38177890D01*
X108545215Y-38020439D01*
X108426348Y-37839795D01*
X108334388Y-37645740D01*
X108267408Y-37434180D01*
X108226002Y-37202590D01*
X108211707Y-36948052D01*
X108226246Y-36705854D01*
X108268814Y-36480455D01*
X108338551Y-36269488D01*
X108435556Y-36070915D01*
X108558701Y-35886286D01*
X108702329Y-35724440D01*
X108867522Y-35583664D01*
X109056140Y-35463031D01*
X109257878Y-35368713D01*
X109473513Y-35300602D01*
X109705142Y-35258871D01*
X109955186Y-35244580D01*
X110204953Y-35257920D01*
G37*
G36*
X112543257Y-35317450D02*
G01*
X112718415Y-35328806D01*
X112869428Y-35360997D01*
X113000003Y-35412070D01*
X113119770Y-35484227D01*
X113215871Y-35568978D01*
X113291165Y-35666876D01*
X113346792Y-35777234D01*
X113380071Y-35894236D01*
X113391341Y-36019954D01*
X113382391Y-36149269D01*
X113355739Y-36273863D01*
X113311168Y-36394940D01*
X113208648Y-36574137D01*
X113027309Y-36804376D01*
X112796380Y-37046925D01*
X112434031Y-37388605D01*
X113442302Y-37388605D01*
X113384038Y-37829000D01*
X111782489Y-37829000D01*
X111782489Y-37421309D01*
X112197544Y-37006116D01*
X112434031Y-36757066D01*
X112617831Y-36538130D01*
X112719795Y-36383986D01*
X112781657Y-36231344D01*
X112801714Y-36078218D01*
X112791387Y-35982215D01*
X112762515Y-35905371D01*
X112716144Y-35843415D01*
X112654265Y-35796877D01*
X112578534Y-35768085D01*
X112484993Y-35757845D01*
X112359817Y-35773268D01*
X112252095Y-35818014D01*
X112153054Y-35891630D01*
X112037295Y-36012651D01*
X111698824Y-35743239D01*
X111808443Y-35618479D01*
X111930058Y-35514665D01*
X112064602Y-35430327D01*
X112210265Y-35368319D01*
X112368936Y-35330455D01*
X112543257Y-35317450D01*
G37*
G36*
X114801645Y-35331777D02*
G01*
X114956236Y-35372690D01*
X115091091Y-35438563D01*
X115209362Y-35529796D01*
X115312946Y-35648778D01*
X115410338Y-35817206D01*
X115484966Y-36026428D01*
X115533706Y-36284834D01*
X115551400Y-36602278D01*
X115533799Y-36917583D01*
X115485198Y-37175609D01*
X115410578Y-37385771D01*
X115312946Y-37556095D01*
X115209176Y-37676508D01*
X115090794Y-37768712D01*
X114955930Y-37835207D01*
X114801442Y-37876472D01*
X114623143Y-37890915D01*
X114444844Y-37876472D01*
X114290356Y-37835207D01*
X114155493Y-37768712D01*
X114037110Y-37676508D01*
X113933340Y-37556095D01*
X113835708Y-37385771D01*
X113761088Y-37175609D01*
X113712487Y-36917583D01*
X113694886Y-36602278D01*
X114284672Y-36602278D01*
X114294509Y-36912457D01*
X114319122Y-37117447D01*
X114349738Y-37240764D01*
X114386136Y-37327005D01*
X114426442Y-37384954D01*
X114479675Y-37428803D01*
X114544122Y-37455537D01*
X114623143Y-37464968D01*
X114702190Y-37455713D01*
X114766589Y-37429522D01*
X114819685Y-37386700D01*
X114859975Y-37329877D01*
X114896387Y-37244388D01*
X114927006Y-37121098D01*
X114951708Y-36915645D01*
X114961615Y-36602278D01*
X114951709Y-36289048D01*
X114927006Y-36083616D01*
X114896300Y-35960227D01*
X114859876Y-35875448D01*
X114819685Y-35819760D01*
X114766721Y-35777969D01*
X114702322Y-35752320D01*
X114623143Y-35743239D01*
X114544134Y-35752686D01*
X114479687Y-35779468D01*
X114426442Y-35823412D01*
X114386083Y-35881232D01*
X114349696Y-35966958D01*
X114319122Y-36089172D01*
X114294531Y-36292479D01*
X114284672Y-36602278D01*
X113694886Y-36602278D01*
X113712580Y-36284834D01*
X113761320Y-36026428D01*
X113835949Y-35817206D01*
X113933340Y-35648778D01*
X114036925Y-35529796D01*
X114155196Y-35438563D01*
X114290051Y-35372690D01*
X114444641Y-35331777D01*
X114623143Y-35317450D01*
X114801645Y-35331777D01*
G37*
G36*
X116638544Y-35263152D02*
G01*
X116791775Y-35319197D01*
X116885094Y-35376307D01*
X116965361Y-35447537D01*
X117033722Y-35533996D01*
X117084769Y-35631124D01*
X117115869Y-35738868D01*
X117126596Y-35859767D01*
X117115835Y-35983133D01*
X117084697Y-36092708D01*
X117033722Y-36191095D01*
X116965321Y-36278782D01*
X116885041Y-36351221D01*
X116791775Y-36409546D01*
X116638453Y-36466924D01*
X116478705Y-36485908D01*
X116319071Y-36466933D01*
X116165635Y-36409546D01*
X116072381Y-36351178D01*
X115991434Y-36278141D01*
X115921782Y-36189190D01*
X115869611Y-36089645D01*
X115838005Y-35980630D01*
X115827163Y-35859767D01*
X116223899Y-35859767D01*
X116232279Y-35944532D01*
X116255715Y-36013135D01*
X116293117Y-36069010D01*
X116343823Y-36112074D01*
X116404655Y-36138132D01*
X116478705Y-36147278D01*
X116550421Y-36138223D01*
X116610115Y-36112254D01*
X116660642Y-36069010D01*
X116698044Y-36013135D01*
X116721480Y-35944532D01*
X116729860Y-35859767D01*
X116721638Y-35774888D01*
X116698779Y-35706986D01*
X116662547Y-35652429D01*
X116613125Y-35610483D01*
X116552933Y-35584932D01*
X116478705Y-35575908D01*
X116404523Y-35584884D01*
X116343692Y-35610406D01*
X116293117Y-35652429D01*
X116255787Y-35707130D01*
X116232322Y-35775033D01*
X116223899Y-35859767D01*
X115827163Y-35859767D01*
X115837889Y-35738868D01*
X115868989Y-35631124D01*
X115920036Y-35533996D01*
X115988576Y-35447648D01*
X116069451Y-35376403D01*
X116163888Y-35319197D01*
X116318725Y-35263101D01*
X116478705Y-35244580D01*
X116638544Y-35263152D01*
G37*
G36*
X118846896Y-35244580D02*
G01*
X119075183Y-35262705D01*
X119267287Y-35313799D01*
X119444254Y-35399087D01*
X119614966Y-35521295D01*
X119330949Y-35859767D01*
X119216373Y-35781760D01*
X119109005Y-35728792D01*
X118996848Y-35696065D01*
X118875949Y-35684975D01*
X118754034Y-35698689D01*
X118648577Y-35738352D01*
X118555820Y-35804224D01*
X118473656Y-35899774D01*
X118414917Y-36007990D01*
X118368677Y-36149162D01*
X118337757Y-36330962D01*
X118326329Y-36562271D01*
X118337712Y-36789533D01*
X118368558Y-36968666D01*
X118414785Y-37108259D01*
X118473656Y-37215718D01*
X118555677Y-37309865D01*
X118649468Y-37375217D01*
X118757331Y-37414839D01*
X118883251Y-37428612D01*
X119016791Y-37415095D01*
X119134406Y-37375905D01*
X119247410Y-37314402D01*
X119378258Y-37224767D01*
X119644019Y-37566890D01*
X119489140Y-37694698D01*
X119299991Y-37799947D01*
X119162737Y-37849912D01*
X119014770Y-37880453D01*
X118854199Y-37890915D01*
X118625428Y-37872967D01*
X118424381Y-37821422D01*
X118246315Y-37738031D01*
X118125847Y-37653697D01*
X118019111Y-37551230D01*
X117925233Y-37429074D01*
X117844023Y-37284936D01*
X117766677Y-37079846D01*
X117717688Y-36840977D01*
X117700347Y-36562271D01*
X117717973Y-36291218D01*
X117768047Y-36056459D01*
X117847674Y-35852464D01*
X117960851Y-35666328D01*
X118096317Y-35516715D01*
X118255364Y-35399369D01*
X118434416Y-35314222D01*
X118630324Y-35262387D01*
X118846896Y-35244580D01*
G37*
G36*
X120109973Y-37232070D02*
G01*
X120195864Y-37242875D01*
X120272045Y-37274636D01*
X120341125Y-37328595D01*
X120395092Y-37397672D01*
X120426849Y-37473802D01*
X120437650Y-37559587D01*
X120426749Y-37647898D01*
X120394893Y-37725297D01*
X120341125Y-37794549D01*
X120272056Y-37848412D01*
X120195874Y-37880125D01*
X120109973Y-37890915D01*
X120021758Y-37880034D01*
X119944408Y-37848230D01*
X119875170Y-37794549D01*
X119821498Y-37725308D01*
X119789690Y-37647908D01*
X119778804Y-37559587D01*
X119789590Y-37473791D01*
X119821299Y-37397660D01*
X119875170Y-37328595D01*
X119944420Y-37274818D01*
X120021768Y-37242966D01*
X120109973Y-37232070D01*
G37*
G36*
X120109973Y-35972644D02*
G01*
X120195864Y-35983449D01*
X120272045Y-36015210D01*
X120341125Y-36069169D01*
X120395092Y-36138246D01*
X120426849Y-36214376D01*
X120437650Y-36300161D01*
X120426749Y-36388472D01*
X120394893Y-36465871D01*
X120341125Y-36535123D01*
X120272056Y-36588986D01*
X120195874Y-36620699D01*
X120109973Y-36631489D01*
X120021758Y-36620608D01*
X119944408Y-36588804D01*
X119875170Y-36535123D01*
X119821498Y-36465882D01*
X119789690Y-36388482D01*
X119778804Y-36300161D01*
X119789590Y-36214365D01*
X119821299Y-36138234D01*
X119875170Y-36069169D01*
X119944420Y-36015392D01*
X120021768Y-35983540D01*
X120109973Y-35972644D01*
G37*
G36*
X123133040Y-35317450D02*
G01*
X123308198Y-35328806D01*
X123459212Y-35360997D01*
X123589787Y-35412070D01*
X123709554Y-35484227D01*
X123805655Y-35568978D01*
X123880949Y-35666876D01*
X123936576Y-35777234D01*
X123969855Y-35894236D01*
X123981125Y-36019954D01*
X123972175Y-36149269D01*
X123945522Y-36273863D01*
X123900952Y-36394940D01*
X123798432Y-36574137D01*
X123617093Y-36804376D01*
X123386164Y-37046925D01*
X123023815Y-37388605D01*
X124032086Y-37388605D01*
X123973822Y-37829000D01*
X122372273Y-37829000D01*
X122372273Y-37421309D01*
X122787328Y-37006116D01*
X123023815Y-36757066D01*
X123207615Y-36538130D01*
X123309579Y-36383986D01*
X123371440Y-36231344D01*
X123391498Y-36078218D01*
X123381171Y-35982215D01*
X123352298Y-35905371D01*
X123305928Y-35843415D01*
X123244048Y-35796877D01*
X123168318Y-35768085D01*
X123074776Y-35757845D01*
X122949601Y-35773268D01*
X122841878Y-35818014D01*
X122742838Y-35891630D01*
X122627079Y-36012651D01*
X122288607Y-35743239D01*
X122398227Y-35618479D01*
X122519841Y-35514665D01*
X122654385Y-35430327D01*
X122800048Y-35368319D01*
X122958720Y-35330455D01*
X123133040Y-35317450D01*
G37*
G36*
X124583135Y-37232070D02*
G01*
X124669025Y-37242875D01*
X124745206Y-37274636D01*
X124814286Y-37328595D01*
X124868253Y-37397672D01*
X124900010Y-37473802D01*
X124910811Y-37559587D01*
X124899910Y-37647898D01*
X124868054Y-37725297D01*
X124814286Y-37794549D01*
X124745217Y-37848412D01*
X124669036Y-37880125D01*
X124583135Y-37890915D01*
X124494919Y-37880034D01*
X124417570Y-37848230D01*
X124348332Y-37794549D01*
X124294659Y-37725308D01*
X124262851Y-37647908D01*
X124251966Y-37559587D01*
X124262751Y-37473791D01*
X124294460Y-37397660D01*
X124348332Y-37328595D01*
X124417581Y-37274818D01*
X124494929Y-37242966D01*
X124583135Y-37232070D01*
G37*
G36*
X126396673Y-35336213D02*
G01*
X126582137Y-35390878D01*
X126751132Y-35481130D01*
X126539984Y-35823412D01*
X126427834Y-35770041D01*
X126316760Y-35739009D01*
X126205163Y-35728792D01*
X126105861Y-35739846D01*
X126018606Y-35772003D01*
X125940589Y-35825643D01*
X125870184Y-35903584D01*
X125800781Y-36026403D01*
X125748572Y-36188127D01*
X125717301Y-36398433D01*
X125835688Y-36297944D01*
X125960478Y-36228380D01*
X126093612Y-36186896D01*
X126237868Y-36172838D01*
X126371046Y-36183928D01*
X126491602Y-36216234D01*
X126601899Y-36269362D01*
X126699863Y-36342288D01*
X126783319Y-36434838D01*
X126853054Y-36549570D01*
X126902183Y-36675246D01*
X126933120Y-36820295D01*
X126944023Y-36988218D01*
X126931532Y-37152890D01*
X126894982Y-37304410D01*
X126834797Y-37445123D01*
X126751655Y-37572813D01*
X126648528Y-37680849D01*
X126523632Y-37770894D01*
X126384516Y-37836494D01*
X126228573Y-37876892D01*
X126052280Y-37890915D01*
X125862760Y-37876709D01*
X125702098Y-37836588D01*
X125565354Y-37772891D01*
X125448687Y-37685974D01*
X125349617Y-37574193D01*
X125254632Y-37412482D01*
X125182992Y-37217916D01*
X125136901Y-36984278D01*
X125123810Y-36762464D01*
X125717301Y-36762464D01*
X125732727Y-37024988D01*
X125762578Y-37202122D01*
X125800966Y-37315735D01*
X125846855Y-37388637D01*
X125903753Y-37438533D01*
X125973355Y-37468860D01*
X126059583Y-37479573D01*
X126154269Y-37464857D01*
X126229709Y-37422601D01*
X126290734Y-37350345D01*
X126331837Y-37260655D01*
X126358986Y-37144528D01*
X126369002Y-36995362D01*
X126358915Y-36842908D01*
X126333021Y-36737857D01*
X126296132Y-36667845D01*
X126240932Y-36614242D01*
X126169825Y-36581368D01*
X126077681Y-36569573D01*
X125985020Y-36580734D01*
X125895382Y-36614608D01*
X125806617Y-36673626D01*
X125717301Y-36762464D01*
X125123810Y-36762464D01*
X125120371Y-36704200D01*
X125135776Y-36429807D01*
X125179706Y-36188667D01*
X125249600Y-35976295D01*
X125351024Y-35778822D01*
X125474627Y-35618439D01*
X125620935Y-35490338D01*
X125745736Y-35415484D01*
X125880959Y-35361722D01*
X126028470Y-35328780D01*
X126190558Y-35317450D01*
X126396673Y-35336213D01*
G37*
G36*
X128281850Y-35329198D02*
G01*
X128444326Y-35362507D01*
X128584989Y-35415303D01*
X128707028Y-35486686D01*
X128812513Y-35580459D01*
X128885738Y-35687061D01*
X128930090Y-35809036D01*
X128945483Y-35950735D01*
X128934887Y-36057104D01*
X128903114Y-36159050D01*
X128848958Y-36258408D01*
X128776951Y-36346155D01*
X128679622Y-36429229D01*
X128552398Y-36507658D01*
X128710834Y-36597430D01*
X128831268Y-36691532D01*
X128919923Y-36789771D01*
X128986478Y-36902724D01*
X129026443Y-37026074D01*
X129040102Y-37162852D01*
X129027310Y-37292767D01*
X128989384Y-37413943D01*
X128925479Y-37528788D01*
X128840135Y-37629184D01*
X128730388Y-37717084D01*
X128592405Y-37792644D01*
X128443784Y-37845766D01*
X128273882Y-37879176D01*
X128079141Y-37890915D01*
X127889357Y-37879412D01*
X127723654Y-37846659D01*
X127578578Y-37794549D01*
X127444066Y-37720483D01*
X127336684Y-37634384D01*
X127252807Y-37536091D01*
X127190133Y-37423674D01*
X127152755Y-37303743D01*
X127140088Y-37173806D01*
X127143449Y-37144753D01*
X127718761Y-37144753D01*
X127730688Y-37242108D01*
X127764645Y-37322038D01*
X127820683Y-37388605D01*
X127893586Y-37437613D01*
X127984209Y-37468481D01*
X128097398Y-37479573D01*
X128210644Y-37468538D01*
X128299205Y-37438141D01*
X128368557Y-37390352D01*
X128421885Y-37325505D01*
X128453930Y-37249592D01*
X128465081Y-37159200D01*
X128454930Y-37063065D01*
X128426604Y-36986281D01*
X128381257Y-36924556D01*
X128277832Y-36848045D01*
X128086444Y-36762464D01*
X127966423Y-36718806D01*
X127856623Y-36798657D01*
X127780917Y-36894018D01*
X127734909Y-37007583D01*
X127718761Y-37144753D01*
X127143449Y-37144753D01*
X127157892Y-37019916D01*
X127209683Y-36885380D01*
X127296359Y-36765539D01*
X127423084Y-36657866D01*
X127598740Y-36562271D01*
X127463481Y-36466710D01*
X127363781Y-36362193D01*
X127294449Y-36247906D01*
X127252693Y-36121630D01*
X127239083Y-35987091D01*
X127795282Y-35987091D01*
X127803684Y-36066914D01*
X127827523Y-36133323D01*
X127866247Y-36189190D01*
X127951533Y-36259745D01*
X128093747Y-36333024D01*
X128170268Y-36362077D01*
X128279028Y-36275573D01*
X128341250Y-36192841D01*
X128376120Y-36097722D01*
X128388560Y-35979947D01*
X128379706Y-35900473D01*
X128354670Y-35835391D01*
X128313944Y-35781500D01*
X128259677Y-35741587D01*
X128189119Y-35716160D01*
X128097398Y-35706883D01*
X128007903Y-35715725D01*
X127935736Y-35740412D01*
X127877201Y-35779753D01*
X127832766Y-35833287D01*
X127805183Y-35900968D01*
X127795282Y-35987091D01*
X127239083Y-35987091D01*
X127238360Y-35979947D01*
X127250837Y-35852406D01*
X127287227Y-35738045D01*
X127347585Y-35634013D01*
X127428063Y-35543509D01*
X127528393Y-35465956D01*
X127651448Y-35401116D01*
X127783753Y-35355538D01*
X127930431Y-35327260D01*
X128093747Y-35317450D01*
X128281850Y-35329198D01*
G37*
G36*
X130403674Y-35244580D02*
G01*
X130632340Y-35262735D01*
X130833378Y-35314898D01*
X131011557Y-35399369D01*
X131170296Y-35515792D01*
X131301266Y-35658013D01*
X131406547Y-35828809D01*
X131481210Y-36016417D01*
X131527190Y-36223325D01*
X131543079Y-36453045D01*
X131528258Y-36676183D01*
X131486585Y-36864825D01*
X131420994Y-37024573D01*
X131326795Y-37168064D01*
X131204752Y-37291349D01*
X131051564Y-37395908D01*
X131462906Y-37395908D01*
X131462906Y-37829000D01*
X130541952Y-37829000D01*
X130541952Y-37421309D01*
X130638182Y-37370120D01*
X130715632Y-37308353D01*
X130776755Y-37235721D01*
X130843697Y-37104396D01*
X130887726Y-36931700D01*
X130908755Y-36734031D01*
X130916938Y-36453045D01*
X130899772Y-36197460D01*
X130854434Y-36009747D01*
X130787709Y-35874373D01*
X130715483Y-35790128D01*
X130629482Y-35730800D01*
X130527033Y-35694227D01*
X130403674Y-35681323D01*
X130282399Y-35694243D01*
X130181156Y-35730973D01*
X130095630Y-35790800D01*
X130023290Y-35876119D01*
X129956492Y-36012682D01*
X129911186Y-36201136D01*
X129894061Y-36456697D01*
X129902777Y-36740663D01*
X129925019Y-36937257D01*
X129970154Y-37107931D01*
X130035990Y-37235721D01*
X130131253Y-37338534D01*
X130265396Y-37421309D01*
X130265396Y-37829000D01*
X129344441Y-37829000D01*
X129344441Y-37395908D01*
X129748480Y-37395908D01*
X129604168Y-37298054D01*
X129487271Y-37180481D01*
X129395090Y-37041465D01*
X129326789Y-36877732D01*
X129283466Y-36684694D01*
X129268079Y-36456697D01*
X129283950Y-36226969D01*
X129329878Y-36020060D01*
X129404452Y-35832461D01*
X129509662Y-35661544D01*
X129640633Y-35518660D01*
X129799441Y-35401116D01*
X129977678Y-35315528D01*
X130177554Y-35262859D01*
X130403674Y-35244580D01*
G37*
D14*
G36*
X134354876Y-115101949D02*
G01*
X134969496Y-115150746D01*
X135486698Y-115288307D01*
X135963149Y-115517929D01*
X136422759Y-115846951D01*
X135658095Y-116758221D01*
X135349622Y-116548201D01*
X135060555Y-116405595D01*
X134758594Y-116317484D01*
X134433095Y-116287626D01*
X134104864Y-116324548D01*
X133820942Y-116431334D01*
X133571210Y-116608681D01*
X133350000Y-116865932D01*
X133191857Y-117157283D01*
X133067364Y-117537361D01*
X132984117Y-118026822D01*
X132953350Y-118649577D01*
X132983997Y-119261436D01*
X133067044Y-119743719D01*
X133191500Y-120119546D01*
X133350000Y-120408858D01*
X133570825Y-120662332D01*
X133823341Y-120838279D01*
X134113739Y-120944953D01*
X134452757Y-120982035D01*
X134812287Y-120945641D01*
X135128943Y-120840130D01*
X135433183Y-120674545D01*
X135785468Y-120433221D01*
X136500977Y-121354322D01*
X136083995Y-121698420D01*
X135574747Y-121981782D01*
X135205217Y-122116305D01*
X134806846Y-122198530D01*
X134374538Y-122226696D01*
X133758617Y-122178374D01*
X133217336Y-122039600D01*
X132737928Y-121815086D01*
X132413590Y-121588031D01*
X132126224Y-121312159D01*
X131873478Y-120983277D01*
X131654833Y-120595215D01*
X131446594Y-120043050D01*
X131314701Y-119399939D01*
X131268013Y-118649577D01*
X131315468Y-117919820D01*
X131450283Y-117287776D01*
X131664664Y-116738559D01*
X131969371Y-116237425D01*
X132334088Y-115834619D01*
X132762291Y-115518689D01*
X133244355Y-115289445D01*
X133771798Y-115149890D01*
X134354876Y-115101949D01*
G37*
G36*
X142499032Y-122060001D02*
G01*
X140793606Y-122060001D01*
X140440981Y-120599917D01*
X138461148Y-120599917D01*
X138118353Y-122060001D01*
X136452251Y-122060001D01*
X137244391Y-119433474D01*
X138735555Y-119433474D01*
X140166574Y-119433474D01*
X139451065Y-116434660D01*
X138735555Y-119433474D01*
X137244391Y-119433474D01*
X138500471Y-115268645D01*
X140450812Y-115268645D01*
X142499032Y-122060001D01*
G37*
G36*
X148103428Y-119806189D02*
G01*
X148068851Y-120262066D01*
X147968409Y-120674351D01*
X147804231Y-121050423D01*
X147574384Y-121387129D01*
X147278217Y-121673490D01*
X146907493Y-121912966D01*
X146497654Y-122081728D01*
X146015733Y-122188716D01*
X145447837Y-122226696D01*
X144798807Y-122179557D01*
X144267588Y-122048579D01*
X143832835Y-121844363D01*
X143477835Y-121570171D01*
X143187345Y-121221629D01*
X142977842Y-120819101D01*
X142847475Y-120352070D01*
X142801649Y-119806189D01*
X142801649Y-115268645D01*
X144408767Y-115268645D01*
X144408767Y-119737373D01*
X144441764Y-120169804D01*
X144529081Y-120485716D01*
X144658810Y-120712757D01*
X144847718Y-120883498D01*
X145103328Y-120991511D01*
X145447837Y-121031189D01*
X145799030Y-120991252D01*
X146057370Y-120883006D01*
X146246267Y-120712757D01*
X146375996Y-120485716D01*
X146463314Y-120169804D01*
X146496310Y-119737373D01*
X146496310Y-115268645D01*
X148103428Y-115268645D01*
X148103428Y-119806189D01*
G37*
G36*
X153761680Y-116503476D02*
G01*
X152086174Y-116503476D01*
X152086174Y-122060001D01*
X150478629Y-122060001D01*
X150478629Y-116503476D01*
X148724477Y-116503476D01*
X148724477Y-115268645D01*
X153918545Y-115268645D01*
X153761680Y-116503476D01*
G37*
G36*
X156167228Y-122060001D02*
G01*
X154559683Y-122060001D01*
X154559683Y-115268645D01*
X156167228Y-115268645D01*
X156167228Y-122060001D01*
G37*
G36*
X160749559Y-115142914D02*
G01*
X161255002Y-115259801D01*
X161697391Y-115446955D01*
X162086232Y-115703398D01*
X162428149Y-116032881D01*
X162704832Y-116411901D01*
X162927065Y-116853459D01*
X163093469Y-117367103D01*
X163199333Y-117964571D01*
X163236837Y-118659407D01*
X163192664Y-119390709D01*
X163067463Y-120022872D01*
X162869252Y-120570424D01*
X162582788Y-121071995D01*
X162231113Y-121478272D01*
X161810520Y-121800554D01*
X161333367Y-122032808D01*
X160790888Y-122176536D01*
X160169208Y-122226696D01*
X159547303Y-122176958D01*
X159006476Y-122034685D01*
X158532598Y-121805255D01*
X158115054Y-121486566D01*
X157765052Y-121083733D01*
X157478995Y-120585384D01*
X157281689Y-120040782D01*
X157156310Y-119404196D01*
X157111837Y-118659407D01*
X158797174Y-118659407D01*
X158824629Y-119314517D01*
X158898069Y-119818669D01*
X159006010Y-120199793D01*
X159139969Y-120482375D01*
X159335262Y-120733131D01*
X159566562Y-120907122D01*
X159840454Y-121013200D01*
X160169208Y-121050423D01*
X160508824Y-121012935D01*
X160788090Y-120906815D01*
X161020348Y-120734140D01*
X161212980Y-120487077D01*
X161344619Y-120207337D01*
X161451120Y-119827061D01*
X161523825Y-119320771D01*
X161551073Y-118659407D01*
X161523380Y-117998072D01*
X161449543Y-117492857D01*
X161341450Y-117114250D01*
X161207851Y-116836440D01*
X161013339Y-116591014D01*
X160781032Y-116419749D01*
X160503886Y-116314772D01*
X160169208Y-116277795D01*
X159834902Y-116315097D01*
X159558777Y-116420943D01*
X159327916Y-116593691D01*
X159135267Y-116841569D01*
X159003422Y-117121396D01*
X158896936Y-117500450D01*
X158824348Y-118003650D01*
X158797174Y-118659407D01*
X157111837Y-118659407D01*
X157155826Y-117934785D01*
X157280757Y-117305688D01*
X157478995Y-116758221D01*
X157765160Y-116256288D01*
X158115206Y-115850209D01*
X158532598Y-115528519D01*
X159006793Y-115296179D01*
X159547596Y-115152243D01*
X160169208Y-115101949D01*
X160749559Y-115142914D01*
G37*
G36*
X169428943Y-122060001D02*
G01*
X167380723Y-122060001D01*
X165420552Y-116797544D01*
X165572715Y-118164449D01*
X165612027Y-118784864D01*
X165626570Y-119570677D01*
X165626570Y-122060001D01*
X164195552Y-122060001D01*
X164195552Y-115268645D01*
X166195046Y-115268645D01*
X168203943Y-120540932D01*
X168040159Y-119215197D01*
X167988093Y-118012713D01*
X167988093Y-115268645D01*
X169428943Y-115268645D01*
X169428943Y-122060001D01*
G37*
D12*
G36*
X169240954Y-37829000D02*
G01*
X168654820Y-37829000D01*
X168611161Y-36842637D01*
X168593063Y-36212845D01*
X168603859Y-35812457D01*
X168214426Y-37563239D01*
X167650200Y-37563239D01*
X167235207Y-35812457D01*
X167251817Y-36124958D01*
X167257116Y-36409387D01*
X167246161Y-36849781D01*
X167202503Y-37829000D01*
X166620179Y-37829000D01*
X166809419Y-35306496D01*
X167562883Y-35306496D01*
X167941362Y-37017271D01*
X168294598Y-35306496D01*
X169051714Y-35306496D01*
X169240954Y-37829000D01*
G37*
G36*
X170585620Y-35852078D02*
G01*
X170759832Y-35902699D01*
X170908057Y-35983825D01*
X171034600Y-36096316D01*
X171134047Y-36233057D01*
X171207654Y-36396280D01*
X171254454Y-36591194D01*
X171271149Y-36824380D01*
X171260195Y-37031876D01*
X170062684Y-37031876D01*
X170094715Y-37190713D01*
X170141944Y-37300652D01*
X170200963Y-37374000D01*
X170279250Y-37426740D01*
X170378053Y-37460179D01*
X170503079Y-37472271D01*
X170617734Y-37461841D01*
X170728832Y-37430517D01*
X170838246Y-37379574D01*
X170965382Y-37301130D01*
X171202090Y-37621503D01*
X171025342Y-37740869D01*
X170842378Y-37824272D01*
X170651012Y-37874107D01*
X170448466Y-37890915D01*
X170258907Y-37878441D01*
X170095759Y-37843085D01*
X169954950Y-37786993D01*
X169833134Y-37710955D01*
X169727864Y-37614359D01*
X169621199Y-37469660D01*
X169543140Y-37300912D01*
X169494058Y-37103545D01*
X169476709Y-36871690D01*
X169488460Y-36686102D01*
X170062684Y-36686102D01*
X170706924Y-36686102D01*
X170706924Y-36660542D01*
X170687871Y-36479911D01*
X170644278Y-36358387D01*
X170582020Y-36279523D01*
X170500757Y-36232982D01*
X170394012Y-36216496D01*
X170299981Y-36229221D01*
X170224428Y-36265408D01*
X170162861Y-36325721D01*
X170119677Y-36403455D01*
X170084972Y-36519385D01*
X170062684Y-36686102D01*
X169488460Y-36686102D01*
X169489010Y-36677418D01*
X169524608Y-36501761D01*
X169582283Y-36342073D01*
X169664569Y-36194997D01*
X169767248Y-36072091D01*
X169891543Y-35970739D01*
X170033081Y-35896186D01*
X170194219Y-35850230D01*
X170379406Y-35834207D01*
X170585620Y-35852078D01*
G37*
G36*
X172512279Y-35847231D02*
G01*
X172678769Y-35882601D01*
X172808336Y-35936063D01*
X172908101Y-36005348D01*
X172989266Y-36096893D01*
X173049080Y-36209660D01*
X173087256Y-36348191D01*
X173100992Y-36518612D01*
X173100992Y-37268426D01*
X173110034Y-37369466D01*
X173131950Y-37428612D01*
X173171116Y-37472139D01*
X173232126Y-37504975D01*
X173111946Y-37879961D01*
X172943938Y-37851429D01*
X172820785Y-37801693D01*
X172752415Y-37752455D01*
X172694319Y-37687143D01*
X172645992Y-37603246D01*
X172562878Y-37706070D01*
X172465532Y-37785076D01*
X172352138Y-37842403D01*
X172219577Y-37878263D01*
X172063668Y-37890915D01*
X171921396Y-37879485D01*
X171799820Y-37847030D01*
X171695278Y-37795072D01*
X171605017Y-37723426D01*
X171530956Y-37634539D01*
X171477973Y-37533812D01*
X171445283Y-37418926D01*
X171433876Y-37286683D01*
X171439073Y-37235721D01*
X172009056Y-37235721D01*
X172024778Y-37342443D01*
X172067320Y-37415912D01*
X172135249Y-37462803D01*
X172231158Y-37479573D01*
X172322230Y-37468298D01*
X172401832Y-37435372D01*
X172472875Y-37379803D01*
X172536767Y-37297637D01*
X172536767Y-36951704D01*
X172394837Y-36951704D01*
X172264874Y-36960936D01*
X172170654Y-36985222D01*
X172103675Y-37020922D01*
X172052388Y-37073655D01*
X172020585Y-37143389D01*
X172009056Y-37235721D01*
X171439073Y-37235721D01*
X171449546Y-37133013D01*
X171494067Y-37004262D01*
X171566315Y-36895211D01*
X171668679Y-36802630D01*
X171788050Y-36734134D01*
X171935762Y-36681716D01*
X172117569Y-36647533D01*
X172340225Y-36635140D01*
X172536767Y-36635140D01*
X172536767Y-36551316D01*
X172526787Y-36439465D01*
X172501202Y-36364795D01*
X172463897Y-36316672D01*
X172411011Y-36284367D01*
X172329724Y-36261722D01*
X172209249Y-36252852D01*
X172110201Y-36259024D01*
X171979844Y-36280158D01*
X171703288Y-36354774D01*
X171572313Y-35976295D01*
X171756539Y-35915285D01*
X171945235Y-35870721D01*
X172133524Y-35842931D01*
X172300218Y-35834207D01*
X172512279Y-35847231D01*
G37*
G36*
X174239286Y-35834207D02*
G01*
X174442208Y-35849976D01*
X174628719Y-35896123D01*
X174801315Y-35971574D01*
X174949092Y-36070915D01*
X174737944Y-36394781D01*
X174575342Y-36310006D01*
X174417339Y-36261393D01*
X174261195Y-36245549D01*
X174156283Y-36256312D01*
X174088148Y-36283809D01*
X174043018Y-36329989D01*
X174028138Y-36391130D01*
X174035345Y-36441963D01*
X174055444Y-36480352D01*
X174091609Y-36512004D01*
X174166416Y-36551475D01*
X174424874Y-36638792D01*
X174622181Y-36708435D01*
X174768730Y-36784811D01*
X174874476Y-36866292D01*
X174954570Y-36968320D01*
X175004223Y-37095075D01*
X175021962Y-37253820D01*
X175009010Y-37380924D01*
X174971389Y-37493318D01*
X174909085Y-37594197D01*
X174826517Y-37680894D01*
X174724361Y-37754312D01*
X174599666Y-37814553D01*
X174466627Y-37856287D01*
X174321626Y-37882040D01*
X174162923Y-37890915D01*
X174001639Y-37882157D01*
X173851006Y-37856508D01*
X173709670Y-37814553D01*
X173574684Y-37755752D01*
X173457020Y-37685274D01*
X173354846Y-37603246D01*
X173635054Y-37290334D01*
X173762653Y-37375424D01*
X173889725Y-37433882D01*
X174017701Y-37468190D01*
X174148318Y-37479573D01*
X174270475Y-37466493D01*
X174353909Y-37432264D01*
X174395756Y-37395797D01*
X174420107Y-37351780D01*
X174428525Y-37297637D01*
X174420572Y-37233356D01*
X174399314Y-37188412D01*
X174361051Y-37152684D01*
X174286596Y-37113795D01*
X174020835Y-37028225D01*
X173834581Y-36960254D01*
X173694326Y-36882057D01*
X173591395Y-36795168D01*
X173513013Y-36688457D01*
X173465814Y-36566267D01*
X173449466Y-36423993D01*
X173460322Y-36315456D01*
X173492285Y-36216077D01*
X173545832Y-36123623D01*
X173617217Y-36043199D01*
X173708410Y-35972828D01*
X173822547Y-35912475D01*
X173945029Y-35870026D01*
X174083110Y-35843481D01*
X174239286Y-35834207D01*
G37*
G36*
X176923405Y-37829000D02*
G01*
X176424747Y-37829000D01*
X176399345Y-37585147D01*
X176308106Y-37696632D01*
X176205744Y-37780986D01*
X176090939Y-37841120D01*
X175961229Y-37878071D01*
X175813211Y-37890915D01*
X175681740Y-37879709D01*
X175573701Y-37848358D01*
X175484564Y-37798766D01*
X175411078Y-37730728D01*
X175338258Y-37616423D01*
X175291558Y-37470144D01*
X175274546Y-37283031D01*
X175274546Y-35896123D01*
X175849726Y-35896123D01*
X175849726Y-37210161D01*
X175863224Y-37339541D01*
X175895130Y-37408609D01*
X175950473Y-37449855D01*
X176035314Y-37464968D01*
X176118344Y-37452408D01*
X176196661Y-37414088D01*
X176272968Y-37345769D01*
X176348384Y-37239373D01*
X176348384Y-35896123D01*
X176923405Y-35896123D01*
X176923405Y-37829000D01*
G37*
G36*
X178413506Y-35841510D02*
G01*
X178513578Y-35848018D01*
X178606397Y-35867070D01*
X178515429Y-36423993D01*
X178411099Y-36403965D01*
X178340636Y-36398433D01*
X178234528Y-36411853D01*
X178150795Y-36449553D01*
X178084084Y-36511309D01*
X178033038Y-36591025D01*
X177984591Y-36703441D01*
X177940249Y-36857084D01*
X177940249Y-37829000D01*
X177365228Y-37829000D01*
X177365228Y-35896123D01*
X177863886Y-35896123D01*
X177914848Y-36271109D01*
X177967913Y-36143347D01*
X178034100Y-36039567D01*
X178113136Y-35956292D01*
X178206789Y-35891880D01*
X178306036Y-35854179D01*
X178413506Y-35841510D01*
G37*
G36*
X179750393Y-35852078D02*
G01*
X179924605Y-35902699D01*
X180072830Y-35983825D01*
X180199373Y-36096316D01*
X180298821Y-36233057D01*
X180372428Y-36396280D01*
X180419228Y-36591194D01*
X180435922Y-36824380D01*
X180424968Y-37031876D01*
X179227458Y-37031876D01*
X179259488Y-37190713D01*
X179306717Y-37300652D01*
X179365736Y-37374000D01*
X179444024Y-37426740D01*
X179542826Y-37460179D01*
X179667852Y-37472271D01*
X179782507Y-37461841D01*
X179893606Y-37430517D01*
X180003019Y-37379574D01*
X180130155Y-37301130D01*
X180366863Y-37621503D01*
X180190115Y-37740869D01*
X180007151Y-37824272D01*
X179815785Y-37874107D01*
X179613239Y-37890915D01*
X179423680Y-37878441D01*
X179260532Y-37843085D01*
X179119723Y-37786993D01*
X178997907Y-37710955D01*
X178892637Y-37614359D01*
X178785972Y-37469660D01*
X178707913Y-37300912D01*
X178658831Y-37103545D01*
X178641482Y-36871690D01*
X178653233Y-36686102D01*
X179227458Y-36686102D01*
X179871697Y-36686102D01*
X179871697Y-36660542D01*
X179852645Y-36479911D01*
X179809051Y-36358387D01*
X179746793Y-36279523D01*
X179665530Y-36232982D01*
X179558785Y-36216496D01*
X179464755Y-36229221D01*
X179389201Y-36265408D01*
X179327634Y-36325721D01*
X179284450Y-36403455D01*
X179249745Y-36519385D01*
X179227458Y-36686102D01*
X178653233Y-36686102D01*
X178653783Y-36677418D01*
X178689381Y-36501761D01*
X178747056Y-36342073D01*
X178829342Y-36194997D01*
X178932021Y-36072091D01*
X179056317Y-35970739D01*
X179197855Y-35896186D01*
X179358992Y-35850230D01*
X179544180Y-35834207D01*
X179750393Y-35852078D01*
G37*
G36*
X182479453Y-35128052D02*
G01*
X182479453Y-37829000D01*
X181969841Y-37829000D01*
X181940629Y-37603246D01*
X181827614Y-37731095D01*
X181700584Y-37819373D01*
X181556699Y-37872546D01*
X181391010Y-37890915D01*
X181216792Y-37872558D01*
X181071057Y-37820356D01*
X180947714Y-37735376D01*
X180843136Y-37614359D01*
X180765793Y-37473855D01*
X180707187Y-37304540D01*
X180669377Y-37101040D01*
X180656005Y-36860735D01*
X181252732Y-36860735D01*
X181264524Y-37088257D01*
X181294125Y-37239014D01*
X181334651Y-37333993D01*
X181398254Y-37409719D01*
X181475013Y-37453520D01*
X181569453Y-37468619D01*
X181662369Y-37455865D01*
X181747523Y-37417670D01*
X181827737Y-37351219D01*
X181904274Y-37250168D01*
X181904274Y-36416690D01*
X181832002Y-36341646D01*
X181764091Y-36293017D01*
X181689223Y-36263167D01*
X181602158Y-36252852D01*
X181503383Y-36269171D01*
X181419859Y-36317364D01*
X181347351Y-36402084D01*
X181298931Y-36506529D01*
X181265515Y-36654911D01*
X181252732Y-36860735D01*
X180656005Y-36860735D01*
X180655802Y-36857084D01*
X180667319Y-36662489D01*
X180700533Y-36487462D01*
X180754073Y-36329373D01*
X180830688Y-36182191D01*
X180923386Y-36061983D01*
X181032534Y-35965341D01*
X181158025Y-35892707D01*
X181294641Y-35849099D01*
X181445622Y-35834207D01*
X181581041Y-35846132D01*
X181700783Y-35880585D01*
X181807815Y-35936924D01*
X181904274Y-36016302D01*
X181904274Y-35066295D01*
X182479453Y-35128052D01*
G37*
G36*
X184889931Y-35320823D02*
G01*
X185101846Y-35359948D01*
X185269910Y-35419225D01*
X185402027Y-35495735D01*
X185513531Y-35600032D01*
X185593787Y-35727645D01*
X185644212Y-35883397D01*
X185662231Y-36074566D01*
X185648289Y-36233458D01*
X185608857Y-36367114D01*
X185545703Y-36480352D01*
X185458799Y-36577702D01*
X185338616Y-36669410D01*
X185178178Y-36755161D01*
X185818766Y-37829000D01*
X185145474Y-37829000D01*
X184628558Y-36864387D01*
X184395661Y-36864387D01*
X184395661Y-37829000D01*
X183798572Y-37829000D01*
X183798572Y-36453045D01*
X184395661Y-36453045D01*
X184646816Y-36453045D01*
X184777363Y-36441377D01*
X184874844Y-36409996D01*
X184947027Y-36362077D01*
X184999990Y-36294667D01*
X185034386Y-36201663D01*
X185047203Y-36074566D01*
X185033788Y-35958187D01*
X184997317Y-35872136D01*
X184939724Y-35808806D01*
X184863333Y-35765452D01*
X184756679Y-35736208D01*
X184610301Y-35725140D01*
X184395661Y-35725140D01*
X184395661Y-36453045D01*
X183798572Y-36453045D01*
X183798572Y-35306496D01*
X184624907Y-35306496D01*
X184889931Y-35320823D01*
G37*
G36*
X187975533Y-35257920D02*
G01*
X188201276Y-35296418D01*
X188405942Y-35358399D01*
X188592107Y-35443028D01*
X188768587Y-35552803D01*
X188919361Y-35676740D01*
X189046837Y-35815149D01*
X189152681Y-35968993D01*
X189237305Y-36136729D01*
X189297281Y-36309951D01*
X189333386Y-36490089D01*
X189345572Y-36678799D01*
X189333998Y-36895457D01*
X189300708Y-37089857D01*
X189247301Y-37264774D01*
X189169976Y-37429270D01*
X189077104Y-37562508D01*
X188968839Y-37668813D01*
X188842355Y-37749738D01*
X188704663Y-37797966D01*
X188552100Y-37814394D01*
X188420210Y-37801294D01*
X188312063Y-37764453D01*
X188222677Y-37705327D01*
X188148366Y-37626485D01*
X188096166Y-37539677D01*
X188064237Y-37443218D01*
X188010280Y-37546476D01*
X187943702Y-37632541D01*
X187864043Y-37703422D01*
X187772426Y-37756111D01*
X187666815Y-37788586D01*
X187543829Y-37799947D01*
X187381501Y-37784589D01*
X187247807Y-37741409D01*
X187136930Y-37672359D01*
X187045012Y-37576098D01*
X186974839Y-37461132D01*
X186922633Y-37326146D01*
X186889461Y-37167524D01*
X186877911Y-36984566D01*
X187398248Y-36984566D01*
X187405791Y-37151262D01*
X187424836Y-37263663D01*
X187450956Y-37335898D01*
X187493757Y-37394023D01*
X187548817Y-37427763D01*
X187620191Y-37439566D01*
X187701963Y-37426549D01*
X187769424Y-37388605D01*
X187824619Y-37331681D01*
X187867695Y-37261123D01*
X187867695Y-36394781D01*
X187784213Y-36369929D01*
X187707508Y-36362077D01*
X187616291Y-36377839D01*
X187541297Y-36424161D01*
X187478262Y-36505912D01*
X187438339Y-36606189D01*
X187409571Y-36759609D01*
X187398248Y-36984566D01*
X186877911Y-36984566D01*
X186877681Y-36980915D01*
X186893355Y-36755046D01*
X186937501Y-36563863D01*
X187007203Y-36401647D01*
X187101530Y-36263806D01*
X187222386Y-36149105D01*
X187363688Y-36066995D01*
X187529507Y-36016009D01*
X187725765Y-35998045D01*
X187879638Y-36008237D01*
X188044234Y-36039957D01*
X188205360Y-36091592D01*
X188355558Y-36161883D01*
X188355558Y-37060929D01*
X188367295Y-37265948D01*
X188393660Y-37370348D01*
X188425993Y-37419429D01*
X188469118Y-37447729D01*
X188526540Y-37457665D01*
X188610575Y-37439799D01*
X188683401Y-37384743D01*
X188748483Y-37281126D01*
X188788131Y-37158861D01*
X188817156Y-36968392D01*
X188828656Y-36686102D01*
X188816161Y-36488716D01*
X188780713Y-36318141D01*
X188724476Y-36170370D01*
X188648354Y-36042070D01*
X188551941Y-35930732D01*
X188438671Y-35839931D01*
X188303186Y-35766658D01*
X188141805Y-35711385D01*
X187949908Y-35675905D01*
X187722114Y-35663225D01*
X187530932Y-35674139D01*
X187359361Y-35705570D01*
X187204842Y-35756113D01*
X187065174Y-35825158D01*
X186896389Y-35947394D01*
X186757621Y-36096874D01*
X186646530Y-36276506D01*
X186568288Y-36474227D01*
X186519646Y-36696611D01*
X186502695Y-36948052D01*
X186516912Y-37187287D01*
X186557326Y-37395489D01*
X186621474Y-37577058D01*
X186708159Y-37735724D01*
X186817512Y-37874404D01*
X186948906Y-37991430D01*
X187101683Y-38083963D01*
X187279065Y-38152488D01*
X187485360Y-38195813D01*
X187725765Y-38211130D01*
X187908728Y-38202635D01*
X188100593Y-38176520D01*
X188287431Y-38135789D01*
X188442875Y-38087457D01*
X188577501Y-38484193D01*
X188391957Y-38545159D01*
X188171716Y-38595165D01*
X187944464Y-38626701D01*
X187722114Y-38637077D01*
X187459712Y-38623196D01*
X187221229Y-38583040D01*
X187003773Y-38518238D01*
X186804811Y-38429580D01*
X186618100Y-38313961D01*
X186455787Y-38177890D01*
X186315794Y-38020439D01*
X186196927Y-37839795D01*
X186104967Y-37645740D01*
X186037987Y-37434180D01*
X185996581Y-37202590D01*
X185982287Y-36948052D01*
X185996825Y-36705854D01*
X186039394Y-36480455D01*
X186109130Y-36269488D01*
X186206135Y-36070915D01*
X186329280Y-35886286D01*
X186472908Y-35724440D01*
X186638101Y-35583664D01*
X186826720Y-35463031D01*
X187028457Y-35368713D01*
X187244092Y-35300602D01*
X187475722Y-35258871D01*
X187725765Y-35244580D01*
X187975533Y-35257920D01*
G37*
G36*
X190313836Y-35317450D02*
G01*
X190488994Y-35328806D01*
X190640007Y-35360997D01*
X190770582Y-35412070D01*
X190890349Y-35484227D01*
X190986450Y-35568978D01*
X191061744Y-35666876D01*
X191117371Y-35777234D01*
X191150650Y-35894236D01*
X191161920Y-36019954D01*
X191152970Y-36149269D01*
X191126318Y-36273863D01*
X191081748Y-36394940D01*
X190979227Y-36574137D01*
X190797889Y-36804376D01*
X190566959Y-37046925D01*
X190204610Y-37388605D01*
X191212882Y-37388605D01*
X191154617Y-37829000D01*
X189553068Y-37829000D01*
X189553068Y-37421309D01*
X189968123Y-37006116D01*
X190204610Y-36757066D01*
X190388411Y-36538130D01*
X190490375Y-36383986D01*
X190552236Y-36231344D01*
X190572294Y-36078218D01*
X190561966Y-35982215D01*
X190533094Y-35905371D01*
X190486723Y-35843415D01*
X190424844Y-35796877D01*
X190349113Y-35768085D01*
X190255572Y-35757845D01*
X190130396Y-35773268D01*
X190022674Y-35818014D01*
X189923633Y-35891630D01*
X189807875Y-36012651D01*
X189469403Y-35743239D01*
X189579022Y-35618479D01*
X189700637Y-35514665D01*
X189835181Y-35430327D01*
X189980844Y-35368319D01*
X190139515Y-35330455D01*
X190313836Y-35317450D01*
G37*
G36*
X192572224Y-35331777D02*
G01*
X192726815Y-35372690D01*
X192861670Y-35438563D01*
X192979941Y-35529796D01*
X193083525Y-35648778D01*
X193180917Y-35817206D01*
X193255545Y-36026428D01*
X193304286Y-36284834D01*
X193321980Y-36602278D01*
X193304379Y-36917583D01*
X193255778Y-37175609D01*
X193181157Y-37385771D01*
X193083525Y-37556095D01*
X192979756Y-37676508D01*
X192861373Y-37768712D01*
X192726510Y-37835207D01*
X192572021Y-37876472D01*
X192393722Y-37890915D01*
X192215424Y-37876472D01*
X192060935Y-37835207D01*
X191926072Y-37768712D01*
X191807689Y-37676508D01*
X191703920Y-37556095D01*
X191606287Y-37385771D01*
X191531667Y-37175609D01*
X191483066Y-36917583D01*
X191465465Y-36602278D01*
X192055251Y-36602278D01*
X192065089Y-36912457D01*
X192089701Y-37117447D01*
X192120317Y-37240764D01*
X192156715Y-37327005D01*
X192197021Y-37384954D01*
X192250254Y-37428803D01*
X192314702Y-37455537D01*
X192393722Y-37464968D01*
X192472769Y-37455713D01*
X192537168Y-37429522D01*
X192590265Y-37386700D01*
X192630555Y-37329877D01*
X192666967Y-37244388D01*
X192697585Y-37121098D01*
X192722287Y-36915645D01*
X192732194Y-36602278D01*
X192722288Y-36289048D01*
X192697585Y-36083616D01*
X192666879Y-35960227D01*
X192630456Y-35875448D01*
X192590265Y-35819760D01*
X192537300Y-35777969D01*
X192472901Y-35752320D01*
X192393722Y-35743239D01*
X192314714Y-35752686D01*
X192250266Y-35779468D01*
X192197021Y-35823412D01*
X192156662Y-35881232D01*
X192120275Y-35966958D01*
X192089701Y-36089172D01*
X192065110Y-36292479D01*
X192055251Y-36602278D01*
X191465465Y-36602278D01*
X191483159Y-36284834D01*
X191531900Y-36026428D01*
X191606528Y-35817206D01*
X191703920Y-35648778D01*
X191807504Y-35529796D01*
X191925775Y-35438563D01*
X192060630Y-35372690D01*
X192215221Y-35331777D01*
X192393722Y-35317450D01*
X192572224Y-35331777D01*
G37*
G36*
X194409123Y-35263152D02*
G01*
X194562355Y-35319197D01*
X194655673Y-35376307D01*
X194735940Y-35447537D01*
X194804302Y-35533996D01*
X194855349Y-35631124D01*
X194886449Y-35738868D01*
X194897175Y-35859767D01*
X194886414Y-35983133D01*
X194855276Y-36092708D01*
X194804302Y-36191095D01*
X194735901Y-36278782D01*
X194655620Y-36351221D01*
X194562355Y-36409546D01*
X194409032Y-36466924D01*
X194249284Y-36485908D01*
X194089650Y-36466933D01*
X193936214Y-36409546D01*
X193842960Y-36351178D01*
X193762013Y-36278141D01*
X193692362Y-36189190D01*
X193640190Y-36089645D01*
X193608585Y-35980630D01*
X193597742Y-35859767D01*
X193994478Y-35859767D01*
X194002858Y-35944532D01*
X194026294Y-36013135D01*
X194063696Y-36069010D01*
X194114403Y-36112074D01*
X194175234Y-36138132D01*
X194249284Y-36147278D01*
X194321001Y-36138223D01*
X194380694Y-36112254D01*
X194431221Y-36069010D01*
X194468623Y-36013135D01*
X194492059Y-35944532D01*
X194500439Y-35859767D01*
X194492217Y-35774888D01*
X194469358Y-35706986D01*
X194433126Y-35652429D01*
X194383704Y-35610483D01*
X194323513Y-35584932D01*
X194249284Y-35575908D01*
X194175103Y-35584884D01*
X194114271Y-35610406D01*
X194063696Y-35652429D01*
X194026366Y-35707130D01*
X194002901Y-35775033D01*
X193994478Y-35859767D01*
X193597742Y-35859767D01*
X193608468Y-35738868D01*
X193639568Y-35631124D01*
X193690615Y-35533996D01*
X193759156Y-35447648D01*
X193840030Y-35376403D01*
X193934467Y-35319197D01*
X194089304Y-35263101D01*
X194249284Y-35244580D01*
X194409123Y-35263152D01*
G37*
G36*
X196617475Y-35244580D02*
G01*
X196845763Y-35262705D01*
X197037866Y-35313799D01*
X197214834Y-35399087D01*
X197385546Y-35521295D01*
X197101528Y-35859767D01*
X196986952Y-35781760D01*
X196879584Y-35728792D01*
X196767427Y-35696065D01*
X196646528Y-35684975D01*
X196524613Y-35698689D01*
X196419157Y-35738352D01*
X196326399Y-35804224D01*
X196244235Y-35899774D01*
X196185497Y-36007990D01*
X196139256Y-36149162D01*
X196108336Y-36330962D01*
X196096908Y-36562271D01*
X196108291Y-36789533D01*
X196139137Y-36968666D01*
X196185364Y-37108259D01*
X196244235Y-37215718D01*
X196326256Y-37309865D01*
X196420047Y-37375217D01*
X196527910Y-37414839D01*
X196653831Y-37428612D01*
X196787370Y-37415095D01*
X196904986Y-37375905D01*
X197017989Y-37314402D01*
X197148838Y-37224767D01*
X197414598Y-37566890D01*
X197259719Y-37694698D01*
X197070570Y-37799947D01*
X196933316Y-37849912D01*
X196785350Y-37880453D01*
X196624778Y-37890915D01*
X196396007Y-37872967D01*
X196194960Y-37821422D01*
X196016894Y-37738031D01*
X195896426Y-37653697D01*
X195789690Y-37551230D01*
X195695813Y-37429074D01*
X195614602Y-37284936D01*
X195537256Y-37079846D01*
X195488267Y-36840977D01*
X195470926Y-36562271D01*
X195488552Y-36291218D01*
X195538626Y-36056459D01*
X195618253Y-35852464D01*
X195731430Y-35666328D01*
X195866896Y-35516715D01*
X196025943Y-35399369D01*
X196204996Y-35314222D01*
X196400903Y-35262387D01*
X196617475Y-35244580D01*
G37*
G36*
X197880553Y-37232070D02*
G01*
X197966443Y-37242875D01*
X198042624Y-37274636D01*
X198111704Y-37328595D01*
X198165671Y-37397672D01*
X198197428Y-37473802D01*
X198208229Y-37559587D01*
X198197328Y-37647898D01*
X198165472Y-37725297D01*
X198111704Y-37794549D01*
X198042635Y-37848412D01*
X197966454Y-37880125D01*
X197880553Y-37890915D01*
X197792337Y-37880034D01*
X197714988Y-37848230D01*
X197645750Y-37794549D01*
X197592077Y-37725308D01*
X197560269Y-37647908D01*
X197549384Y-37559587D01*
X197560169Y-37473791D01*
X197591878Y-37397660D01*
X197645750Y-37328595D01*
X197714999Y-37274818D01*
X197792347Y-37242966D01*
X197880553Y-37232070D01*
G37*
G36*
X197880553Y-35972644D02*
G01*
X197966443Y-35983449D01*
X198042624Y-36015210D01*
X198111704Y-36069169D01*
X198165671Y-36138246D01*
X198197428Y-36214376D01*
X198208229Y-36300161D01*
X198197328Y-36388472D01*
X198165472Y-36465871D01*
X198111704Y-36535123D01*
X198042635Y-36588986D01*
X197966454Y-36620699D01*
X197880553Y-36631489D01*
X197792337Y-36620608D01*
X197714988Y-36588804D01*
X197645750Y-36535123D01*
X197592077Y-36465882D01*
X197560269Y-36388482D01*
X197549384Y-36300161D01*
X197560169Y-36214365D01*
X197591878Y-36138234D01*
X197645750Y-36069169D01*
X197714999Y-36015392D01*
X197792347Y-35983540D01*
X197880553Y-35972644D01*
G37*
D15*
%TO.C,G\u002A\u002A\u002A*%
G36*
X150649513Y-104429635D02*
G01*
X153473252Y-104464289D01*
X155659104Y-104505178D01*
X157284674Y-104557697D01*
X158427569Y-104627238D01*
X159165393Y-104719196D01*
X159575752Y-104838964D01*
X159736252Y-104991935D01*
X159747881Y-105061971D01*
X159664273Y-105228658D01*
X159361948Y-105360336D01*
X158763650Y-105462323D01*
X157792125Y-105539931D01*
X156370118Y-105598476D01*
X154420374Y-105643274D01*
X151865640Y-105679638D01*
X150560724Y-105694017D01*
X147394634Y-105714615D01*
X144911035Y-105702641D01*
X143077623Y-105657069D01*
X141862093Y-105576874D01*
X141232138Y-105461029D01*
X141129501Y-105394536D01*
X141015888Y-105080837D01*
X141153160Y-104836106D01*
X141608696Y-104653514D01*
X142449876Y-104526230D01*
X143744079Y-104447427D01*
X145558685Y-104410274D01*
X147961073Y-104407942D01*
X150649513Y-104429635D01*
G37*
G36*
X152070254Y-85194136D02*
G01*
X152293756Y-85588368D01*
X152192910Y-86236683D01*
X151579910Y-87124841D01*
X151431089Y-87287664D01*
X150267485Y-88666128D01*
X149686401Y-89833683D01*
X149670883Y-90970012D01*
X150203978Y-92254797D01*
X150864297Y-93294908D01*
X151978321Y-95319575D01*
X152402525Y-97190170D01*
X152132497Y-98957919D01*
X151163826Y-100674046D01*
X150130694Y-101811901D01*
X149358802Y-102509538D01*
X148925485Y-102738699D01*
X148685011Y-102557577D01*
X148621862Y-102414377D01*
X148701027Y-101692754D01*
X149418103Y-100723856D01*
X149482841Y-100655997D01*
X150474520Y-99383312D01*
X151136636Y-98044718D01*
X151340839Y-97029530D01*
X151149164Y-96502558D01*
X150650480Y-95606249D01*
X150061122Y-94695961D01*
X148928014Y-92620491D01*
X148490908Y-90676393D01*
X148750068Y-88828063D01*
X149705758Y-87039898D01*
X150121892Y-86517369D01*
X151041338Y-85527004D01*
X151660966Y-85098685D01*
X152070254Y-85194136D01*
G37*
G36*
X156049731Y-85301005D02*
G01*
X156173242Y-85699885D01*
X155851085Y-86325022D01*
X155190262Y-87118721D01*
X154080592Y-88692833D01*
X153581391Y-90239428D01*
X153689374Y-91540648D01*
X154030247Y-92274909D01*
X154638803Y-93316993D01*
X155147019Y-94093056D01*
X156086732Y-95948128D01*
X156314994Y-97753207D01*
X155830708Y-99516205D01*
X154632779Y-101245036D01*
X154078041Y-101811901D01*
X153293950Y-102508213D01*
X152850364Y-102731021D01*
X152608976Y-102538485D01*
X152569340Y-102446345D01*
X152668838Y-101759068D01*
X153325862Y-100727473D01*
X153631134Y-100355261D01*
X154632743Y-98770027D01*
X154969104Y-97181762D01*
X154633578Y-95673124D01*
X154077087Y-94804208D01*
X153106312Y-93478728D01*
X152592635Y-92280873D01*
X152418507Y-90911992D01*
X152414078Y-90578992D01*
X152633893Y-88797888D01*
X153360288Y-87275056D01*
X154530977Y-85942780D01*
X155320842Y-85294477D01*
X155831681Y-85166292D01*
X156049731Y-85301005D01*
G37*
G36*
X148494040Y-85269837D02*
G01*
X148365285Y-85902831D01*
X147859768Y-86789134D01*
X147226754Y-87579502D01*
X146251252Y-89088395D01*
X145915885Y-90670003D01*
X146229949Y-92198551D01*
X146815858Y-93139453D01*
X147779959Y-94454811D01*
X148292132Y-95652657D01*
X148471846Y-97046100D01*
X148478867Y-97497965D01*
X148383008Y-98759447D01*
X148007423Y-99780768D01*
X147300217Y-100830639D01*
X146508837Y-101689597D01*
X145695490Y-102296461D01*
X145009161Y-102575821D01*
X144598833Y-102452266D01*
X144543655Y-102225912D01*
X144767079Y-101761688D01*
X145338787Y-100990635D01*
X145795419Y-100458761D01*
X146810198Y-99079416D01*
X147251263Y-97741148D01*
X147112776Y-96327804D01*
X146388897Y-94723233D01*
X145435196Y-93292869D01*
X144743215Y-91842086D01*
X144538034Y-90210170D01*
X144849949Y-88693020D01*
X144943699Y-88492678D01*
X145405770Y-87800400D01*
X146123257Y-86931409D01*
X146929839Y-86063001D01*
X147659195Y-85372475D01*
X148145004Y-85037128D01*
X148193724Y-85028168D01*
X148494040Y-85269837D01*
G37*
G36*
X151209107Y-68557577D02*
G01*
X152027201Y-69587235D01*
X152884722Y-70986619D01*
X153711347Y-72410896D01*
X154808860Y-74305613D01*
X156132039Y-76592419D01*
X157635660Y-79192965D01*
X159274497Y-82028900D01*
X161003327Y-85021873D01*
X162776926Y-88093534D01*
X164550070Y-91165534D01*
X166277534Y-94159522D01*
X167914095Y-96997147D01*
X169414527Y-99600060D01*
X170733608Y-101889909D01*
X171826112Y-103788346D01*
X172646816Y-105217019D01*
X173119232Y-106042652D01*
X173667937Y-106961975D01*
X174162359Y-107755424D01*
X174558634Y-108432175D01*
X174812896Y-109001406D01*
X174881280Y-109472293D01*
X174719920Y-109854014D01*
X174284952Y-110155744D01*
X173532510Y-110386661D01*
X172418729Y-110555942D01*
X170899745Y-110672764D01*
X168931690Y-110746302D01*
X166470702Y-110785735D01*
X163472913Y-110800239D01*
X159894460Y-110798991D01*
X155691476Y-110791168D01*
X150820097Y-110785946D01*
X150446472Y-110785915D01*
X145709380Y-110785538D01*
X141636976Y-110783408D01*
X138178456Y-110778023D01*
X135283017Y-110767882D01*
X132899854Y-110751486D01*
X130978162Y-110727333D01*
X129467138Y-110693923D01*
X128315978Y-110649754D01*
X127473876Y-110593327D01*
X126890030Y-110523141D01*
X126513634Y-110437694D01*
X126293885Y-110335486D01*
X126179977Y-110215017D01*
X126121108Y-110074786D01*
X126118721Y-110067300D01*
X126162961Y-109403138D01*
X126422045Y-108728873D01*
X128557036Y-108728873D01*
X128876833Y-108776285D01*
X129851672Y-108821025D01*
X131421107Y-108862350D01*
X133524690Y-108899520D01*
X136101974Y-108931794D01*
X139092512Y-108958431D01*
X142435856Y-108978691D01*
X146071559Y-108991831D01*
X149939174Y-108997112D01*
X150446472Y-108997182D01*
X154339340Y-108992958D01*
X158008011Y-108980780D01*
X161392040Y-108961388D01*
X164430978Y-108935524D01*
X167064379Y-108903928D01*
X169231795Y-108867341D01*
X170872778Y-108826505D01*
X171926882Y-108782160D01*
X172333658Y-108735048D01*
X172335908Y-108728873D01*
X172130600Y-108373015D01*
X171603901Y-107460507D01*
X170792170Y-106054328D01*
X169731765Y-104217461D01*
X168459047Y-102012887D01*
X167010373Y-99503586D01*
X165422103Y-96752542D01*
X164023221Y-94329577D01*
X162234693Y-91231557D01*
X160462174Y-88160926D01*
X158757716Y-85207879D01*
X157173369Y-82462609D01*
X155761184Y-80015311D01*
X154573212Y-77956178D01*
X153661504Y-76375405D01*
X153287575Y-75726760D01*
X152352365Y-74144655D01*
X151524520Y-72819982D01*
X150874972Y-71860572D01*
X150474658Y-71374260D01*
X150399572Y-71336512D01*
X150118278Y-71660196D01*
X149558426Y-72493383D01*
X148792438Y-73722082D01*
X147892735Y-75232302D01*
X147558469Y-75808343D01*
X146836787Y-77059970D01*
X145809041Y-78841600D01*
X144526947Y-81063619D01*
X143042224Y-83636413D01*
X141406586Y-86470371D01*
X139671751Y-89475877D01*
X137889434Y-92563320D01*
X136869724Y-94329577D01*
X135193168Y-97233498D01*
X133626016Y-99947973D01*
X132204627Y-102410020D01*
X130965361Y-104556659D01*
X129944576Y-106324908D01*
X129178632Y-107651784D01*
X128703887Y-108474308D01*
X128557036Y-108728873D01*
X126422045Y-108728873D01*
X126594697Y-108279548D01*
X127433603Y-106648688D01*
X127773712Y-106042652D01*
X128307863Y-105109404D01*
X129154956Y-103635114D01*
X130269767Y-101698133D01*
X131607073Y-99376810D01*
X133121649Y-96749496D01*
X134768271Y-93894541D01*
X136501714Y-90890296D01*
X138276756Y-87815110D01*
X140048171Y-84747334D01*
X141770735Y-81765318D01*
X143399225Y-78947412D01*
X144888416Y-76371967D01*
X146193083Y-74117333D01*
X147268004Y-72261861D01*
X148008222Y-70986619D01*
X148994793Y-69397207D01*
X149791439Y-68462562D01*
X150496698Y-68182686D01*
X151209107Y-68557577D01*
G37*
%TD*%
%LPC*%
D16*
X141250000Y-33250000D02*
X146250000Y-33250000D01*
X146250000Y-41250000D01*
X141250000Y-41250000D01*
X141250000Y-33250000D01*
G36*
X141250000Y-33250000D02*
G01*
X146250000Y-33250000D01*
X146250000Y-41250000D01*
X141250000Y-41250000D01*
X141250000Y-33250000D01*
G37*
X155250000Y-33250000D02*
X160250000Y-33250000D01*
X160250000Y-41250000D01*
X155250000Y-41250000D01*
X155250000Y-33250000D01*
G36*
X155250000Y-33250000D02*
G01*
X160250000Y-33250000D01*
X160250000Y-41250000D01*
X155250000Y-41250000D01*
X155250000Y-33250000D01*
G37*
D17*
%TO.C,REF\u002A\u002A*%
X224500000Y-152750000D03*
D18*
X224500000Y-152750000D03*
%TD*%
D17*
%TO.C,REF\u002A\u002A*%
X76500000Y-35750000D03*
D18*
X76500000Y-35750000D03*
%TD*%
D17*
%TO.C,REF\u002A\u002A*%
X224500000Y-35750000D03*
D18*
X224500000Y-35750000D03*
%TD*%
D17*
%TO.C,REF\u002A\u002A*%
X76500000Y-152750000D03*
D18*
X76500000Y-152750000D03*
%TD*%
%LPD*%
M02*
