%TF.GenerationSoftware,KiCad,Pcbnew,9.0.8*%
%TF.CreationDate,2026-03-25T21:00:04+06:00*%
%TF.ProjectId,Heating Element,48656174-696e-4672-9045-6c656d656e74,rev?*%
%TF.SameCoordinates,Original*%
%TF.FileFunction,Copper,L1,Top*%
%TF.FilePolarity,Positive*%
%FSLAX46Y46*%
G04 Gerber Fmt 4.6, Leading zero omitted, Abs format (unit mm)*
G04 Created by KiCad (PCBNEW 9.0.8) date 2026-03-25 21:00:04*
%MOMM*%
%LPD*%
G01*
G04 APERTURE LIST*
%TA.AperFunction,Conductor*%
%ADD10C,0.200000*%
%TD*%
%TA.AperFunction,ComponentPad*%
%ADD11C,3.600000*%
%TD*%
%TA.AperFunction,ConnectorPad*%
%ADD12C,6.400000*%
%TD*%
%TA.AperFunction,Conductor*%
%ADD13C,1.330000*%
%TD*%
%TA.AperFunction,Conductor*%
%ADD14C,2.000000*%
%TD*%
G04 APERTURE END LIST*
%TO.N,HEATER*%
D10*
X141250000Y-33250000D02*
X146250000Y-33250000D01*
X146250000Y-41250000D01*
X141250000Y-41250000D01*
X141250000Y-33250000D01*
%TA.AperFunction,Conductor*%
G36*
X141250000Y-33250000D02*
G01*
X146250000Y-33250000D01*
X146250000Y-41250000D01*
X141250000Y-41250000D01*
X141250000Y-33250000D01*
G37*
%TD.AperFunction*%
X155250000Y-33250000D02*
X160250000Y-33250000D01*
X160250000Y-41250000D01*
X155250000Y-41250000D01*
X155250000Y-33250000D01*
%TA.AperFunction,Conductor*%
G36*
X155250000Y-33250000D02*
G01*
X160250000Y-33250000D01*
X160250000Y-41250000D01*
X155250000Y-41250000D01*
X155250000Y-33250000D01*
G37*
%TD.AperFunction*%
%TD*%
D11*
%TO.P,REF\u002A\u002A,1*%
%TO.N,N/C*%
X224500000Y-152750000D03*
D12*
X224500000Y-152750000D03*
%TD*%
D11*
%TO.P,REF\u002A\u002A,1*%
%TO.N,N/C*%
X76500000Y-35750000D03*
D12*
X76500000Y-35750000D03*
%TD*%
D11*
%TO.P,REF\u002A\u002A,1*%
%TO.N,N/C*%
X224500000Y-35750000D03*
D12*
X224500000Y-35750000D03*
%TD*%
D11*
%TO.P,REF\u002A\u002A,1*%
%TO.N,N/C*%
X76500000Y-152750000D03*
D12*
X76500000Y-152750000D03*
%TD*%
D13*
%TO.N,HEATER*%
X152373918Y-109384999D02*
X152373918Y-107487499D01*
X122391216Y-137847500D02*
X122391216Y-135949999D01*
X99904189Y-71434999D02*
X99904189Y-69537499D01*
X94282432Y-141642500D02*
X96156351Y-141642500D01*
X159869594Y-141642500D02*
X159869594Y-135949999D01*
X217961081Y-128360000D02*
X217961081Y-124565000D01*
X137382567Y-122667499D02*
X137382567Y-120770000D01*
X154247837Y-122667499D02*
X156121756Y-122667499D01*
X128012972Y-118872500D02*
X129886891Y-118872500D01*
X201095810Y-94204999D02*
X201095810Y-96102499D01*
X161743513Y-111282499D02*
X161743513Y-115077500D01*
X176734864Y-84717499D02*
X176734864Y-82819999D01*
X144878243Y-56254999D02*
X143004324Y-56254999D01*
X146752162Y-69537499D02*
X148626081Y-69537499D01*
X135508648Y-128360000D02*
X135508648Y-134052500D01*
X174860945Y-120770000D02*
X174860945Y-122667499D01*
X143004324Y-130257500D02*
X143004324Y-134052500D01*
X86786756Y-130257500D02*
X88660675Y-130257500D01*
X214213243Y-130257500D02*
X219835000Y-130257500D01*
X86786756Y-111282499D02*
X86786756Y-113179999D01*
X143004324Y-61947499D02*
X144878243Y-61947499D01*
X197347972Y-109384999D02*
X197347972Y-111282499D01*
X126139054Y-61947499D02*
X126139054Y-60049999D01*
X167365270Y-105589999D02*
X167365270Y-107487499D01*
X176734864Y-99897499D02*
X176734864Y-103692499D01*
X174860945Y-143539999D02*
X174860945Y-145437500D01*
X212339324Y-116975000D02*
X212339324Y-122667499D01*
X176734864Y-50562500D02*
X178608783Y-50562500D01*
X174860945Y-48665000D02*
X174860945Y-58152500D01*
X150500000Y-90410000D02*
X150500000Y-92307499D01*
X126139054Y-86614999D02*
X128012972Y-86614999D01*
X101778108Y-65742499D02*
X105525945Y-65742499D01*
X195474054Y-50562500D02*
X197347972Y-50562500D01*
X184230540Y-113179999D02*
X180482702Y-113179999D01*
X137382567Y-61947499D02*
X141130405Y-61947499D01*
X161743513Y-82819999D02*
X161743513Y-84717499D01*
X201095810Y-50562500D02*
X201095810Y-52459999D01*
X163617432Y-52459999D02*
X161743513Y-52459999D01*
X144878243Y-65742499D02*
X144878243Y-63844999D01*
X189852297Y-122667499D02*
X195474054Y-122667499D01*
X84912837Y-92307499D02*
X84912837Y-90410000D01*
X154247837Y-124565000D02*
X152373918Y-124565000D01*
X96156351Y-88512499D02*
X96156351Y-82819999D01*
X182356621Y-79024999D02*
X182356621Y-84717499D01*
X219835000Y-92307499D02*
X217961081Y-92307499D01*
X103652027Y-105589999D02*
X105525945Y-105589999D01*
X113021621Y-99897499D02*
X111147702Y-99897499D01*
X126139054Y-96102499D02*
X126139054Y-94204999D01*
X171113108Y-120770000D02*
X171113108Y-118872500D01*
X167365270Y-122667499D02*
X167365270Y-120770000D01*
X219835000Y-113179999D02*
X217961081Y-113179999D01*
X152373918Y-130257500D02*
X157995675Y-130257500D01*
X144878243Y-60049999D02*
X146752162Y-60049999D01*
X129886891Y-56254999D02*
X129886891Y-58152500D01*
X103652027Y-79024999D02*
X105525945Y-79024999D01*
X161743513Y-58152500D02*
X161743513Y-56254999D01*
X193600135Y-128360000D02*
X193600135Y-124565000D01*
X146752162Y-118872500D02*
X144878243Y-118872500D01*
X202969729Y-77127499D02*
X204843648Y-77127499D01*
X201095810Y-134052500D02*
X201095810Y-132155000D01*
X184230540Y-52459999D02*
X184230540Y-48665000D01*
X172987027Y-80922499D02*
X172987027Y-79024999D01*
X139256486Y-77127499D02*
X139256486Y-79024999D01*
X208591486Y-71434999D02*
X202969729Y-71434999D01*
X189852297Y-113179999D02*
X189852297Y-118872500D01*
X111147702Y-120770000D02*
X111147702Y-116975000D01*
X210465405Y-90410000D02*
X208591486Y-90410000D01*
X172987027Y-77127499D02*
X172987027Y-73332499D01*
X116769459Y-82819999D02*
X116769459Y-84717499D01*
X133634729Y-137847500D02*
X133634729Y-135949999D01*
X176734864Y-124565000D02*
X169239189Y-124565000D01*
X204843648Y-84717499D02*
X202969729Y-84717499D01*
X113021621Y-52459999D02*
X111147702Y-52459999D01*
X201095810Y-61947499D02*
X199221891Y-61947499D01*
X202969729Y-122667499D02*
X202969729Y-120770000D01*
X186104459Y-54357499D02*
X186104459Y-58152500D01*
X144878243Y-120770000D02*
X146752162Y-120770000D01*
X109273783Y-90410000D02*
X109273783Y-92307499D01*
X137382567Y-120770000D02*
X139256486Y-120770000D01*
X129886891Y-86614999D02*
X131760810Y-86614999D01*
X141130405Y-126462499D02*
X143004324Y-126462499D01*
X114895540Y-73332499D02*
X120517297Y-73332499D01*
X116769459Y-101794999D02*
X116769459Y-107487499D01*
X180482702Y-94204999D02*
X182356621Y-94204999D01*
X193600135Y-107487499D02*
X197347972Y-107487499D01*
X143004324Y-86614999D02*
X143004324Y-90410000D01*
X99904189Y-52459999D02*
X98030270Y-52459999D01*
X143004324Y-124565000D02*
X135508648Y-124565000D01*
X146752162Y-77127499D02*
X144878243Y-77127499D01*
X156121756Y-116975000D02*
X154247837Y-116975000D01*
X182356621Y-56254999D02*
X180482702Y-56254999D01*
X98030270Y-71434999D02*
X92408513Y-71434999D01*
X199221891Y-97999999D02*
X195474054Y-97999999D01*
X195474054Y-141642500D02*
X197347972Y-141642500D01*
X184230540Y-97999999D02*
X180482702Y-97999999D01*
X217961081Y-101794999D02*
X219835000Y-101794999D01*
X195474054Y-97999999D02*
X195474054Y-99897499D01*
X103652027Y-63844999D02*
X103652027Y-61947499D01*
X171113108Y-130257500D02*
X171113108Y-128360000D01*
X156121756Y-145437500D02*
X157995675Y-145437500D01*
X214213243Y-107487499D02*
X216087162Y-107487499D01*
X186104459Y-126462499D02*
X187978378Y-126462499D01*
X109273783Y-50562500D02*
X109273783Y-52459999D01*
X120517297Y-60049999D02*
X120517297Y-61947499D01*
X86786756Y-141642500D02*
X88660675Y-141642500D01*
X201095810Y-56254999D02*
X199221891Y-56254999D01*
X157995675Y-141642500D02*
X159869594Y-141642500D01*
X137382567Y-147335000D02*
X137382567Y-145437500D01*
X99904189Y-109384999D02*
X99904189Y-105589999D01*
X135508648Y-122667499D02*
X137382567Y-122667499D01*
X137382567Y-75229999D02*
X137382567Y-77127499D01*
X216087162Y-65742499D02*
X217961081Y-65742499D01*
X202969729Y-120770000D02*
X204843648Y-120770000D01*
X212339324Y-88512499D02*
X214213243Y-88512499D01*
X118643378Y-60049999D02*
X116769459Y-60049999D01*
X98030270Y-145437500D02*
X98030270Y-147335000D01*
X186104459Y-122667499D02*
X187978378Y-122667499D01*
X172987027Y-135949999D02*
X172987027Y-137847500D01*
X156121756Y-94204999D02*
X156121756Y-96102499D01*
X107399864Y-65742499D02*
X111147702Y-65742499D01*
X216087162Y-103692499D02*
X217961081Y-103692499D01*
X206717567Y-60049999D02*
X204843648Y-60049999D01*
X206717567Y-75229999D02*
X206717567Y-77127499D01*
X126139054Y-122667499D02*
X126139054Y-120770000D01*
X150500000Y-105589999D02*
X148626081Y-105589999D01*
X156121756Y-77127499D02*
X156121756Y-80922499D01*
X148626081Y-134052500D02*
X150500000Y-134052500D01*
X86786756Y-124565000D02*
X86786756Y-126462499D01*
X81165000Y-120770000D02*
X83038918Y-120770000D01*
X174860945Y-90410000D02*
X174860945Y-96102499D01*
X182356621Y-71434999D02*
X176734864Y-71434999D01*
X139256486Y-113179999D02*
X137382567Y-113179999D01*
X157995675Y-60049999D02*
X159869594Y-60049999D01*
X120517297Y-113179999D02*
X120517297Y-118872500D01*
X202969729Y-48665000D02*
X199221891Y-48665000D01*
X204843648Y-135949999D02*
X202969729Y-135949999D01*
X195474054Y-92307499D02*
X195474054Y-90410000D01*
X116769459Y-86614999D02*
X116769459Y-88512499D01*
X124265135Y-132155000D02*
X122391216Y-132155000D01*
X98030270Y-126462499D02*
X98030270Y-128360000D01*
X92408513Y-79024999D02*
X92408513Y-80922499D01*
X86786756Y-128360000D02*
X86786756Y-130257500D01*
X118643378Y-147335000D02*
X118643378Y-145437500D01*
X161743513Y-56254999D02*
X159869594Y-56254999D01*
X202969729Y-113179999D02*
X202969729Y-111282499D01*
X212339324Y-75229999D02*
X212339324Y-77127499D01*
X146752162Y-52459999D02*
X146752162Y-54357499D01*
X216087162Y-50562500D02*
X216087162Y-48665000D01*
X135508648Y-84717499D02*
X133634729Y-84717499D01*
X178608783Y-86614999D02*
X178608783Y-88512499D01*
X208591486Y-99897499D02*
X206717567Y-99897499D01*
X113021621Y-67639999D02*
X111147702Y-67639999D01*
X208591486Y-101794999D02*
X208591486Y-103692499D01*
X113021621Y-79024999D02*
X113021621Y-82819999D01*
X103652027Y-109384999D02*
X103652027Y-111282499D01*
X84912837Y-132155000D02*
X84912837Y-128360000D01*
X90534594Y-147335000D02*
X88660675Y-147335000D01*
X144878243Y-118872500D02*
X144878243Y-116975000D01*
X124265135Y-71434999D02*
X122391216Y-71434999D01*
X96156351Y-118872500D02*
X96156351Y-116975000D01*
X172987027Y-73332499D02*
X182356621Y-73332499D01*
X154247837Y-97999999D02*
X154247837Y-99897499D01*
X189852297Y-71434999D02*
X184230540Y-71434999D01*
X189852297Y-48665000D02*
X189852297Y-50562500D01*
X105525945Y-103692499D02*
X103652027Y-103692499D01*
X83038918Y-141642500D02*
X84912837Y-141642500D01*
X217961081Y-61947499D02*
X217961081Y-60049999D01*
X114895540Y-71434999D02*
X114895540Y-69537499D01*
X217961081Y-145437500D02*
X219835000Y-145437500D01*
X92408513Y-122667499D02*
X92408513Y-120770000D01*
X83038918Y-77127499D02*
X83038918Y-75229999D01*
X107399864Y-97999999D02*
X103652027Y-97999999D01*
X206717567Y-135949999D02*
X206717567Y-137847500D01*
X98030270Y-77127499D02*
X98030270Y-75229999D01*
X216087162Y-97999999D02*
X216087162Y-99897499D01*
X176734864Y-61947499D02*
X176734864Y-60049999D01*
X206717567Y-69537499D02*
X208591486Y-69537499D01*
X204843648Y-92307499D02*
X202969729Y-92307499D01*
X208591486Y-143539999D02*
X208591486Y-145437500D01*
X96156351Y-126462499D02*
X98030270Y-126462499D01*
X135508648Y-115077500D02*
X135508648Y-113179999D01*
X208591486Y-90410000D02*
X208591486Y-92307499D01*
X189852297Y-50562500D02*
X187978378Y-50562500D01*
X199221891Y-75229999D02*
X197347972Y-75229999D01*
X161743513Y-103692499D02*
X163617432Y-103692499D01*
X94282432Y-94204999D02*
X94282432Y-96102499D01*
X150500000Y-52459999D02*
X150500000Y-54357499D01*
X92408513Y-96102499D02*
X92408513Y-94204999D01*
X92408513Y-97999999D02*
X90534594Y-97999999D01*
X111147702Y-48665000D02*
X107399864Y-48665000D01*
X167365270Y-48665000D02*
X167365270Y-52459999D01*
X133634729Y-132155000D02*
X129886891Y-132155000D01*
X157995675Y-54357499D02*
X159869594Y-54357499D01*
X94282432Y-54357499D02*
X96156351Y-54357499D01*
X163617432Y-137847500D02*
X163617432Y-135949999D01*
X99904189Y-115077500D02*
X101778108Y-115077500D01*
X126139054Y-69537499D02*
X128012972Y-69537499D01*
X131760810Y-135949999D02*
X131760810Y-137847500D01*
X165491351Y-116975000D02*
X165491351Y-118872500D01*
X131760810Y-73332499D02*
X131760810Y-77127499D01*
X131760810Y-101794999D02*
X129886891Y-101794999D01*
X96156351Y-99897499D02*
X96156351Y-97999999D01*
X122391216Y-71434999D02*
X122391216Y-67639999D01*
X182356621Y-118872500D02*
X184230540Y-118872500D01*
X214213243Y-63844999D02*
X216087162Y-63844999D01*
X186104459Y-132155000D02*
X186104459Y-130257500D01*
X148626081Y-132155000D02*
X148626081Y-134052500D01*
X141130405Y-137847500D02*
X143004324Y-137847500D01*
X174860945Y-145437500D02*
X176734864Y-145437500D01*
X199221891Y-116975000D02*
X201095810Y-116975000D01*
X98030270Y-69537499D02*
X98030270Y-71434999D01*
X214213243Y-113179999D02*
X214213243Y-111282499D01*
X214213243Y-99897499D02*
X214213243Y-97999999D01*
X84912837Y-48665000D02*
X84912837Y-50562500D01*
X197347972Y-88512499D02*
X199221891Y-88512499D01*
X180482702Y-90410000D02*
X178608783Y-90410000D01*
X139256486Y-80922499D02*
X139256486Y-84717499D01*
X150500000Y-48665000D02*
X150500000Y-50562500D01*
X174860945Y-105589999D02*
X176734864Y-105589999D01*
X103652027Y-88512499D02*
X103652027Y-84717499D01*
X156121756Y-120770000D02*
X157995675Y-120770000D01*
X172987027Y-143539999D02*
X171113108Y-143539999D01*
X150500000Y-60049999D02*
X150500000Y-61947499D01*
X137382567Y-54357499D02*
X137382567Y-52459999D01*
X193600135Y-124565000D02*
X189852297Y-124565000D01*
X161743513Y-124565000D02*
X161743513Y-128360000D01*
X206717567Y-99897499D02*
X206717567Y-97999999D01*
X157995675Y-130257500D02*
X157995675Y-132155000D01*
X146752162Y-128360000D02*
X141130405Y-128360000D01*
X174860945Y-77127499D02*
X172987027Y-77127499D01*
X99904189Y-111282499D02*
X101778108Y-111282499D01*
X90534594Y-80922499D02*
X90534594Y-79024999D01*
X182356621Y-69537499D02*
X182356621Y-71434999D01*
X165491351Y-99897499D02*
X163617432Y-99897499D01*
X139256486Y-71434999D02*
X137382567Y-71434999D01*
X159869594Y-128360000D02*
X159869594Y-124565000D01*
X90534594Y-115077500D02*
X94282432Y-115077500D01*
X174860945Y-109384999D02*
X174860945Y-111282499D01*
X113021621Y-105589999D02*
X113021621Y-107487499D01*
X128012972Y-120770000D02*
X128012972Y-122667499D01*
X206717567Y-124565000D02*
X202969729Y-124565000D01*
X214213243Y-141642500D02*
X214213243Y-139744999D01*
X116769459Y-130257500D02*
X116769459Y-132155000D01*
X176734864Y-54357499D02*
X182356621Y-54357499D01*
X144878243Y-88512499D02*
X144878243Y-86614999D01*
X169239189Y-113179999D02*
X167365270Y-113179999D01*
X148626081Y-141642500D02*
X148626081Y-139744999D01*
X103652027Y-107487499D02*
X103652027Y-105589999D01*
X184230540Y-118872500D02*
X184230540Y-116975000D01*
X103652027Y-124565000D02*
X101778108Y-124565000D01*
X180482702Y-122667499D02*
X184230540Y-122667499D01*
X212339324Y-60049999D02*
X212339324Y-65742499D01*
X199221891Y-67639999D02*
X199221891Y-69537499D01*
X201095810Y-84717499D02*
X199221891Y-84717499D01*
X90534594Y-111282499D02*
X90534594Y-115077500D01*
X124265135Y-88512499D02*
X126139054Y-88512499D01*
X116769459Y-139744999D02*
X116769459Y-143539999D01*
X159869594Y-48665000D02*
X156121756Y-48665000D01*
X167365270Y-61947499D02*
X165491351Y-61947499D01*
X124265135Y-130257500D02*
X124265135Y-132155000D01*
X111147702Y-113179999D02*
X109273783Y-113179999D01*
X113021621Y-77127499D02*
X111147702Y-77127499D01*
X146752162Y-58152500D02*
X144878243Y-58152500D01*
X137382567Y-79024999D02*
X137382567Y-80922499D01*
X208591486Y-75229999D02*
X206717567Y-75229999D01*
X92408513Y-65742499D02*
X92408513Y-63844999D01*
X163617432Y-67639999D02*
X161743513Y-67639999D01*
X126139054Y-141642500D02*
X126139054Y-135949999D01*
X109273783Y-96102499D02*
X114895540Y-96102499D01*
X133634729Y-118872500D02*
X133634729Y-115077500D01*
X187978378Y-116975000D02*
X186104459Y-116975000D01*
X150500000Y-69537499D02*
X154247837Y-69537499D01*
X193600135Y-130257500D02*
X195474054Y-130257500D01*
X178608783Y-141642500D02*
X182356621Y-141642500D01*
X129886891Y-82819999D02*
X128012972Y-82819999D01*
X171113108Y-103692499D02*
X171113108Y-99897499D01*
X99904189Y-58152500D02*
X99904189Y-56254999D01*
X114895540Y-103692499D02*
X114895540Y-97999999D01*
X180482702Y-60049999D02*
X178608783Y-60049999D01*
X109273783Y-134052500D02*
X113021621Y-134052500D01*
X128012972Y-134052500D02*
X133634729Y-134052500D01*
X120517297Y-77127499D02*
X120517297Y-79024999D01*
X101778108Y-143539999D02*
X99904189Y-143539999D01*
X90534594Y-97999999D02*
X90534594Y-103692499D01*
X103652027Y-80922499D02*
X103652027Y-79024999D01*
X111147702Y-115077500D02*
X111147702Y-113179999D01*
X204843648Y-103692499D02*
X206717567Y-103692499D01*
X154247837Y-118872500D02*
X152373918Y-118872500D01*
X124265135Y-135949999D02*
X124265135Y-137847500D01*
X156121756Y-101794999D02*
X157995675Y-101794999D01*
X122391216Y-134052500D02*
X126139054Y-134052500D01*
X137382567Y-118872500D02*
X137382567Y-116975000D01*
X144878243Y-99897499D02*
X144878243Y-97999999D01*
X206717567Y-116975000D02*
X204843648Y-116975000D01*
X161743513Y-115077500D02*
X165491351Y-115077500D01*
X167365270Y-60049999D02*
X167365270Y-61947499D01*
X120517297Y-92307499D02*
X118643378Y-92307499D01*
X124265135Y-65742499D02*
X126139054Y-65742499D01*
X135508648Y-101794999D02*
X135508648Y-103692499D01*
X199221891Y-126462499D02*
X197347972Y-126462499D01*
X202969729Y-105589999D02*
X202969729Y-101794999D01*
X187978378Y-111282499D02*
X187978378Y-109384999D01*
X180482702Y-103692499D02*
X184230540Y-103692499D01*
X186104459Y-116975000D02*
X186104459Y-122667499D01*
X148626081Y-63844999D02*
X146752162Y-63844999D01*
X152373918Y-86614999D02*
X150500000Y-86614999D01*
X129886891Y-124565000D02*
X128012972Y-124565000D01*
X120517297Y-145437500D02*
X120517297Y-143539999D01*
X217961081Y-113179999D02*
X217961081Y-115077500D01*
X189852297Y-79024999D02*
X187978378Y-79024999D01*
X154247837Y-88512499D02*
X154247837Y-86614999D01*
X148626081Y-84717499D02*
X148626081Y-82819999D01*
X83038918Y-69537499D02*
X83038918Y-67639999D01*
X186104459Y-147335000D02*
X186104459Y-145437500D01*
X156121756Y-48665000D02*
X156121756Y-52459999D01*
X84912837Y-56254999D02*
X84912837Y-58152500D01*
X202969729Y-61947499D02*
X202969729Y-54357499D01*
X157995675Y-75229999D02*
X157995675Y-73332499D01*
X133634729Y-71434999D02*
X133634729Y-69537499D01*
X180482702Y-128360000D02*
X174860945Y-128360000D01*
X206717567Y-103692499D02*
X206717567Y-101794999D01*
X159869594Y-143539999D02*
X156121756Y-143539999D01*
X128012972Y-128360000D02*
X126139054Y-128360000D01*
X154247837Y-58152500D02*
X154247837Y-54357499D01*
X184230540Y-86614999D02*
X186104459Y-86614999D01*
X199221891Y-105589999D02*
X199221891Y-107487499D01*
X96156351Y-97999999D02*
X94282432Y-97999999D01*
X161743513Y-134052500D02*
X167365270Y-134052500D01*
X98030270Y-139744999D02*
X98030270Y-143539999D01*
X167365270Y-132155000D02*
X163617432Y-132155000D01*
X171113108Y-88512499D02*
X172987027Y-88512499D01*
X120517297Y-88512499D02*
X122391216Y-88512499D01*
X165491351Y-124565000D02*
X165491351Y-126462499D01*
X114895540Y-79024999D02*
X114895540Y-77127499D01*
X92408513Y-109384999D02*
X92408513Y-107487499D01*
X103652027Y-132155000D02*
X103652027Y-128360000D01*
X88660675Y-109384999D02*
X88660675Y-105589999D01*
X191726216Y-107487499D02*
X191726216Y-103692499D01*
X217961081Y-75229999D02*
X216087162Y-75229999D01*
X186104459Y-101794999D02*
X186104459Y-107487499D01*
X180482702Y-109384999D02*
X180482702Y-111282499D01*
X180482702Y-101794999D02*
X180482702Y-103692499D01*
X180482702Y-105589999D02*
X180482702Y-107487499D01*
X161743513Y-80922499D02*
X163617432Y-80922499D01*
X148626081Y-97999999D02*
X146752162Y-97999999D01*
X129886891Y-61947499D02*
X129886891Y-60049999D01*
X107399864Y-80922499D02*
X107399864Y-75229999D01*
X111147702Y-130257500D02*
X116769459Y-130257500D01*
X113021621Y-145437500D02*
X113021621Y-143539999D01*
X118643378Y-56254999D02*
X118643378Y-52459999D01*
X131760810Y-94204999D02*
X131760810Y-96102499D01*
X83038918Y-105589999D02*
X81165000Y-105589999D01*
X96156351Y-54357499D02*
X96156351Y-48665000D01*
X81165000Y-67639999D02*
X81165000Y-63844999D01*
X113021621Y-103692499D02*
X114895540Y-103692499D01*
X116769459Y-134052500D02*
X116769459Y-137847500D01*
X118643378Y-77127499D02*
X120517297Y-77127499D01*
X122391216Y-107487499D02*
X122391216Y-103692499D01*
X122391216Y-143539999D02*
X122391216Y-145437500D01*
X92408513Y-130257500D02*
X98030270Y-130257500D01*
X92408513Y-56254999D02*
X92408513Y-52459999D01*
X180482702Y-48665000D02*
X180482702Y-50562500D01*
X212339324Y-48665000D02*
X212339324Y-58152500D01*
X113021621Y-69537499D02*
X113021621Y-71434999D01*
X219835000Y-79024999D02*
X219835000Y-84717499D01*
X114895540Y-135949999D02*
X113021621Y-135949999D01*
X201095810Y-120770000D02*
X197347972Y-120770000D01*
X81165000Y-94204999D02*
X81165000Y-90410000D01*
X174860945Y-79024999D02*
X174860945Y-80922499D01*
X180482702Y-79024999D02*
X182356621Y-79024999D01*
X152373918Y-101794999D02*
X154247837Y-101794999D01*
X86786756Y-65742499D02*
X88660675Y-65742499D01*
X118643378Y-63844999D02*
X120517297Y-63844999D01*
X126139054Y-90410000D02*
X124265135Y-90410000D01*
X154247837Y-143539999D02*
X152373918Y-143539999D01*
X193600135Y-134052500D02*
X193600135Y-130257500D01*
X135508648Y-80922499D02*
X135508648Y-79024999D01*
X217961081Y-107487499D02*
X219835000Y-107487499D01*
X182356621Y-101794999D02*
X182356621Y-99897499D01*
X135508648Y-56254999D02*
X135508648Y-58152500D01*
X176734864Y-109384999D02*
X174860945Y-109384999D01*
X146752162Y-116975000D02*
X146752162Y-118872500D01*
X114895540Y-96102499D02*
X114895540Y-94204999D01*
X114895540Y-120770000D02*
X111147702Y-120770000D01*
X165491351Y-80922499D02*
X167365270Y-80922499D01*
X86786756Y-107487499D02*
X86786756Y-109384999D01*
X214213243Y-111282499D02*
X219835000Y-111282499D01*
X186104459Y-139744999D02*
X187978378Y-139744999D01*
X135508648Y-145437500D02*
X135508648Y-147335000D01*
X96156351Y-56254999D02*
X92408513Y-56254999D01*
X204843648Y-77127499D02*
X204843648Y-75229999D01*
X167365270Y-84717499D02*
X165491351Y-84717499D01*
X128012972Y-86614999D02*
X128012972Y-88512499D01*
X169239189Y-122667499D02*
X172987027Y-122667499D01*
X217961081Y-65742499D02*
X217961081Y-63844999D01*
X217961081Y-134052500D02*
X219835000Y-134052500D01*
X98030270Y-97999999D02*
X98030270Y-99897499D01*
X152373918Y-137847500D02*
X152373918Y-134052500D01*
X113021621Y-63844999D02*
X113021621Y-67639999D01*
X172987027Y-105589999D02*
X172987027Y-107487499D01*
X135508648Y-120770000D02*
X135508648Y-122667499D01*
X137382567Y-94204999D02*
X137382567Y-96102499D01*
X199221891Y-115077500D02*
X199221891Y-113179999D01*
X172987027Y-96102499D02*
X172987027Y-90410000D01*
X217961081Y-124565000D02*
X214213243Y-124565000D01*
X120517297Y-90410000D02*
X120517297Y-92307499D01*
X101778108Y-122667499D02*
X101778108Y-120770000D01*
X143004324Y-134052500D02*
X146752162Y-134052500D01*
X171113108Y-65742499D02*
X172987027Y-65742499D01*
X135508648Y-88512499D02*
X137382567Y-88512499D01*
X180482702Y-77127499D02*
X180482702Y-75229999D01*
X208591486Y-65742499D02*
X210465405Y-65742499D01*
X171113108Y-145437500D02*
X172987027Y-145437500D01*
X96156351Y-82819999D02*
X94282432Y-82819999D01*
X217961081Y-143539999D02*
X217961081Y-145437500D01*
X96156351Y-145437500D02*
X98030270Y-145437500D01*
X86786756Y-103692499D02*
X88660675Y-103692499D01*
X131760810Y-50562500D02*
X131760810Y-52459999D01*
X103652027Y-54357499D02*
X105525945Y-54357499D01*
X178608783Y-96102499D02*
X180482702Y-96102499D01*
X167365270Y-107487499D02*
X169239189Y-107487499D01*
X101778108Y-103692499D02*
X99904189Y-103692499D01*
X143004324Y-147335000D02*
X137382567Y-147335000D01*
X98030270Y-60049999D02*
X98030270Y-61947499D01*
X116769459Y-63844999D02*
X116769459Y-65742499D01*
X83038918Y-79024999D02*
X81165000Y-79024999D01*
X148626081Y-92307499D02*
X148626081Y-86614999D01*
X139256486Y-101794999D02*
X139256486Y-103692499D01*
X90534594Y-71434999D02*
X88660675Y-71434999D01*
X157995675Y-65742499D02*
X159869594Y-65742499D01*
X204843648Y-130257500D02*
X204843648Y-132155000D01*
X101778108Y-94204999D02*
X101778108Y-96102499D01*
X195474054Y-75229999D02*
X193600135Y-75229999D01*
X146752162Y-67639999D02*
X146752162Y-69537499D01*
X171113108Y-50562500D02*
X169239189Y-50562500D01*
X214213243Y-94204999D02*
X216087162Y-94204999D01*
X210465405Y-126462499D02*
X212339324Y-126462499D01*
X206717567Y-65742499D02*
X206717567Y-63844999D01*
X101778108Y-145437500D02*
X101778108Y-143539999D01*
X178608783Y-116975000D02*
X178608783Y-113179999D01*
X107399864Y-141642500D02*
X107399864Y-135949999D01*
X103652027Y-143539999D02*
X103652027Y-145437500D01*
X214213243Y-90410000D02*
X212339324Y-90410000D01*
X202969729Y-63844999D02*
X204843648Y-63844999D01*
X174860945Y-128360000D02*
X174860945Y-126462499D01*
X172987027Y-71434999D02*
X172987027Y-67639999D01*
X103652027Y-115077500D02*
X105525945Y-115077500D01*
X105525945Y-88512499D02*
X103652027Y-88512499D01*
X101778108Y-58152500D02*
X103652027Y-58152500D01*
X219835000Y-69537499D02*
X219835000Y-71434999D01*
X143004324Y-73332499D02*
X148626081Y-73332499D01*
X116769459Y-109384999D02*
X116769459Y-115077500D01*
X133634729Y-90410000D02*
X133634729Y-86614999D01*
X99904189Y-118872500D02*
X105525945Y-118872500D01*
X187978378Y-94204999D02*
X189852297Y-94204999D01*
X141130405Y-96102499D02*
X141130405Y-92307499D01*
X172987027Y-56254999D02*
X169239189Y-56254999D01*
X202969729Y-94204999D02*
X204843648Y-94204999D01*
X178608783Y-69537499D02*
X178608783Y-67639999D01*
X204843648Y-94204999D02*
X204843648Y-96102499D01*
X191726216Y-141642500D02*
X193600135Y-141642500D01*
X169239189Y-147335000D02*
X163617432Y-147335000D01*
X81165000Y-96102499D02*
X83038918Y-96102499D01*
X150500000Y-107487499D02*
X150500000Y-109384999D01*
X206717567Y-92307499D02*
X206717567Y-90410000D01*
X176734864Y-82819999D02*
X174860945Y-82819999D01*
X210465405Y-58152500D02*
X210465405Y-56254999D01*
X199221891Y-63844999D02*
X201095810Y-63844999D01*
X204843648Y-126462499D02*
X204843648Y-128360000D01*
X114895540Y-54357499D02*
X116769459Y-54357499D01*
X120517297Y-132155000D02*
X118643378Y-132155000D01*
X131760810Y-116975000D02*
X131760810Y-120770000D01*
X169239189Y-128360000D02*
X169239189Y-134052500D01*
X182356621Y-107487499D02*
X184230540Y-107487499D01*
X165491351Y-122667499D02*
X167365270Y-122667499D01*
X109273783Y-80922499D02*
X111147702Y-80922499D01*
X122391216Y-88512499D02*
X122391216Y-82819999D01*
X154247837Y-96102499D02*
X154247837Y-94204999D01*
X150500000Y-97999999D02*
X150500000Y-99897499D01*
X129886891Y-115077500D02*
X129886891Y-113179999D01*
X161743513Y-71434999D02*
X161743513Y-73332499D01*
X111147702Y-137847500D02*
X111147702Y-135949999D01*
X189852297Y-132155000D02*
X189852297Y-134052500D01*
X81165000Y-82819999D02*
X81165000Y-80922499D01*
X167365270Y-96102499D02*
X169239189Y-96102499D01*
X148626081Y-139744999D02*
X150500000Y-139744999D01*
X193600135Y-71434999D02*
X191726216Y-71434999D01*
X159869594Y-67639999D02*
X157995675Y-67639999D01*
X154247837Y-54357499D02*
X156121756Y-54357499D01*
X118643378Y-65742499D02*
X118643378Y-63844999D01*
X152373918Y-84717499D02*
X152373918Y-86614999D01*
X103652027Y-73332499D02*
X113021621Y-73332499D01*
X118643378Y-132155000D02*
X118643378Y-130257500D01*
X131760810Y-92307499D02*
X129886891Y-92307499D01*
X172987027Y-113179999D02*
X171113108Y-113179999D01*
X208591486Y-113179999D02*
X206717567Y-113179999D01*
X113021621Y-143539999D02*
X109273783Y-143539999D01*
X120517297Y-124565000D02*
X114895540Y-124565000D01*
X113021621Y-82819999D02*
X109273783Y-82819999D01*
X131760810Y-79024999D02*
X131760810Y-84717499D01*
X120517297Y-96102499D02*
X122391216Y-96102499D01*
X107399864Y-122667499D02*
X107399864Y-118872500D01*
X83038918Y-99897499D02*
X81165000Y-99897499D01*
X187978378Y-79024999D02*
X187978378Y-80922499D01*
X186104459Y-67639999D02*
X184230540Y-67639999D01*
X129886891Y-80922499D02*
X129886891Y-79024999D01*
X135508648Y-97999999D02*
X135508648Y-99897499D01*
X129886891Y-63844999D02*
X131760810Y-63844999D01*
X139256486Y-130257500D02*
X137382567Y-130257500D01*
X187978378Y-118872500D02*
X187978378Y-116975000D01*
X176734864Y-116975000D02*
X171113108Y-116975000D01*
X199221891Y-139744999D02*
X199221891Y-141642500D01*
X84912837Y-113179999D02*
X84912837Y-115077500D01*
X92408513Y-61947499D02*
X92408513Y-60049999D01*
X94282432Y-99897499D02*
X92408513Y-99897499D01*
X161743513Y-54357499D02*
X163617432Y-54357499D01*
X216087162Y-139744999D02*
X216087162Y-141642500D01*
X94282432Y-65742499D02*
X96156351Y-65742499D01*
X131760810Y-107487499D02*
X131760810Y-109384999D01*
X88660675Y-92307499D02*
X88660675Y-86614999D01*
X184230540Y-115077500D02*
X184230540Y-113179999D01*
X191726216Y-48665000D02*
X189852297Y-48665000D01*
X109273783Y-113179999D02*
X109273783Y-116975000D01*
X150500000Y-75229999D02*
X150500000Y-77127499D01*
X92408513Y-69537499D02*
X94282432Y-69537499D01*
X143004324Y-135949999D02*
X139256486Y-135949999D01*
X182356621Y-61947499D02*
X180482702Y-61947499D01*
X167365270Y-69537499D02*
X167365270Y-67639999D01*
X126139054Y-143539999D02*
X122391216Y-143539999D01*
X178608783Y-132155000D02*
X178608783Y-130257500D01*
X210465405Y-109384999D02*
X210465405Y-105589999D01*
X143004324Y-90410000D02*
X141130405Y-90410000D01*
X143004324Y-137847500D02*
X143004324Y-135949999D01*
X195474054Y-128360000D02*
X193600135Y-128360000D01*
X90534594Y-103692499D02*
X92408513Y-103692499D01*
X189852297Y-107487499D02*
X191726216Y-107487499D01*
X216087162Y-58152500D02*
X216087162Y-56254999D01*
X167365270Y-82819999D02*
X167365270Y-84717499D01*
X88660675Y-103692499D02*
X88660675Y-97999999D01*
X187978378Y-143539999D02*
X186104459Y-143539999D01*
X114895540Y-105589999D02*
X113021621Y-105589999D01*
X159869594Y-134052500D02*
X159869594Y-130257500D01*
X150500000Y-143539999D02*
X148626081Y-143539999D01*
X133634729Y-120770000D02*
X135508648Y-120770000D01*
X208591486Y-69537499D02*
X208591486Y-71434999D01*
X148626081Y-80922499D02*
X148626081Y-75229999D01*
X204843648Y-118872500D02*
X202969729Y-118872500D01*
X219835000Y-147335000D02*
X216087162Y-147335000D01*
X199221891Y-137847500D02*
X197347972Y-137847500D01*
X146752162Y-60049999D02*
X146752162Y-61947499D01*
X94282432Y-124565000D02*
X90534594Y-124565000D01*
X139256486Y-134052500D02*
X141130405Y-134052500D01*
X135508648Y-50562500D02*
X135508648Y-48665000D01*
X128012972Y-111282499D02*
X131760810Y-111282499D01*
X165491351Y-118872500D02*
X163617432Y-118872500D01*
X98030270Y-107487499D02*
X98030270Y-109384999D01*
X143004324Y-116975000D02*
X143004324Y-122667499D01*
X193600135Y-135949999D02*
X191726216Y-135949999D01*
X122391216Y-145437500D02*
X124265135Y-145437500D01*
X118643378Y-134052500D02*
X120517297Y-134052500D01*
X131760810Y-77127499D02*
X129886891Y-77127499D01*
X165491351Y-128360000D02*
X165491351Y-130257500D01*
X131760810Y-71434999D02*
X126139054Y-71434999D01*
X84912837Y-97999999D02*
X83038918Y-97999999D01*
X109273783Y-103692499D02*
X111147702Y-103692499D01*
X116769459Y-147335000D02*
X111147702Y-147335000D01*
X101778108Y-77127499D02*
X101778108Y-79024999D01*
X86786756Y-101794999D02*
X86786756Y-103692499D01*
X169239189Y-105589999D02*
X167365270Y-105589999D01*
X159869594Y-116975000D02*
X157995675Y-116975000D01*
X157995675Y-147335000D02*
X152373918Y-147335000D01*
X143004324Y-115077500D02*
X146752162Y-115077500D01*
X219835000Y-54357499D02*
X219835000Y-56254999D01*
X129886891Y-105589999D02*
X129886891Y-107487499D01*
X176734864Y-65742499D02*
X176734864Y-63844999D01*
X176734864Y-139744999D02*
X174860945Y-139744999D01*
X182356621Y-145437500D02*
X184230540Y-145437500D01*
X128012972Y-115077500D02*
X126139054Y-115077500D01*
X152373918Y-56254999D02*
X150500000Y-56254999D01*
X189852297Y-141642500D02*
X189852297Y-139744999D01*
X202969729Y-115077500D02*
X204843648Y-115077500D01*
X163617432Y-101794999D02*
X165491351Y-101794999D01*
X126139054Y-92307499D02*
X126139054Y-90410000D01*
X157995675Y-50562500D02*
X159869594Y-50562500D01*
X187978378Y-96102499D02*
X187978378Y-94204999D01*
X81165000Y-113179999D02*
X81165000Y-111282499D01*
X109273783Y-99897499D02*
X107399864Y-99897499D01*
X105525945Y-50562500D02*
X105525945Y-48665000D01*
X98030270Y-105589999D02*
X96156351Y-105589999D01*
X128012972Y-48665000D02*
X124265135Y-48665000D01*
X88660675Y-134052500D02*
X88660675Y-132155000D01*
X206717567Y-143539999D02*
X204843648Y-143539999D01*
X129886891Y-60049999D02*
X128012972Y-60049999D01*
X94282432Y-77127499D02*
X94282432Y-79024999D01*
X150500000Y-94204999D02*
X150500000Y-96102499D01*
X101778108Y-96102499D02*
X107399864Y-96102499D01*
X101778108Y-99897499D02*
X101778108Y-97999999D01*
X118643378Y-50562500D02*
X118643378Y-48665000D01*
X152373918Y-134052500D02*
X154247837Y-134052500D01*
X84912837Y-99897499D02*
X84912837Y-97999999D01*
X201095810Y-145437500D02*
X202969729Y-145437500D01*
X92408513Y-139744999D02*
X94282432Y-139744999D01*
X114895540Y-134052500D02*
X116769459Y-134052500D01*
X210465405Y-145437500D02*
X210465405Y-147335000D01*
X120517297Y-65742499D02*
X122391216Y-65742499D01*
X101778108Y-97999999D02*
X98030270Y-97999999D01*
X116769459Y-97999999D02*
X116769459Y-99897499D01*
X165491351Y-96102499D02*
X165491351Y-94204999D01*
X94282432Y-90410000D02*
X94282432Y-92307499D01*
X154247837Y-69537499D02*
X154247837Y-65742499D01*
X169239189Y-101794999D02*
X169239189Y-105589999D01*
X219835000Y-143539999D02*
X217961081Y-143539999D01*
X186104459Y-82819999D02*
X186104459Y-84717499D01*
X96156351Y-113179999D02*
X96156351Y-115077500D01*
X86786756Y-135949999D02*
X86786756Y-137847500D01*
X101778108Y-115077500D02*
X101778108Y-113179999D01*
X204843648Y-69537499D02*
X204843648Y-67639999D01*
X81165000Y-69537499D02*
X83038918Y-69537499D01*
X172987027Y-97999999D02*
X169239189Y-97999999D01*
X120517297Y-63844999D02*
X120517297Y-65742499D01*
X174860945Y-67639999D02*
X174860945Y-71434999D01*
X128012972Y-105589999D02*
X126139054Y-105589999D01*
X204843648Y-65742499D02*
X206717567Y-65742499D01*
X167365270Y-77127499D02*
X167365270Y-75229999D01*
X217961081Y-137847500D02*
X217961081Y-135949999D01*
X197347972Y-90410000D02*
X197347972Y-92307499D01*
X154247837Y-75229999D02*
X154247837Y-71434999D01*
X84912837Y-120770000D02*
X86786756Y-120770000D01*
X167365270Y-52459999D02*
X165491351Y-52459999D01*
X189852297Y-86614999D02*
X189852297Y-88512499D01*
X133634729Y-75229999D02*
X133634729Y-73332499D01*
X184230540Y-120770000D02*
X182356621Y-120770000D01*
X165491351Y-141642500D02*
X167365270Y-141642500D01*
X204843648Y-60049999D02*
X204843648Y-61947499D01*
X146752162Y-61947499D02*
X148626081Y-61947499D01*
X195474054Y-65742499D02*
X195474054Y-63844999D01*
X201095810Y-137847500D02*
X201095810Y-135949999D01*
X199221891Y-84717499D02*
X199221891Y-82819999D01*
X98030270Y-134052500D02*
X98030270Y-137847500D01*
X208591486Y-61947499D02*
X206717567Y-61947499D01*
X172987027Y-139744999D02*
X172987027Y-141642500D01*
X133634729Y-56254999D02*
X135508648Y-56254999D01*
X96156351Y-96102499D02*
X96156351Y-90410000D01*
X105525945Y-79024999D02*
X105525945Y-80922499D01*
X86786756Y-94204999D02*
X84912837Y-94204999D01*
X165491351Y-105589999D02*
X161743513Y-105589999D01*
X114895540Y-141642500D02*
X114895540Y-139744999D01*
X96156351Y-58152500D02*
X96156351Y-56254999D01*
X171113108Y-54357499D02*
X172987027Y-54357499D01*
X86786756Y-145437500D02*
X86786756Y-147335000D01*
X204843648Y-88512499D02*
X206717567Y-88512499D01*
X161743513Y-116975000D02*
X161743513Y-122667499D01*
X137382567Y-60049999D02*
X137382567Y-61947499D01*
X161743513Y-61947499D02*
X161743513Y-60049999D01*
X83038918Y-75229999D02*
X81165000Y-75229999D01*
X187978378Y-82819999D02*
X186104459Y-82819999D01*
X92408513Y-48665000D02*
X90534594Y-48665000D01*
X199221891Y-135949999D02*
X199221891Y-137847500D01*
X144878243Y-126462499D02*
X146752162Y-126462499D01*
X126139054Y-118872500D02*
X126139054Y-116975000D01*
X116769459Y-122667499D02*
X118643378Y-122667499D01*
X133634729Y-80922499D02*
X135508648Y-80922499D01*
X184230540Y-75229999D02*
X184230540Y-73332499D01*
X94282432Y-126462499D02*
X94282432Y-124565000D01*
X107399864Y-69537499D02*
X109273783Y-69537499D01*
X156121756Y-84717499D02*
X154247837Y-84717499D01*
X86786756Y-75229999D02*
X84912837Y-75229999D01*
X113021621Y-107487499D02*
X111147702Y-107487499D01*
X83038918Y-56254999D02*
X81165000Y-56254999D01*
X208591486Y-137847500D02*
X210465405Y-137847500D01*
X135508648Y-52459999D02*
X135508648Y-54357499D01*
X195474054Y-120770000D02*
X191726216Y-120770000D01*
X137382567Y-96102499D02*
X141130405Y-96102499D01*
X150500000Y-58152500D02*
X154247837Y-58152500D01*
X107399864Y-61947499D02*
X109273783Y-61947499D01*
X111147702Y-69537499D02*
X113021621Y-69537499D01*
X216087162Y-132155000D02*
X214213243Y-132155000D01*
X128012972Y-141642500D02*
X129886891Y-141642500D01*
X161743513Y-48665000D02*
X161743513Y-50562500D01*
X120517297Y-107487499D02*
X122391216Y-107487499D01*
X135508648Y-92307499D02*
X135508648Y-90410000D01*
X111147702Y-101794999D02*
X113021621Y-101794999D01*
X81165000Y-137847500D02*
X81165000Y-130257500D01*
X86786756Y-60049999D02*
X86786756Y-61947499D01*
X199221891Y-101794999D02*
X199221891Y-97999999D01*
X107399864Y-109384999D02*
X109273783Y-109384999D01*
X113021621Y-88512499D02*
X111147702Y-88512499D01*
X159869594Y-73332499D02*
X159869594Y-71434999D01*
X217961081Y-90410000D02*
X216087162Y-90410000D01*
X191726216Y-56254999D02*
X187978378Y-56254999D01*
X167365270Y-65742499D02*
X169239189Y-65742499D01*
X171113108Y-111282499D02*
X172987027Y-111282499D01*
X217961081Y-135949999D02*
X216087162Y-135949999D01*
X208591486Y-73332499D02*
X208591486Y-75229999D01*
X128012972Y-69537499D02*
X128012972Y-67639999D01*
X111147702Y-128360000D02*
X111147702Y-126462499D01*
X135508648Y-99897499D02*
X133634729Y-99897499D01*
X109273783Y-105589999D02*
X109273783Y-107487499D01*
X96156351Y-137847500D02*
X96156351Y-135949999D01*
X113021621Y-134052500D02*
X113021621Y-132155000D01*
X126139054Y-134052500D02*
X126139054Y-130257500D01*
X202969729Y-139744999D02*
X202969729Y-143539999D01*
X199221891Y-48665000D02*
X199221891Y-50562500D01*
X184230540Y-79024999D02*
X184230540Y-77127499D01*
X208591486Y-118872500D02*
X206717567Y-118872500D01*
X129886891Y-113179999D02*
X128012972Y-113179999D01*
X128012972Y-50562500D02*
X128012972Y-48665000D01*
X165491351Y-135949999D02*
X165491351Y-137847500D01*
X189852297Y-63844999D02*
X189852297Y-65742499D01*
X159869594Y-94204999D02*
X157995675Y-94204999D01*
X150500000Y-101794999D02*
X150500000Y-105589999D01*
X116769459Y-145437500D02*
X116769459Y-147335000D01*
X202969729Y-69537499D02*
X204843648Y-69537499D01*
X86786756Y-63844999D02*
X86786756Y-65742499D01*
X201095810Y-77127499D02*
X199221891Y-77127499D01*
X214213243Y-86614999D02*
X216087162Y-86614999D01*
X217961081Y-82819999D02*
X216087162Y-82819999D01*
X101778108Y-137847500D02*
X99904189Y-137847500D01*
X180482702Y-111282499D02*
X184230540Y-111282499D01*
X216087162Y-63844999D02*
X216087162Y-65742499D01*
X113021621Y-116975000D02*
X113021621Y-118872500D01*
X139256486Y-65742499D02*
X139256486Y-67639999D01*
X189852297Y-109384999D02*
X189852297Y-111282499D01*
X113021621Y-101794999D02*
X113021621Y-103692499D01*
X114895540Y-80922499D02*
X116769459Y-80922499D01*
X148626081Y-86614999D02*
X146752162Y-86614999D01*
X135508648Y-79024999D02*
X133634729Y-79024999D01*
X202969729Y-135949999D02*
X202969729Y-137847500D01*
X202969729Y-134052500D02*
X206717567Y-134052500D01*
X163617432Y-69537499D02*
X163617432Y-71434999D01*
X103652027Y-111282499D02*
X107399864Y-111282499D01*
X184230540Y-54357499D02*
X186104459Y-54357499D01*
X143004324Y-75229999D02*
X143004324Y-79024999D01*
X144878243Y-109384999D02*
X144878243Y-107487499D01*
X202969729Y-80922499D02*
X204843648Y-80922499D01*
X157995675Y-128360000D02*
X152373918Y-128360000D01*
X169239189Y-137847500D02*
X167365270Y-137847500D01*
X169239189Y-65742499D02*
X169239189Y-63844999D01*
X172987027Y-107487499D02*
X174860945Y-107487499D01*
X217961081Y-132155000D02*
X217961081Y-134052500D01*
X182356621Y-63844999D02*
X182356621Y-67639999D01*
X118643378Y-92307499D02*
X118643378Y-90410000D01*
X92408513Y-141642500D02*
X92408513Y-139744999D01*
X167365270Y-118872500D02*
X167365270Y-116975000D01*
X195474054Y-116975000D02*
X197347972Y-116975000D01*
X167365270Y-67639999D02*
X165491351Y-67639999D01*
X152373918Y-120770000D02*
X154247837Y-120770000D01*
X182356621Y-58152500D02*
X182356621Y-61947499D01*
X83038918Y-86614999D02*
X83038918Y-88512499D01*
X208591486Y-145437500D02*
X210465405Y-145437500D01*
X99904189Y-82819999D02*
X98030270Y-82819999D01*
X184230540Y-109384999D02*
X182356621Y-109384999D01*
X208591486Y-139744999D02*
X208591486Y-137847500D01*
X165491351Y-61947499D02*
X165491351Y-54357499D01*
X105525945Y-105589999D02*
X105525945Y-109384999D01*
X122391216Y-77127499D02*
X122391216Y-73332499D01*
X165491351Y-120770000D02*
X165491351Y-122667499D01*
X137382567Y-48665000D02*
X137382567Y-50562500D01*
X105525945Y-77127499D02*
X103652027Y-77127499D01*
X169239189Y-109384999D02*
X163617432Y-109384999D01*
X212339324Y-111282499D02*
X212339324Y-115077500D01*
X90534594Y-105589999D02*
X90534594Y-109384999D01*
X157995675Y-122667499D02*
X159869594Y-122667499D01*
X150500000Y-92307499D02*
X152373918Y-92307499D01*
X129886891Y-135949999D02*
X128012972Y-135949999D01*
X210465405Y-67639999D02*
X206717567Y-67639999D01*
X86786756Y-50562500D02*
X86786756Y-52459999D01*
X191726216Y-80922499D02*
X191726216Y-79024999D01*
X216087162Y-99897499D02*
X214213243Y-99897499D01*
X133634729Y-122667499D02*
X133634729Y-120770000D01*
X83038918Y-90410000D02*
X83038918Y-92307499D01*
X195474054Y-113179999D02*
X193600135Y-113179999D01*
X107399864Y-92307499D02*
X107399864Y-90410000D01*
X128012972Y-116975000D02*
X128012972Y-118872500D01*
X165491351Y-52459999D02*
X165491351Y-48665000D01*
X156121756Y-97999999D02*
X154247837Y-97999999D01*
X217961081Y-99897499D02*
X217961081Y-97999999D01*
X165491351Y-75229999D02*
X165491351Y-73332499D01*
X217961081Y-79024999D02*
X219835000Y-79024999D01*
X219835000Y-145437500D02*
X219835000Y-147335000D01*
X176734864Y-103692499D02*
X174860945Y-103692499D01*
X156121756Y-107487499D02*
X157995675Y-107487499D01*
X161743513Y-128360000D02*
X159869594Y-128360000D01*
X92408513Y-60049999D02*
X90534594Y-60049999D01*
X144878243Y-77127499D02*
X144878243Y-75229999D01*
X105525945Y-63844999D02*
X103652027Y-63844999D01*
X120517297Y-141642500D02*
X122391216Y-141642500D01*
X189852297Y-111282499D02*
X187978378Y-111282499D01*
X195474054Y-130257500D02*
X195474054Y-134052500D01*
X116769459Y-54357499D02*
X116769459Y-58152500D01*
X165491351Y-143539999D02*
X161743513Y-143539999D01*
X163617432Y-135949999D02*
X161743513Y-135949999D01*
X197347972Y-61947499D02*
X195474054Y-61947499D01*
X103652027Y-101794999D02*
X101778108Y-101794999D01*
X118643378Y-88512499D02*
X118643378Y-86614999D01*
X135508648Y-135949999D02*
X135508648Y-137847500D01*
X199221891Y-61947499D02*
X199221891Y-60049999D01*
X195474054Y-96102499D02*
X195474054Y-94204999D01*
X128012972Y-135949999D02*
X128012972Y-141642500D01*
X201095810Y-79024999D02*
X201095810Y-84717499D01*
X135508648Y-77127499D02*
X135508648Y-75229999D01*
X137382567Y-63844999D02*
X137382567Y-65742499D01*
X111147702Y-139744999D02*
X113021621Y-139744999D01*
X86786756Y-120770000D02*
X86786756Y-122667499D01*
X161743513Y-60049999D02*
X163617432Y-60049999D01*
X124265135Y-128360000D02*
X118643378Y-128360000D01*
X88660675Y-58152500D02*
X88660675Y-54357499D01*
X217961081Y-63844999D02*
X219835000Y-63844999D01*
X99904189Y-99897499D02*
X101778108Y-99897499D01*
X131760810Y-58152500D02*
X131760810Y-61947499D01*
X92408513Y-52459999D02*
X94282432Y-52459999D01*
X204843648Y-48665000D02*
X204843648Y-52459999D01*
X206717567Y-107487499D02*
X208591486Y-107487499D01*
X94282432Y-134052500D02*
X94282432Y-132155000D01*
X128012972Y-61947499D02*
X126139054Y-61947499D01*
X178608783Y-94204999D02*
X178608783Y-96102499D01*
X114895540Y-69537499D02*
X116769459Y-69537499D01*
X101778108Y-139744999D02*
X101778108Y-141642500D01*
X105525945Y-90410000D02*
X105525945Y-92307499D01*
X141130405Y-97999999D02*
X139256486Y-97999999D01*
X186104459Y-107487499D02*
X187978378Y-107487499D01*
X165491351Y-79024999D02*
X165491351Y-77127499D01*
X146752162Y-99897499D02*
X144878243Y-99897499D01*
X144878243Y-50562500D02*
X144878243Y-48665000D01*
X137382567Y-130257500D02*
X137382567Y-128360000D01*
X150500000Y-139744999D02*
X150500000Y-143539999D01*
X201095810Y-58152500D02*
X201095810Y-61947499D01*
X143004324Y-52459999D02*
X143004324Y-54357499D01*
X172987027Y-130257500D02*
X171113108Y-130257500D01*
X157995675Y-132155000D02*
X156121756Y-132155000D01*
X126139054Y-130257500D02*
X128012972Y-130257500D01*
X129886891Y-69537499D02*
X131760810Y-69537499D01*
X167365270Y-103692499D02*
X167365270Y-101794999D01*
X161743513Y-109384999D02*
X159869594Y-109384999D01*
X90534594Y-109384999D02*
X88660675Y-109384999D01*
X199221891Y-143539999D02*
X195474054Y-143539999D01*
X94282432Y-115077500D02*
X94282432Y-113179999D01*
X189852297Y-82819999D02*
X189852297Y-84717499D01*
X214213243Y-88512499D02*
X214213243Y-86614999D01*
X118643378Y-69537499D02*
X120517297Y-69537499D01*
X86786756Y-90410000D02*
X86786756Y-94204999D01*
X144878243Y-116975000D02*
X143004324Y-116975000D01*
X154247837Y-60049999D02*
X150500000Y-60049999D01*
X128012972Y-94204999D02*
X128012972Y-96102499D01*
X169239189Y-88512499D02*
X169239189Y-86614999D01*
X120517297Y-126462499D02*
X120517297Y-124565000D01*
X208591486Y-77127499D02*
X208591486Y-79024999D01*
X174860945Y-103692499D02*
X174860945Y-101794999D01*
X184230540Y-71434999D02*
X184230540Y-69537499D01*
X157995675Y-58152500D02*
X157995675Y-54357499D01*
X201095810Y-116975000D02*
X201095810Y-120770000D01*
X199221891Y-86614999D02*
X201095810Y-86614999D01*
X161743513Y-88512499D02*
X161743513Y-86614999D01*
X191726216Y-65742499D02*
X191726216Y-60049999D01*
X219835000Y-50562500D02*
X219835000Y-52459999D01*
X159869594Y-105589999D02*
X156121756Y-105589999D01*
X152373918Y-92307499D02*
X152373918Y-94204999D01*
X141130405Y-63844999D02*
X137382567Y-63844999D01*
X92408513Y-84717499D02*
X92408513Y-82819999D01*
X131760810Y-84717499D02*
X129886891Y-84717499D01*
X116769459Y-94204999D02*
X116769459Y-96102499D01*
X141130405Y-67639999D02*
X141130405Y-63844999D01*
X163617432Y-103692499D02*
X163617432Y-101794999D01*
X99904189Y-120770000D02*
X99904189Y-118872500D01*
X96156351Y-90410000D02*
X94282432Y-90410000D01*
X202969729Y-99897499D02*
X202969729Y-97999999D01*
X122391216Y-103692499D02*
X124265135Y-103692499D01*
X143004324Y-69537499D02*
X143004324Y-73332499D01*
X122391216Y-79024999D02*
X124265135Y-79024999D01*
X214213243Y-101794999D02*
X216087162Y-101794999D01*
X94282432Y-122667499D02*
X96156351Y-122667499D01*
X128012972Y-92307499D02*
X126139054Y-92307499D01*
X105525945Y-61947499D02*
X105525945Y-60049999D01*
X172987027Y-109384999D02*
X171113108Y-109384999D01*
X214213243Y-135949999D02*
X212339324Y-135949999D01*
X159869594Y-56254999D02*
X159869594Y-58152500D01*
X107399864Y-86614999D02*
X105525945Y-86614999D01*
X191726216Y-54357499D02*
X191726216Y-48665000D01*
X92408513Y-88512499D02*
X92408513Y-86614999D01*
X139256486Y-126462499D02*
X139256486Y-130257500D01*
X107399864Y-124565000D02*
X105525945Y-124565000D01*
X176734864Y-96102499D02*
X176734864Y-94204999D01*
X88660675Y-52459999D02*
X88660675Y-48665000D01*
X154247837Y-137847500D02*
X152373918Y-137847500D01*
X114895540Y-132155000D02*
X114895540Y-134052500D01*
X212339324Y-103692499D02*
X214213243Y-103692499D01*
X131760810Y-111282499D02*
X131760810Y-115077500D01*
X187978378Y-56254999D02*
X187978378Y-52459999D01*
X120517297Y-137847500D02*
X118643378Y-137847500D01*
X148626081Y-107487499D02*
X150500000Y-107487499D01*
X191726216Y-139744999D02*
X191726216Y-141642500D01*
X129886891Y-67639999D02*
X129886891Y-69537499D01*
X176734864Y-94204999D02*
X178608783Y-94204999D01*
X120517297Y-111282499D02*
X118643378Y-111282499D01*
X163617432Y-65742499D02*
X163617432Y-67639999D01*
X201095810Y-109384999D02*
X197347972Y-109384999D01*
X141130405Y-116975000D02*
X139256486Y-116975000D01*
X148626081Y-145437500D02*
X150500000Y-145437500D01*
X169239189Y-69537499D02*
X171113108Y-69537499D01*
X159869594Y-60049999D02*
X159869594Y-61947499D01*
X107399864Y-135949999D02*
X105525945Y-135949999D01*
X96156351Y-60049999D02*
X94282432Y-60049999D01*
X217961081Y-105589999D02*
X217961081Y-107487499D01*
X206717567Y-105589999D02*
X206717567Y-107487499D01*
X187978378Y-103692499D02*
X187978378Y-101794999D01*
X109273783Y-143539999D02*
X109273783Y-147335000D01*
X120517297Y-139744999D02*
X120517297Y-141642500D01*
X199221891Y-92307499D02*
X199221891Y-90410000D01*
X109273783Y-116975000D02*
X107399864Y-116975000D01*
X163617432Y-82819999D02*
X161743513Y-82819999D01*
X180482702Y-113179999D02*
X180482702Y-116975000D01*
X133634729Y-97999999D02*
X131760810Y-97999999D01*
X154247837Y-90410000D02*
X150500000Y-90410000D01*
X206717567Y-86614999D02*
X208591486Y-86614999D01*
X137382567Y-143539999D02*
X137382567Y-139744999D01*
X159869594Y-147335000D02*
X159869594Y-143539999D01*
X219835000Y-48665000D02*
X217961081Y-48665000D01*
X191726216Y-71434999D02*
X191726216Y-67639999D01*
X178608783Y-107487499D02*
X178608783Y-101794999D01*
X219835000Y-94204999D02*
X219835000Y-99897499D01*
X216087162Y-128360000D02*
X210465405Y-128360000D01*
X90534594Y-92307499D02*
X88660675Y-92307499D01*
X187978378Y-88512499D02*
X187978378Y-86614999D01*
X208591486Y-86614999D02*
X208591486Y-88512499D01*
X105525945Y-126462499D02*
X103652027Y-126462499D01*
X133634729Y-79024999D02*
X133634729Y-77127499D01*
X152373918Y-126462499D02*
X154247837Y-126462499D01*
X174860945Y-88512499D02*
X176734864Y-88512499D01*
X118643378Y-130257500D02*
X124265135Y-130257500D01*
X219750000Y-48580000D02*
X219835000Y-48665000D01*
X120517297Y-86614999D02*
X120517297Y-88512499D01*
X208591486Y-92307499D02*
X206717567Y-92307499D01*
X171113108Y-82819999D02*
X171113108Y-84717499D01*
X126139054Y-105589999D02*
X126139054Y-103692499D01*
X201095810Y-101794999D02*
X199221891Y-101794999D01*
X83038918Y-118872500D02*
X81165000Y-118872500D01*
X143004324Y-79024999D02*
X141130405Y-79024999D01*
X176734864Y-69537499D02*
X178608783Y-69537499D01*
X159869594Y-65742499D02*
X159869594Y-63844999D01*
X193600135Y-97999999D02*
X186104459Y-97999999D01*
X214213243Y-126462499D02*
X216087162Y-126462499D01*
X148626081Y-94204999D02*
X144878243Y-94204999D01*
X172987027Y-115077500D02*
X172987027Y-113179999D01*
X133634729Y-84717499D02*
X133634729Y-80922499D01*
X174860945Y-60049999D02*
X174860945Y-65742499D01*
X176734864Y-90410000D02*
X174860945Y-90410000D01*
X212339324Y-77127499D02*
X210465405Y-77127499D01*
X83038918Y-145437500D02*
X83038918Y-143539999D01*
X120517297Y-109384999D02*
X120517297Y-111282499D01*
X219835000Y-84717499D02*
X217961081Y-84717499D01*
X159869594Y-97999999D02*
X157995675Y-97999999D01*
X94282432Y-88512499D02*
X96156351Y-88512499D01*
X143004324Y-145437500D02*
X143004324Y-147335000D01*
X171113108Y-137847500D02*
X171113108Y-135949999D01*
X156121756Y-137847500D02*
X156121756Y-135949999D01*
X137382567Y-71434999D02*
X137382567Y-73332499D01*
X118643378Y-61947499D02*
X118643378Y-60049999D01*
X124265135Y-58152500D02*
X128012972Y-58152500D01*
X202969729Y-79024999D02*
X202969729Y-77127499D01*
X144878243Y-90410000D02*
X146752162Y-90410000D01*
X154247837Y-65742499D02*
X156121756Y-65742499D01*
X159869594Y-71434999D02*
X156121756Y-71434999D01*
X96156351Y-105589999D02*
X96156351Y-107487499D01*
X92408513Y-147335000D02*
X92408513Y-145437500D01*
D14*
X162250000Y-40750000D02*
X158250000Y-36750000D01*
D13*
X120517297Y-73332499D02*
X120517297Y-75229999D01*
X86786756Y-88512499D02*
X84912837Y-88512499D01*
X90534594Y-48665000D02*
X90534594Y-52459999D01*
X146752162Y-86614999D02*
X146752162Y-88512499D01*
X172987027Y-132155000D02*
X172987027Y-134052500D01*
X126139054Y-115077500D02*
X126139054Y-113179999D01*
X99904189Y-116975000D02*
X99904189Y-115077500D01*
X114895540Y-111282499D02*
X114895540Y-105589999D01*
X217961081Y-58152500D02*
X219835000Y-58152500D01*
X172987027Y-90410000D02*
X171113108Y-90410000D01*
X167365270Y-145437500D02*
X169239189Y-145437500D01*
X186104459Y-65742499D02*
X187978378Y-65742499D01*
X152373918Y-128360000D02*
X152373918Y-126462499D01*
X157995675Y-137847500D02*
X156121756Y-137847500D01*
X96156351Y-48665000D02*
X94282432Y-48665000D01*
X214213243Y-50562500D02*
X216087162Y-50562500D01*
X94282432Y-116975000D02*
X94282432Y-118872500D01*
X114895540Y-97999999D02*
X113021621Y-97999999D01*
X197347972Y-116975000D02*
X197347972Y-118872500D01*
X212339324Y-109384999D02*
X210465405Y-109384999D01*
X90534594Y-88512499D02*
X92408513Y-88512499D01*
X180482702Y-61947499D02*
X180482702Y-60049999D01*
X197347972Y-135949999D02*
X195474054Y-135949999D01*
X169239189Y-107487499D02*
X169239189Y-109384999D01*
X180482702Y-75229999D02*
X178608783Y-75229999D01*
X133634729Y-141642500D02*
X133634729Y-139744999D01*
X152373918Y-132155000D02*
X152373918Y-130257500D01*
X137382567Y-135949999D02*
X135508648Y-135949999D01*
X84912837Y-94204999D02*
X84912837Y-96102499D01*
X189852297Y-52459999D02*
X189852297Y-54357499D01*
X94282432Y-103692499D02*
X96156351Y-103692499D01*
X128012972Y-65742499D02*
X129886891Y-65742499D01*
X135508648Y-94204999D02*
X133634729Y-94204999D01*
X105525945Y-116975000D02*
X99904189Y-116975000D01*
X154247837Y-71434999D02*
X150500000Y-71434999D01*
X126139054Y-75229999D02*
X124265135Y-75229999D01*
X199221891Y-90410000D02*
X197347972Y-90410000D01*
X165491351Y-103692499D02*
X167365270Y-103692499D01*
X172987027Y-120770000D02*
X171113108Y-120770000D01*
X169239189Y-134052500D02*
X171113108Y-134052500D01*
X113021621Y-56254999D02*
X111147702Y-56254999D01*
X139256486Y-139744999D02*
X139256486Y-141642500D01*
X180482702Y-118872500D02*
X180482702Y-122667499D01*
X96156351Y-107487499D02*
X98030270Y-107487499D01*
X157995675Y-67639999D02*
X157995675Y-65742499D01*
X126139054Y-120770000D02*
X122391216Y-120770000D01*
X148626081Y-124565000D02*
X144878243Y-124565000D01*
X197347972Y-113179999D02*
X197347972Y-115077500D01*
X169239189Y-96102499D02*
X169239189Y-94204999D01*
X195474054Y-135949999D02*
X195474054Y-141642500D01*
X214213243Y-139744999D02*
X216087162Y-139744999D01*
X176734864Y-135949999D02*
X172987027Y-135949999D01*
X103652027Y-99897499D02*
X105525945Y-99897499D01*
X152373918Y-139744999D02*
X154247837Y-139744999D01*
X214213243Y-116975000D02*
X212339324Y-116975000D01*
X113021621Y-137847500D02*
X111147702Y-137847500D01*
X120517297Y-75229999D02*
X118643378Y-75229999D01*
X128012972Y-67639999D02*
X124265135Y-67639999D01*
X81165000Y-147335000D02*
X81165000Y-145437500D01*
X171113108Y-63844999D02*
X171113108Y-65742499D01*
X129886891Y-139744999D02*
X131760810Y-139744999D01*
X176734864Y-80922499D02*
X176734864Y-75229999D01*
X146752162Y-79024999D02*
X146752162Y-80922499D01*
X118643378Y-82819999D02*
X116769459Y-82819999D01*
X163617432Y-118872500D02*
X163617432Y-116975000D01*
X187978378Y-107487499D02*
X187978378Y-105589999D01*
X182356621Y-141642500D02*
X182356621Y-139744999D01*
X152373918Y-73332499D02*
X152373918Y-75229999D01*
X214213243Y-92307499D02*
X214213243Y-90410000D01*
X152373918Y-97999999D02*
X150500000Y-97999999D01*
X143004324Y-54357499D02*
X144878243Y-54357499D01*
X146752162Y-50562500D02*
X144878243Y-50562500D01*
X81165000Y-145437500D02*
X83038918Y-145437500D01*
X167365270Y-141642500D02*
X167365270Y-139744999D01*
X137382567Y-99897499D02*
X137382567Y-97999999D01*
X107399864Y-132155000D02*
X103652027Y-132155000D01*
X133634729Y-113179999D02*
X133634729Y-111282499D01*
X150500000Y-67639999D02*
X150500000Y-69537499D01*
X98030270Y-132155000D02*
X96156351Y-132155000D01*
X197347972Y-50562500D02*
X197347972Y-48665000D01*
X81165000Y-84717499D02*
X83038918Y-84717499D01*
X131760810Y-115077500D02*
X129886891Y-115077500D01*
X81165000Y-56254999D02*
X81165000Y-54357499D01*
X118643378Y-80922499D02*
X122391216Y-80922499D01*
X159869594Y-92307499D02*
X161743513Y-92307499D01*
X157995675Y-90410000D02*
X159869594Y-90410000D01*
X109273783Y-63844999D02*
X107399864Y-63844999D01*
X98030270Y-63844999D02*
X98030270Y-67639999D01*
X208591486Y-48665000D02*
X208591486Y-50562500D01*
X159869594Y-130257500D02*
X161743513Y-130257500D01*
X141130405Y-145437500D02*
X143004324Y-145437500D01*
X206717567Y-77127499D02*
X208591486Y-77127499D01*
X219835000Y-58152500D02*
X219835000Y-61947499D01*
X197347972Y-126462499D02*
X197347972Y-124565000D01*
X154247837Y-116975000D02*
X154247837Y-118872500D01*
X197347972Y-92307499D02*
X195474054Y-92307499D01*
X152373918Y-65742499D02*
X152373918Y-67639999D01*
X152373918Y-105589999D02*
X152373918Y-101794999D01*
X120517297Y-50562500D02*
X118643378Y-50562500D01*
X88660675Y-54357499D02*
X90534594Y-54357499D01*
X172987027Y-137847500D02*
X171113108Y-137847500D01*
X120517297Y-143539999D02*
X118643378Y-143539999D01*
X217961081Y-115077500D02*
X219835000Y-115077500D01*
X187978378Y-105589999D02*
X189852297Y-105589999D01*
X165491351Y-113179999D02*
X163617432Y-113179999D01*
X186104459Y-92307499D02*
X184230540Y-92307499D01*
X81165000Y-61947499D02*
X81165000Y-58152500D01*
X129886891Y-65742499D02*
X129886891Y-63844999D01*
X214213243Y-124565000D02*
X214213243Y-126462499D01*
X150500000Y-56254999D02*
X150500000Y-58152500D01*
X126139054Y-82819999D02*
X124265135Y-82819999D01*
X204843648Y-97999999D02*
X204843648Y-99897499D01*
X199221891Y-94204999D02*
X201095810Y-94204999D01*
X124265135Y-60049999D02*
X124265135Y-65742499D01*
X216087162Y-56254999D02*
X214213243Y-56254999D01*
X154247837Y-120770000D02*
X154247837Y-122667499D01*
X98030270Y-130257500D02*
X98030270Y-132155000D01*
X98030270Y-109384999D02*
X92408513Y-109384999D01*
X195474054Y-69537499D02*
X197347972Y-69537499D01*
X131760810Y-143539999D02*
X128012972Y-143539999D01*
X199221891Y-128360000D02*
X199221891Y-130257500D01*
X219835000Y-111282499D02*
X219835000Y-113179999D01*
X182356621Y-92307499D02*
X180482702Y-92307499D01*
X137382567Y-107487499D02*
X139256486Y-107487499D01*
X216087162Y-134052500D02*
X216087162Y-132155000D01*
X199221891Y-65742499D02*
X199221891Y-63844999D01*
X193600135Y-48665000D02*
X193600135Y-58152500D01*
X197347972Y-86614999D02*
X197347972Y-88512499D01*
X99904189Y-90410000D02*
X98030270Y-90410000D01*
X217961081Y-48665000D02*
X217961081Y-50562500D01*
X146752162Y-54357499D02*
X148626081Y-54357499D01*
X103652027Y-61947499D02*
X105525945Y-61947499D01*
X141130405Y-75229999D02*
X137382567Y-75229999D01*
X90534594Y-75229999D02*
X88660675Y-75229999D01*
X98030270Y-82819999D02*
X98030270Y-88512499D01*
X94282432Y-75229999D02*
X92408513Y-75229999D01*
X191726216Y-103692499D02*
X193600135Y-103692499D01*
X189852297Y-94204999D02*
X189852297Y-96102499D01*
X172987027Y-126462499D02*
X172987027Y-130257500D01*
X174860945Y-122667499D02*
X178608783Y-122667499D01*
X105525945Y-115077500D02*
X105525945Y-116975000D01*
X81165000Y-115077500D02*
X83038918Y-115077500D01*
X178608783Y-126462499D02*
X180482702Y-126462499D01*
X141130405Y-103692499D02*
X141130405Y-97999999D01*
X214213243Y-97999999D02*
X212339324Y-97999999D01*
X133634729Y-111282499D02*
X139256486Y-111282499D01*
X133634729Y-139744999D02*
X135508648Y-139744999D01*
X210465405Y-134052500D02*
X210465405Y-130257500D01*
X90534594Y-90410000D02*
X90534594Y-92307499D01*
X131760810Y-61947499D02*
X129886891Y-61947499D01*
X118643378Y-86614999D02*
X120517297Y-86614999D01*
X184230540Y-128360000D02*
X182356621Y-128360000D01*
X165491351Y-86614999D02*
X167365270Y-86614999D01*
X161743513Y-135949999D02*
X161743513Y-141642500D01*
X99904189Y-103692499D02*
X99904189Y-99897499D01*
X148626081Y-118872500D02*
X148626081Y-116975000D01*
X212339324Y-80922499D02*
X214213243Y-80922499D01*
X137382567Y-58152500D02*
X137382567Y-56254999D01*
X146752162Y-113179999D02*
X144878243Y-113179999D01*
X171113108Y-96102499D02*
X172987027Y-96102499D01*
X137382567Y-132155000D02*
X139256486Y-132155000D01*
X186104459Y-79024999D02*
X184230540Y-79024999D01*
X133634729Y-134052500D02*
X133634729Y-132155000D01*
X144878243Y-139744999D02*
X144878243Y-141642500D01*
X141130405Y-69537499D02*
X143004324Y-69537499D01*
X86786756Y-99897499D02*
X84912837Y-99897499D01*
X143004324Y-97999999D02*
X143004324Y-103692499D01*
X214213243Y-69537499D02*
X216087162Y-69537499D01*
X154247837Y-63844999D02*
X154247837Y-60049999D01*
X126139054Y-128360000D02*
X126139054Y-124565000D01*
X141130405Y-50562500D02*
X141130405Y-48665000D01*
X189852297Y-92307499D02*
X187978378Y-92307499D01*
X163617432Y-71434999D02*
X161743513Y-71434999D01*
X210465405Y-137847500D02*
X210465405Y-135949999D01*
X113021621Y-135949999D02*
X113021621Y-137847500D01*
X124265135Y-118872500D02*
X126139054Y-118872500D01*
X195474054Y-90410000D02*
X193600135Y-90410000D01*
X208591486Y-63844999D02*
X208591486Y-65742499D01*
X101778108Y-60049999D02*
X101778108Y-61947499D01*
X178608783Y-145437500D02*
X180482702Y-145437500D01*
X204843648Y-137847500D02*
X204843648Y-135949999D01*
X180482702Y-86614999D02*
X182356621Y-86614999D01*
X195474054Y-80922499D02*
X195474054Y-75229999D01*
X159869594Y-63844999D02*
X157995675Y-63844999D01*
X129886891Y-126462499D02*
X129886891Y-124565000D01*
X171113108Y-99897499D02*
X172987027Y-99897499D01*
X157995675Y-52459999D02*
X157995675Y-50562500D01*
X90534594Y-52459999D02*
X88660675Y-52459999D01*
X148626081Y-56254999D02*
X146752162Y-56254999D01*
X143004324Y-67639999D02*
X141130405Y-67639999D01*
X105525945Y-135949999D02*
X105525945Y-137847500D01*
X128012972Y-96102499D02*
X129886891Y-96102499D01*
X133634729Y-60049999D02*
X133634729Y-56254999D01*
X83038918Y-122667499D02*
X84912837Y-122667499D01*
X143004324Y-122667499D02*
X144878243Y-122667499D01*
X199221891Y-77127499D02*
X199221891Y-75229999D01*
X144878243Y-141642500D02*
X148626081Y-141642500D01*
X199221891Y-79024999D02*
X201095810Y-79024999D01*
X84912837Y-67639999D02*
X84912837Y-69537499D01*
X144878243Y-71434999D02*
X144878243Y-67639999D01*
X128012972Y-63844999D02*
X128012972Y-65742499D01*
X124265135Y-77127499D02*
X122391216Y-77127499D01*
X111147702Y-56254999D02*
X111147702Y-58152500D01*
X92408513Y-82819999D02*
X90534594Y-82819999D01*
X208591486Y-82819999D02*
X208591486Y-84717499D01*
X176734864Y-60049999D02*
X174860945Y-60049999D01*
X118643378Y-128360000D02*
X118643378Y-126462499D01*
X197347972Y-107487499D02*
X197347972Y-105589999D01*
X86786756Y-116975000D02*
X86786756Y-118872500D01*
X184230540Y-77127499D02*
X186104459Y-77127499D01*
X133634729Y-94204999D02*
X133634729Y-92307499D01*
X201095810Y-63844999D02*
X201095810Y-67639999D01*
X189852297Y-69537499D02*
X189852297Y-71434999D01*
X199221891Y-80922499D02*
X199221891Y-79024999D01*
X144878243Y-67639999D02*
X146752162Y-67639999D01*
X139256486Y-79024999D02*
X137382567Y-79024999D01*
X169239189Y-124565000D02*
X169239189Y-126462499D01*
X189852297Y-99897499D02*
X189852297Y-103692499D01*
X99904189Y-128360000D02*
X99904189Y-124565000D01*
X139256486Y-67639999D02*
X133634729Y-67639999D01*
X191726216Y-60049999D02*
X189852297Y-60049999D01*
X171113108Y-52459999D02*
X171113108Y-54357499D01*
X156121756Y-113179999D02*
X156121756Y-115077500D01*
X191726216Y-145437500D02*
X191726216Y-147335000D01*
X90534594Y-94204999D02*
X90534594Y-96102499D01*
X171113108Y-84717499D02*
X169239189Y-84717499D01*
X99904189Y-69537499D02*
X101778108Y-69537499D01*
X212339324Y-58152500D02*
X216087162Y-58152500D01*
X157995675Y-97999999D02*
X157995675Y-99897499D01*
X124265135Y-90410000D02*
X124265135Y-96102499D01*
X187978378Y-109384999D02*
X186104459Y-109384999D01*
X101778108Y-61947499D02*
X99904189Y-61947499D01*
X146752162Y-115077500D02*
X146752162Y-113179999D01*
X128012972Y-109384999D02*
X128012972Y-111282499D01*
X199221891Y-56254999D02*
X199221891Y-58152500D01*
X105525945Y-130257500D02*
X107399864Y-130257500D01*
X159869594Y-79024999D02*
X157995675Y-79024999D01*
X176734864Y-141642500D02*
X176734864Y-139744999D01*
X186104459Y-137847500D02*
X186104459Y-134052500D01*
X83038918Y-67639999D02*
X81165000Y-67639999D01*
X120517297Y-69537499D02*
X120517297Y-71434999D01*
X212339324Y-115077500D02*
X216087162Y-115077500D01*
X113021621Y-94204999D02*
X109273783Y-94204999D01*
X169239189Y-135949999D02*
X169239189Y-137847500D01*
X171113108Y-90410000D02*
X171113108Y-92307499D01*
X169239189Y-90410000D02*
X167365270Y-90410000D01*
X135508648Y-134052500D02*
X137382567Y-134052500D01*
X103652027Y-69537499D02*
X105525945Y-69537499D01*
X103652027Y-120770000D02*
X103652027Y-122667499D01*
X84912837Y-61947499D02*
X84912837Y-60049999D01*
X195474054Y-109384999D02*
X189852297Y-109384999D01*
X169239189Y-77127499D02*
X171113108Y-77127499D01*
X146752162Y-92307499D02*
X148626081Y-92307499D01*
X101778108Y-107487499D02*
X103652027Y-107487499D01*
X144878243Y-124565000D02*
X144878243Y-126462499D01*
X180482702Y-96102499D02*
X180482702Y-94204999D01*
X208591486Y-50562500D02*
X206717567Y-50562500D01*
X189852297Y-54357499D02*
X191726216Y-54357499D01*
X202969729Y-52459999D02*
X202969729Y-48665000D01*
X129886891Y-101794999D02*
X129886891Y-97999999D01*
X137382567Y-56254999D02*
X139256486Y-56254999D01*
X195474054Y-124565000D02*
X195474054Y-128360000D01*
X88660675Y-77127499D02*
X90534594Y-77127499D01*
X182356621Y-109384999D02*
X182356621Y-107487499D01*
X141130405Y-52459999D02*
X143004324Y-52459999D01*
X88660675Y-75229999D02*
X88660675Y-73332499D01*
X216087162Y-137847500D02*
X214213243Y-137847500D01*
X96156351Y-61947499D02*
X96156351Y-60049999D01*
X202969729Y-137847500D02*
X201095810Y-137847500D01*
X139256486Y-69537499D02*
X139256486Y-71434999D01*
X137382567Y-82819999D02*
X135508648Y-82819999D01*
X124265135Y-126462499D02*
X124265135Y-128360000D01*
X189852297Y-90410000D02*
X189852297Y-92307499D01*
X105525945Y-75229999D02*
X105525945Y-77127499D01*
X84912837Y-65742499D02*
X84912837Y-63844999D01*
X146752162Y-101794999D02*
X146752162Y-103692499D01*
X126139054Y-94204999D02*
X128012972Y-94204999D01*
X159869594Y-61947499D02*
X161743513Y-61947499D01*
X98030270Y-48665000D02*
X98030270Y-50562500D01*
X193600135Y-113179999D02*
X193600135Y-115077500D01*
X202969729Y-101794999D02*
X204843648Y-101794999D01*
X219835000Y-63844999D02*
X219835000Y-67639999D01*
X210465405Y-141642500D02*
X210465405Y-139744999D01*
X99904189Y-88512499D02*
X99904189Y-86614999D01*
X165491351Y-126462499D02*
X163617432Y-126462499D01*
X178608783Y-90410000D02*
X178608783Y-92307499D01*
X84912837Y-137847500D02*
X84912837Y-135949999D01*
X139256486Y-60049999D02*
X137382567Y-60049999D01*
X96156351Y-135949999D02*
X94282432Y-135949999D01*
X195474054Y-99897499D02*
X197347972Y-99897499D01*
X98030270Y-118872500D02*
X96156351Y-118872500D01*
X81165000Y-101794999D02*
X83038918Y-101794999D01*
X199221891Y-118872500D02*
X199221891Y-116975000D01*
X146752162Y-63844999D02*
X146752162Y-65742499D01*
X176734864Y-56254999D02*
X176734864Y-54357499D01*
X84912837Y-88512499D02*
X84912837Y-86614999D01*
X81165000Y-77127499D02*
X83038918Y-77127499D01*
X219835000Y-77127499D02*
X217961081Y-77127499D01*
X174860945Y-137847500D02*
X176734864Y-137847500D01*
X165491351Y-130257500D02*
X167365270Y-130257500D01*
X154247837Y-48665000D02*
X150500000Y-48665000D01*
X131760810Y-126462499D02*
X129886891Y-126462499D01*
X202969729Y-107487499D02*
X204843648Y-107487499D01*
X131760810Y-96102499D02*
X135508648Y-96102499D01*
X156121756Y-99897499D02*
X156121756Y-97999999D01*
X178608783Y-80922499D02*
X180482702Y-80922499D01*
X204843648Y-143539999D02*
X204843648Y-139744999D01*
X219835000Y-134052500D02*
X219835000Y-137847500D01*
X111147702Y-111282499D02*
X111147702Y-109384999D01*
X189852297Y-105589999D02*
X189852297Y-107487499D01*
X116769459Y-99897499D02*
X120517297Y-99897499D01*
X187978378Y-80922499D02*
X191726216Y-80922499D01*
X157995675Y-118872500D02*
X156121756Y-118872500D01*
X124265135Y-139744999D02*
X124265135Y-141642500D01*
X146752162Y-97999999D02*
X146752162Y-99897499D01*
X191726216Y-67639999D02*
X187978378Y-67639999D01*
X129886891Y-145437500D02*
X131760810Y-145437500D01*
X187978378Y-52459999D02*
X189852297Y-52459999D01*
X202969729Y-67639999D02*
X202969729Y-63844999D01*
X92408513Y-116975000D02*
X90534594Y-116975000D01*
X172987027Y-67639999D02*
X169239189Y-67639999D01*
X83038918Y-113179999D02*
X81165000Y-113179999D01*
X92408513Y-50562500D02*
X92408513Y-48665000D01*
X111147702Y-60049999D02*
X107399864Y-60049999D01*
X103652027Y-77127499D02*
X103652027Y-73332499D01*
X99904189Y-54357499D02*
X99904189Y-52459999D01*
X204843648Y-105589999D02*
X202969729Y-105589999D01*
X90534594Y-122667499D02*
X92408513Y-122667499D01*
X206717567Y-139744999D02*
X206717567Y-141642500D01*
X101778108Y-86614999D02*
X101778108Y-92307499D01*
X150500000Y-86614999D02*
X150500000Y-88512499D01*
X139256486Y-135949999D02*
X139256486Y-137847500D01*
X92408513Y-101794999D02*
X94282432Y-101794999D01*
X109273783Y-124565000D02*
X109273783Y-134052500D01*
X172987027Y-134052500D02*
X174860945Y-134052500D01*
X135508648Y-61947499D02*
X135508648Y-60049999D01*
X216087162Y-115077500D02*
X216087162Y-113179999D01*
X171113108Y-143539999D02*
X171113108Y-139744999D01*
X165491351Y-145437500D02*
X165491351Y-143539999D01*
X201095810Y-73332499D02*
X201095810Y-77127499D01*
X126139054Y-99897499D02*
X128012972Y-99897499D01*
X94282432Y-50562500D02*
X92408513Y-50562500D01*
X157995675Y-109384999D02*
X152373918Y-109384999D01*
X202969729Y-124565000D02*
X202969729Y-126462499D01*
X141130405Y-90410000D02*
X141130405Y-80922499D01*
X133634729Y-107487499D02*
X135508648Y-107487499D01*
X152373918Y-111282499D02*
X157995675Y-111282499D01*
X114895540Y-139744999D02*
X116769459Y-139744999D01*
X98030270Y-79024999D02*
X96156351Y-79024999D01*
X81165000Y-54357499D02*
X86786756Y-54357499D01*
X178608783Y-61947499D02*
X176734864Y-61947499D01*
X86786756Y-54357499D02*
X86786756Y-56254999D01*
X92408513Y-90410000D02*
X90534594Y-90410000D01*
X206717567Y-52459999D02*
X208591486Y-52459999D01*
X210465405Y-128360000D02*
X210465405Y-126462499D01*
X161743513Y-86614999D02*
X159869594Y-86614999D01*
X92408513Y-111282499D02*
X98030270Y-111282499D01*
X161743513Y-141642500D02*
X163617432Y-141642500D01*
X178608783Y-124565000D02*
X178608783Y-126462499D01*
X88660675Y-65742499D02*
X88660675Y-60049999D01*
X118643378Y-52459999D02*
X120517297Y-52459999D01*
X144878243Y-48665000D02*
X143004324Y-48665000D01*
X199221891Y-88512499D02*
X199221891Y-86614999D01*
X217961081Y-92307499D02*
X217961081Y-90410000D01*
X159869594Y-103692499D02*
X159869594Y-97999999D01*
X186104459Y-143539999D02*
X186104459Y-139744999D01*
X208591486Y-103692499D02*
X210465405Y-103692499D01*
X128012972Y-60049999D02*
X128012972Y-61947499D01*
X92408513Y-135949999D02*
X90534594Y-135949999D01*
X161743513Y-69537499D02*
X163617432Y-69537499D01*
X186104459Y-90410000D02*
X186104459Y-92307499D01*
X154247837Y-113179999D02*
X152373918Y-113179999D01*
X113021621Y-118872500D02*
X114895540Y-118872500D01*
X217961081Y-103692499D02*
X217961081Y-101794999D01*
X88660675Y-105589999D02*
X84912837Y-105589999D01*
X126139054Y-135949999D02*
X124265135Y-135949999D01*
X113021621Y-97999999D02*
X113021621Y-99897499D01*
X212339324Y-147335000D02*
X212339324Y-143539999D01*
X141130405Y-105589999D02*
X137382567Y-105589999D01*
X120517297Y-94204999D02*
X120517297Y-96102499D01*
X167365270Y-101794999D02*
X169239189Y-101794999D01*
X217961081Y-120770000D02*
X219835000Y-120770000D01*
X84912837Y-69537499D02*
X86786756Y-69537499D01*
X167365270Y-86614999D02*
X167365270Y-88512499D01*
X169239189Y-139744999D02*
X169239189Y-143539999D01*
X83038918Y-120770000D02*
X83038918Y-122667499D01*
X107399864Y-134052500D02*
X107399864Y-132155000D01*
X206717567Y-90410000D02*
X204843648Y-90410000D01*
X135508648Y-147335000D02*
X129886891Y-147335000D01*
X195474054Y-122667499D02*
X195474054Y-120770000D01*
X146752162Y-103692499D02*
X148626081Y-103692499D01*
X195474054Y-84717499D02*
X195474054Y-82819999D01*
X105525945Y-54357499D02*
X105525945Y-58152500D01*
X204843648Y-128360000D02*
X202969729Y-128360000D01*
X94282432Y-120770000D02*
X94282432Y-122667499D01*
X118643378Y-84717499D02*
X118643378Y-82819999D01*
X88660675Y-130257500D02*
X88660675Y-124565000D01*
X84912837Y-101794999D02*
X86786756Y-101794999D01*
X178608783Y-139744999D02*
X178608783Y-141642500D01*
X83038918Y-130257500D02*
X83038918Y-134052500D01*
X159869594Y-84717499D02*
X159869594Y-82819999D01*
X150500000Y-84717499D02*
X152373918Y-84717499D01*
X184230540Y-103692499D02*
X184230540Y-101794999D01*
X86786756Y-61947499D02*
X84912837Y-61947499D01*
X184230540Y-137847500D02*
X182356621Y-137847500D01*
X197347972Y-122667499D02*
X202969729Y-122667499D01*
X83038918Y-139744999D02*
X83038918Y-141642500D01*
X124265135Y-48665000D02*
X124265135Y-58152500D01*
X109273783Y-92307499D02*
X111147702Y-92307499D01*
X156121756Y-52459999D02*
X154247837Y-52459999D01*
X88660675Y-84717499D02*
X88660675Y-82819999D01*
X184230540Y-107487499D02*
X184230540Y-105589999D01*
X201095810Y-103692499D02*
X201095810Y-105589999D01*
X111147702Y-86614999D02*
X109273783Y-86614999D01*
X172987027Y-145437500D02*
X172987027Y-143539999D01*
X144878243Y-135949999D02*
X144878243Y-137847500D01*
X186104459Y-97999999D02*
X186104459Y-99897499D01*
X143004324Y-50562500D02*
X141130405Y-50562500D01*
X156121756Y-143539999D02*
X156121756Y-145437500D01*
X141130405Y-115077500D02*
X141130405Y-111282499D01*
X163617432Y-145437500D02*
X165491351Y-145437500D01*
X157995675Y-107487499D02*
X157995675Y-109384999D01*
X187978378Y-60049999D02*
X186104459Y-60049999D01*
X178608783Y-97999999D02*
X174860945Y-97999999D01*
X174860945Y-113179999D02*
X174860945Y-115077500D01*
X210465405Y-82819999D02*
X208591486Y-82819999D01*
X212339324Y-130257500D02*
X212339324Y-134052500D01*
X182356621Y-52459999D02*
X176734864Y-52459999D01*
X167365270Y-137847500D02*
X167365270Y-135949999D01*
X131760810Y-139744999D02*
X131760810Y-141642500D01*
X156121756Y-139744999D02*
X157995675Y-139744999D01*
X116769459Y-96102499D02*
X118643378Y-96102499D01*
X103652027Y-128360000D02*
X105525945Y-128360000D01*
X141130405Y-61947499D02*
X141130405Y-60049999D01*
X81165000Y-105589999D02*
X81165000Y-101794999D01*
X195474054Y-143539999D02*
X195474054Y-147335000D01*
X219835000Y-71434999D02*
X214213243Y-71434999D01*
X137382567Y-90410000D02*
X137382567Y-92307499D01*
X139256486Y-94204999D02*
X137382567Y-94204999D01*
X111147702Y-109384999D02*
X113021621Y-109384999D01*
X131760810Y-105589999D02*
X129886891Y-105589999D01*
X174860945Y-101794999D02*
X172987027Y-101794999D01*
X116769459Y-116975000D02*
X116769459Y-122667499D01*
X171113108Y-73332499D02*
X171113108Y-75229999D01*
X156121756Y-92307499D02*
X154247837Y-92307499D01*
X94282432Y-113179999D02*
X92408513Y-113179999D01*
X174860945Y-71434999D02*
X172987027Y-71434999D01*
X214213243Y-132155000D02*
X214213243Y-130257500D01*
X178608783Y-67639999D02*
X174860945Y-67639999D01*
X184230540Y-134052500D02*
X184230540Y-137847500D01*
X103652027Y-90410000D02*
X105525945Y-90410000D01*
X206717567Y-82819999D02*
X204843648Y-82819999D01*
X143004324Y-103692499D02*
X144878243Y-103692499D01*
X219835000Y-105589999D02*
X217961081Y-105589999D01*
X113021621Y-111282499D02*
X114895540Y-111282499D01*
X197347972Y-75229999D02*
X197347972Y-80922499D01*
X83038918Y-124565000D02*
X83038918Y-128360000D01*
X98030270Y-61947499D02*
X96156351Y-61947499D01*
X141130405Y-48665000D02*
X137382567Y-48665000D01*
X199221891Y-113179999D02*
X197347972Y-113179999D01*
X161743513Y-92307499D02*
X161743513Y-90410000D01*
X148626081Y-120770000D02*
X150500000Y-120770000D01*
X141130405Y-79024999D02*
X141130405Y-75229999D01*
X141130405Y-130257500D02*
X143004324Y-130257500D01*
X143004324Y-139744999D02*
X141130405Y-139744999D01*
X180482702Y-65742499D02*
X180482702Y-63844999D01*
X167365270Y-134052500D02*
X167365270Y-132155000D01*
X202969729Y-118872500D02*
X202969729Y-115077500D01*
X146752162Y-65742499D02*
X144878243Y-65742499D01*
X86786756Y-56254999D02*
X84912837Y-56254999D01*
X150500000Y-79024999D02*
X150500000Y-80922499D01*
X202969729Y-147335000D02*
X197347972Y-147335000D01*
X163617432Y-120770000D02*
X165491351Y-120770000D01*
X84912837Y-139744999D02*
X86786756Y-139744999D01*
X189852297Y-61947499D02*
X187978378Y-61947499D01*
X210465405Y-122667499D02*
X210465405Y-116975000D01*
X118643378Y-48665000D02*
X116769459Y-48665000D01*
X150500000Y-147335000D02*
X144878243Y-147335000D01*
X141130405Y-109384999D02*
X141130405Y-105589999D01*
X94282432Y-48665000D02*
X94282432Y-50562500D01*
X83038918Y-63844999D02*
X83038918Y-65742499D01*
X94282432Y-63844999D02*
X94282432Y-65742499D01*
X167365270Y-130257500D02*
X167365270Y-124565000D01*
X124265135Y-103692499D02*
X124265135Y-107487499D01*
X83038918Y-128360000D02*
X81165000Y-128360000D01*
X184230540Y-96102499D02*
X184230540Y-94204999D01*
X156121756Y-115077500D02*
X159869594Y-115077500D01*
X98030270Y-99897499D02*
X96156351Y-99897499D01*
X92408513Y-113179999D02*
X92408513Y-111282499D01*
X202969729Y-96102499D02*
X202969729Y-94204999D01*
X141130405Y-122667499D02*
X141130405Y-116975000D01*
X111147702Y-107487499D02*
X111147702Y-105589999D01*
X201095810Y-139744999D02*
X202969729Y-139744999D01*
X217961081Y-50562500D02*
X219835000Y-50562500D01*
X96156351Y-67639999D02*
X96156351Y-69537499D01*
X167365270Y-63844999D02*
X167365270Y-65742499D01*
X92408513Y-77127499D02*
X94282432Y-77127499D01*
X109273783Y-86614999D02*
X109273783Y-88512499D01*
X186104459Y-58152500D02*
X191726216Y-58152500D01*
X184230540Y-99897499D02*
X184230540Y-97999999D01*
X216087162Y-141642500D02*
X217961081Y-141642500D01*
X195474054Y-60049999D02*
X193600135Y-60049999D01*
X111147702Y-132155000D02*
X111147702Y-130257500D01*
X118643378Y-139744999D02*
X120517297Y-139744999D01*
X126139054Y-124565000D02*
X122391216Y-124565000D01*
X174860945Y-111282499D02*
X178608783Y-111282499D01*
X86786756Y-118872500D02*
X84912837Y-118872500D01*
X137382567Y-101794999D02*
X139256486Y-101794999D01*
X214213243Y-109384999D02*
X214213243Y-107487499D01*
X152373918Y-54357499D02*
X152373918Y-56254999D01*
X216087162Y-48665000D02*
X212339324Y-48665000D01*
X184230540Y-67639999D02*
X184230540Y-63844999D01*
X210465405Y-111282499D02*
X212339324Y-111282499D01*
X90534594Y-65742499D02*
X92408513Y-65742499D01*
X96156351Y-77127499D02*
X98030270Y-77127499D01*
X126139054Y-80922499D02*
X126139054Y-75229999D01*
X103652027Y-97999999D02*
X103652027Y-99897499D01*
X169239189Y-80922499D02*
X172987027Y-80922499D01*
X98030270Y-147335000D02*
X92408513Y-147335000D01*
X111147702Y-88512499D02*
X111147702Y-86614999D01*
X204843648Y-80922499D02*
X204843648Y-79024999D01*
X131760810Y-86614999D02*
X131760810Y-92307499D01*
X96156351Y-63844999D02*
X98030270Y-63844999D01*
X94282432Y-101794999D02*
X94282432Y-103692499D01*
X109273783Y-94204999D02*
X109273783Y-96102499D01*
X139256486Y-107487499D02*
X139256486Y-109384999D01*
X187978378Y-126462499D02*
X187978378Y-124565000D01*
X216087162Y-126462499D02*
X216087162Y-128360000D01*
X195474054Y-147335000D02*
X193600135Y-147335000D01*
X90534594Y-124565000D02*
X90534594Y-134052500D01*
X126139054Y-52459999D02*
X126139054Y-50562500D01*
X154247837Y-107487499D02*
X154247837Y-105589999D01*
X204843648Y-107487499D02*
X204843648Y-105589999D01*
X98030270Y-90410000D02*
X98030270Y-96102499D01*
X118643378Y-137847500D02*
X118643378Y-134052500D01*
X157995675Y-63844999D02*
X157995675Y-60049999D01*
X116769459Y-75229999D02*
X114895540Y-75229999D01*
X195474054Y-134052500D02*
X201095810Y-134052500D01*
X99904189Y-147335000D02*
X99904189Y-145437500D01*
X83038918Y-94204999D02*
X81165000Y-94204999D01*
X189852297Y-124565000D02*
X189852297Y-126462499D01*
X217961081Y-94204999D02*
X219835000Y-94204999D01*
X92408513Y-120770000D02*
X94282432Y-120770000D01*
X133634729Y-92307499D02*
X135508648Y-92307499D01*
X84912837Y-82819999D02*
X84912837Y-84717499D01*
X107399864Y-71434999D02*
X107399864Y-69537499D01*
X150500000Y-128360000D02*
X148626081Y-128360000D01*
X135508648Y-124565000D02*
X135508648Y-126462499D01*
X83038918Y-48665000D02*
X81165000Y-48665000D01*
X176734864Y-118872500D02*
X176734864Y-120770000D01*
X171113108Y-132155000D02*
X172987027Y-132155000D01*
X131760810Y-52459999D02*
X126139054Y-52459999D01*
X90534594Y-60049999D02*
X90534594Y-65742499D01*
X171113108Y-94204999D02*
X171113108Y-96102499D01*
X154247837Y-126462499D02*
X154247837Y-124565000D01*
X116769459Y-90410000D02*
X116769459Y-92307499D01*
X143004324Y-56254999D02*
X143004324Y-58152500D01*
X107399864Y-101794999D02*
X109273783Y-101794999D01*
X128012972Y-147335000D02*
X126139054Y-147335000D01*
X169239189Y-143539999D02*
X167365270Y-143539999D01*
X212339324Y-105589999D02*
X212339324Y-109384999D01*
X219835000Y-61947499D02*
X217961081Y-61947499D01*
X159869594Y-111282499D02*
X161743513Y-111282499D01*
X187978378Y-122667499D02*
X187978378Y-120770000D01*
X210465405Y-60049999D02*
X208591486Y-60049999D01*
X86786756Y-52459999D02*
X81165000Y-52459999D01*
X84912837Y-84717499D02*
X86786756Y-84717499D01*
X165491351Y-97999999D02*
X165491351Y-99897499D01*
X165491351Y-77127499D02*
X167365270Y-77127499D01*
X118643378Y-109384999D02*
X116769459Y-109384999D01*
X165491351Y-84717499D02*
X165491351Y-80922499D01*
X152373918Y-107487499D02*
X154247837Y-107487499D01*
X113021621Y-84717499D02*
X113021621Y-88512499D01*
X150500000Y-118872500D02*
X148626081Y-118872500D01*
X176734864Y-88512499D02*
X176734864Y-86614999D01*
X202969729Y-71434999D02*
X202969729Y-69537499D01*
X131760810Y-56254999D02*
X129886891Y-56254999D01*
X152373918Y-124565000D02*
X152373918Y-120770000D01*
X135508648Y-65742499D02*
X135508648Y-63844999D01*
X193600135Y-58152500D02*
X197347972Y-58152500D01*
X176734864Y-86614999D02*
X178608783Y-86614999D01*
X201095810Y-71434999D02*
X195474054Y-71434999D01*
X96156351Y-101794999D02*
X98030270Y-101794999D01*
X81165000Y-90410000D02*
X83038918Y-90410000D01*
X219835000Y-52459999D02*
X214213243Y-52459999D01*
X128012972Y-90410000D02*
X128012972Y-92307499D01*
X219835000Y-137847500D02*
X217961081Y-137847500D01*
X197347972Y-111282499D02*
X201095810Y-111282499D01*
X212339324Y-71434999D02*
X210465405Y-71434999D01*
X126139054Y-50562500D02*
X128012972Y-50562500D01*
X212339324Y-65742499D02*
X214213243Y-65742499D01*
X204843648Y-54357499D02*
X204843648Y-58152500D01*
X217961081Y-77127499D02*
X217961081Y-75229999D01*
X178608783Y-48665000D02*
X174860945Y-48665000D01*
X120517297Y-84717499D02*
X118643378Y-84717499D01*
X197347972Y-141642500D02*
X197347972Y-139744999D01*
X186104459Y-115077500D02*
X187978378Y-115077500D01*
X212339324Y-96102499D02*
X214213243Y-96102499D01*
X159869594Y-58152500D02*
X157995675Y-58152500D01*
X131760810Y-63844999D02*
X131760810Y-67639999D01*
X184230540Y-124565000D02*
X184230540Y-128360000D01*
X157995675Y-88512499D02*
X157995675Y-84717499D01*
X172987027Y-54357499D02*
X172987027Y-48665000D01*
X178608783Y-88512499D02*
X180482702Y-88512499D01*
X88660675Y-143539999D02*
X84912837Y-143539999D01*
X206717567Y-67639999D02*
X206717567Y-69537499D01*
X193600135Y-82819999D02*
X193600135Y-88512499D01*
X107399864Y-48665000D02*
X107399864Y-50562500D01*
X176734864Y-147335000D02*
X171113108Y-147335000D01*
X146752162Y-48665000D02*
X146752162Y-50562500D01*
X84912837Y-124565000D02*
X83038918Y-124565000D01*
X135508648Y-126462499D02*
X139256486Y-126462499D01*
X187978378Y-75229999D02*
X187978378Y-77127499D01*
X157995675Y-99897499D02*
X156121756Y-99897499D01*
X163617432Y-80922499D02*
X163617432Y-82819999D01*
X111147702Y-126462499D02*
X113021621Y-126462499D01*
X107399864Y-130257500D02*
X107399864Y-124565000D01*
X154247837Y-99897499D02*
X152373918Y-99897499D01*
X187978378Y-101794999D02*
X186104459Y-101794999D01*
X129886891Y-132155000D02*
X129886891Y-128360000D01*
X143004324Y-126462499D02*
X143004324Y-124565000D01*
X193600135Y-147335000D02*
X193600135Y-143539999D01*
X105525945Y-99897499D02*
X105525945Y-103692499D01*
X176734864Y-115077500D02*
X176734864Y-116975000D01*
X107399864Y-111282499D02*
X107399864Y-109384999D01*
X137382567Y-52459999D02*
X135508648Y-52459999D01*
X191726216Y-79024999D02*
X193600135Y-79024999D01*
X165491351Y-94204999D02*
X167365270Y-94204999D01*
X216087162Y-116975000D02*
X216087162Y-118872500D01*
X178608783Y-113179999D02*
X174860945Y-113179999D01*
X156121756Y-122667499D02*
X156121756Y-120770000D01*
X150500000Y-71434999D02*
X150500000Y-73332499D01*
X161743513Y-130257500D02*
X161743513Y-134052500D01*
X219835000Y-99897499D02*
X217961081Y-99897499D01*
X135508648Y-71434999D02*
X133634729Y-71434999D01*
X109273783Y-67639999D02*
X103652027Y-67639999D01*
X109273783Y-61947499D02*
X109273783Y-63844999D01*
X122391216Y-56254999D02*
X118643378Y-56254999D01*
X94282432Y-132155000D02*
X92408513Y-132155000D01*
X129886891Y-128360000D02*
X131760810Y-128360000D01*
X202969729Y-128360000D02*
X202969729Y-130257500D01*
X186104459Y-77127499D02*
X186104459Y-75229999D01*
X114895540Y-143539999D02*
X114895540Y-145437500D01*
X118643378Y-111282499D02*
X118643378Y-109384999D01*
X114895540Y-126462499D02*
X116769459Y-126462499D01*
X143004324Y-48665000D02*
X143004324Y-50562500D01*
X189852297Y-118872500D02*
X187978378Y-118872500D01*
X144878243Y-54357499D02*
X144878243Y-52459999D01*
X81165000Y-79024999D02*
X81165000Y-77127499D01*
X154247837Y-145437500D02*
X154247837Y-143539999D01*
X197347972Y-99897499D02*
X197347972Y-101794999D01*
X199221891Y-107487499D02*
X201095810Y-107487499D01*
X114895540Y-122667499D02*
X114895540Y-120770000D01*
X152373918Y-77127499D02*
X152373918Y-79024999D01*
X178608783Y-56254999D02*
X176734864Y-56254999D01*
X191726216Y-135949999D02*
X191726216Y-137847500D01*
X202969729Y-143539999D02*
X201095810Y-143539999D01*
X167365270Y-90410000D02*
X167365270Y-92307499D01*
X150500000Y-88512499D02*
X154247837Y-88512499D01*
X197347972Y-80922499D02*
X199221891Y-80922499D01*
X118643378Y-94204999D02*
X120517297Y-94204999D01*
X161743513Y-122667499D02*
X163617432Y-122667499D01*
X135508648Y-75229999D02*
X133634729Y-75229999D01*
X187978378Y-77127499D02*
X189852297Y-77127499D01*
X167365270Y-92307499D02*
X165491351Y-92307499D01*
X212339324Y-141642500D02*
X214213243Y-141642500D01*
X124265135Y-97999999D02*
X116769459Y-97999999D01*
X113021621Y-124565000D02*
X109273783Y-124565000D01*
X109273783Y-101794999D02*
X109273783Y-103692499D01*
X118643378Y-115077500D02*
X118643378Y-113179999D01*
X92408513Y-107487499D02*
X94282432Y-107487499D01*
X84912837Y-143539999D02*
X84912837Y-145437500D01*
X165491351Y-92307499D02*
X165491351Y-86614999D01*
X163617432Y-97999999D02*
X161743513Y-97999999D01*
X217961081Y-118872500D02*
X217961081Y-116975000D01*
X114895540Y-113179999D02*
X113021621Y-113179999D01*
X126139054Y-103692499D02*
X131760810Y-103692499D01*
X174860945Y-139744999D02*
X174860945Y-137847500D01*
X219835000Y-101794999D02*
X219835000Y-105589999D01*
X113021621Y-132155000D02*
X111147702Y-132155000D01*
X214213243Y-71434999D02*
X214213243Y-69537499D01*
X174860945Y-126462499D02*
X176734864Y-126462499D01*
X144878243Y-107487499D02*
X146752162Y-107487499D01*
X111147702Y-61947499D02*
X111147702Y-60049999D01*
X180482702Y-88512499D02*
X180482702Y-86614999D01*
X204843648Y-61947499D02*
X202969729Y-61947499D01*
X216087162Y-92307499D02*
X214213243Y-92307499D01*
X109273783Y-97999999D02*
X109273783Y-99897499D01*
X197347972Y-128360000D02*
X199221891Y-128360000D01*
X116769459Y-52459999D02*
X114895540Y-52459999D01*
X174860945Y-75229999D02*
X174860945Y-77127499D01*
X105525945Y-124565000D02*
X105525945Y-126462499D01*
X135508648Y-48665000D02*
X129886891Y-48665000D01*
X83038918Y-135949999D02*
X83038918Y-137847500D01*
X182356621Y-134052500D02*
X184230540Y-134052500D01*
X122391216Y-90410000D02*
X120517297Y-90410000D01*
X109273783Y-69537499D02*
X109273783Y-67639999D01*
X92408513Y-92307499D02*
X92408513Y-90410000D01*
X193600135Y-79024999D02*
X193600135Y-80922499D01*
X111147702Y-67639999D02*
X111147702Y-69537499D01*
X176734864Y-134052500D02*
X180482702Y-134052500D01*
X129886891Y-58152500D02*
X131760810Y-58152500D01*
X118643378Y-96102499D02*
X118643378Y-94204999D01*
X219835000Y-73332499D02*
X219835000Y-77127499D01*
X197347972Y-96102499D02*
X199221891Y-96102499D01*
X133634729Y-61947499D02*
X135508648Y-61947499D01*
X150500000Y-50562500D02*
X152373918Y-50562500D01*
X114895540Y-92307499D02*
X114895540Y-86614999D01*
X193600135Y-67639999D02*
X193600135Y-71434999D01*
X163617432Y-128360000D02*
X165491351Y-128360000D01*
X216087162Y-143539999D02*
X214213243Y-143539999D01*
X157995675Y-101794999D02*
X157995675Y-103692499D01*
X118643378Y-103692499D02*
X118643378Y-101794999D01*
X133634729Y-65742499D02*
X135508648Y-65742499D01*
X94282432Y-143539999D02*
X90534594Y-143539999D01*
X144878243Y-86614999D02*
X143004324Y-86614999D01*
X143004324Y-96102499D02*
X148626081Y-96102499D01*
X116769459Y-65742499D02*
X118643378Y-65742499D01*
X161743513Y-79024999D02*
X161743513Y-80922499D01*
X84912837Y-115077500D02*
X88660675Y-115077500D01*
X99904189Y-113179999D02*
X99904189Y-111282499D01*
X107399864Y-94204999D02*
X103652027Y-94204999D01*
X202969729Y-54357499D02*
X204843648Y-54357499D01*
X157995675Y-113179999D02*
X156121756Y-113179999D01*
X81165000Y-71434999D02*
X81165000Y-69537499D01*
X204843648Y-147335000D02*
X204843648Y-145437500D01*
X94282432Y-92307499D02*
X92408513Y-92307499D01*
X165491351Y-107487499D02*
X165491351Y-105589999D01*
X99904189Y-79024999D02*
X99904189Y-80922499D01*
X189852297Y-103692499D02*
X187978378Y-103692499D01*
X137382567Y-116975000D02*
X135508648Y-116975000D01*
X161743513Y-73332499D02*
X163617432Y-73332499D01*
X217961081Y-69537499D02*
X219835000Y-69537499D01*
X122391216Y-124565000D02*
X122391216Y-126462499D01*
X193600135Y-96102499D02*
X195474054Y-96102499D01*
X92408513Y-118872500D02*
X92408513Y-116975000D01*
X131760810Y-109384999D02*
X128012972Y-109384999D01*
X137382567Y-134052500D02*
X137382567Y-132155000D01*
X137382567Y-145437500D02*
X139256486Y-145437500D01*
X122391216Y-48665000D02*
X120517297Y-48665000D01*
X208591486Y-107487499D02*
X208591486Y-109384999D01*
X131760810Y-54357499D02*
X131760810Y-56254999D01*
X126139054Y-147335000D02*
X126139054Y-143539999D01*
X88660675Y-73332499D02*
X94282432Y-73332499D01*
X122391216Y-67639999D02*
X118643378Y-67639999D01*
X208591486Y-88512499D02*
X210465405Y-88512499D01*
X156121756Y-103692499D02*
X156121756Y-101794999D01*
X195474054Y-94204999D02*
X197347972Y-94204999D01*
X148626081Y-99897499D02*
X148626081Y-97999999D01*
X171113108Y-116975000D02*
X171113108Y-115077500D01*
X105525945Y-80922499D02*
X107399864Y-80922499D01*
X186104459Y-48665000D02*
X186104459Y-52459999D01*
X182356621Y-132155000D02*
X182356621Y-134052500D01*
X182356621Y-99897499D02*
X184230540Y-99897499D01*
X124265135Y-80922499D02*
X126139054Y-80922499D01*
X107399864Y-116975000D02*
X107399864Y-113179999D01*
X199221891Y-58152500D02*
X201095810Y-58152500D01*
X159869594Y-69537499D02*
X159869594Y-67639999D01*
X178608783Y-137847500D02*
X180482702Y-137847500D01*
X103652027Y-137847500D02*
X103652027Y-135949999D01*
X120517297Y-61947499D02*
X118643378Y-61947499D01*
X199221891Y-141642500D02*
X201095810Y-141642500D01*
X99904189Y-77127499D02*
X101778108Y-77127499D01*
X217961081Y-97999999D02*
X216087162Y-97999999D01*
X212339324Y-79024999D02*
X212339324Y-80922499D01*
X163617432Y-147335000D02*
X163617432Y-145437500D01*
X156121756Y-134052500D02*
X159869594Y-134052500D01*
X133634729Y-135949999D02*
X131760810Y-135949999D01*
X86786756Y-79024999D02*
X84912837Y-79024999D01*
X111147702Y-58152500D02*
X113021621Y-58152500D01*
X107399864Y-56254999D02*
X107399864Y-54357499D01*
X189852297Y-139744999D02*
X191726216Y-139744999D01*
X180482702Y-126462499D02*
X180482702Y-128360000D01*
X143004324Y-141642500D02*
X143004324Y-139744999D01*
X99904189Y-67639999D02*
X99904189Y-63844999D01*
X214213243Y-54357499D02*
X219835000Y-54357499D01*
X120517297Y-71434999D02*
X114895540Y-71434999D01*
X101778108Y-124565000D02*
X101778108Y-128360000D01*
X167365270Y-115077500D02*
X169239189Y-115077500D01*
X197347972Y-139744999D02*
X199221891Y-139744999D01*
X103652027Y-145437500D02*
X105525945Y-145437500D01*
X103652027Y-122667499D02*
X107399864Y-122667499D01*
X148626081Y-105589999D02*
X148626081Y-107487499D01*
X139256486Y-86614999D02*
X139256486Y-90410000D01*
X129886891Y-94204999D02*
X131760810Y-94204999D01*
X86786756Y-139744999D02*
X86786756Y-141642500D01*
X167365270Y-99897499D02*
X167365270Y-97999999D01*
X144878243Y-137847500D02*
X146752162Y-137847500D01*
X81165000Y-88512499D02*
X81165000Y-84717499D01*
X122391216Y-99897499D02*
X124265135Y-99897499D01*
X178608783Y-60049999D02*
X178608783Y-61947499D01*
X169239189Y-75229999D02*
X169239189Y-77127499D01*
X202969729Y-126462499D02*
X204843648Y-126462499D01*
X191726216Y-126462499D02*
X191726216Y-128360000D01*
X126139054Y-54357499D02*
X131760810Y-54357499D01*
X210465405Y-96102499D02*
X210465405Y-90410000D01*
X210465405Y-147335000D02*
X204843648Y-147335000D01*
X189852297Y-135949999D02*
X187978378Y-135949999D01*
X187978378Y-134052500D02*
X187978378Y-132155000D01*
X182356621Y-77127499D02*
X180482702Y-77127499D01*
X105525945Y-60049999D02*
X101778108Y-60049999D01*
X105525945Y-147335000D02*
X99904189Y-147335000D01*
X204843648Y-139744999D02*
X206717567Y-139744999D01*
X206717567Y-115077500D02*
X210465405Y-115077500D01*
X113021621Y-58152500D02*
X113021621Y-61947499D01*
X154247837Y-52459999D02*
X154247837Y-48665000D01*
X193600135Y-143539999D02*
X189852297Y-143539999D01*
X137382567Y-50562500D02*
X139256486Y-50562500D01*
X161743513Y-67639999D02*
X161743513Y-69537499D01*
X199221891Y-145437500D02*
X199221891Y-143539999D01*
X163617432Y-63844999D02*
X161743513Y-63844999D01*
X131760810Y-141642500D02*
X133634729Y-141642500D01*
X186104459Y-88512499D02*
X187978378Y-88512499D01*
X120517297Y-54357499D02*
X122391216Y-54357499D01*
X96156351Y-124565000D02*
X96156351Y-126462499D01*
X180482702Y-92307499D02*
X180482702Y-90410000D01*
X150500000Y-113179999D02*
X148626081Y-113179999D01*
X214213243Y-56254999D02*
X214213243Y-54357499D01*
X148626081Y-96102499D02*
X148626081Y-94204999D01*
X107399864Y-147335000D02*
X107399864Y-143539999D01*
X124265135Y-82819999D02*
X124265135Y-88512499D01*
X81165000Y-48665000D02*
X81250000Y-48580000D01*
X105525945Y-69537499D02*
X105525945Y-71434999D01*
X96156351Y-143539999D02*
X96156351Y-145437500D01*
X107399864Y-143539999D02*
X103652027Y-143539999D01*
X169239189Y-82819999D02*
X167365270Y-82819999D01*
X128012972Y-56254999D02*
X126139054Y-56254999D01*
X184230540Y-105589999D02*
X180482702Y-105589999D01*
X144878243Y-145437500D02*
X146752162Y-145437500D01*
X214213243Y-137847500D02*
X214213243Y-135949999D01*
X184230540Y-132155000D02*
X182356621Y-132155000D01*
X163617432Y-99897499D02*
X163617432Y-97999999D01*
X141130405Y-128360000D02*
X141130405Y-126462499D01*
X163617432Y-84717499D02*
X163617432Y-88512499D01*
X94282432Y-96102499D02*
X96156351Y-96102499D01*
X92408513Y-132155000D02*
X92408513Y-130257500D01*
X103652027Y-94204999D02*
X103652027Y-90410000D01*
X171113108Y-77127499D02*
X171113108Y-79024999D01*
X214213243Y-118872500D02*
X214213243Y-116975000D01*
X139256486Y-90410000D02*
X137382567Y-90410000D01*
X84912837Y-105589999D02*
X84912837Y-107487499D01*
X105525945Y-118872500D02*
X105525945Y-120770000D01*
X159869594Y-88512499D02*
X157995675Y-88512499D01*
X94282432Y-79024999D02*
X92408513Y-79024999D01*
X182356621Y-86614999D02*
X182356621Y-92307499D01*
X171113108Y-147335000D02*
X171113108Y-145437500D01*
X105525945Y-141642500D02*
X107399864Y-141642500D01*
X208591486Y-120770000D02*
X208591486Y-122667499D01*
X191726216Y-147335000D02*
X186104459Y-147335000D01*
X146752162Y-105589999D02*
X143004324Y-105589999D01*
X180482702Y-134052500D02*
X180482702Y-132155000D01*
X98030270Y-115077500D02*
X98030270Y-118872500D01*
X128012972Y-122667499D02*
X133634729Y-122667499D01*
X201095810Y-105589999D02*
X199221891Y-105589999D01*
X204843648Y-145437500D02*
X206717567Y-145437500D01*
X201095810Y-141642500D02*
X201095810Y-139744999D01*
X187978378Y-69537499D02*
X189852297Y-69537499D01*
X90534594Y-58152500D02*
X96156351Y-58152500D01*
X148626081Y-135949999D02*
X144878243Y-135949999D01*
X152373918Y-67639999D02*
X150500000Y-67639999D01*
X176734864Y-105589999D02*
X176734864Y-109384999D01*
X186104459Y-109384999D02*
X186104459Y-115077500D01*
X154247837Y-82819999D02*
X150500000Y-82819999D01*
X206717567Y-137847500D02*
X204843648Y-137847500D01*
X139256486Y-109384999D02*
X133634729Y-109384999D01*
X210465405Y-65742499D02*
X210465405Y-60049999D01*
X219835000Y-56254999D02*
X217961081Y-56254999D01*
X172987027Y-65742499D02*
X172987027Y-60049999D01*
X216087162Y-90410000D02*
X216087162Y-92307499D01*
X137382567Y-128360000D02*
X135508648Y-128360000D01*
X124265135Y-67639999D02*
X124265135Y-71434999D01*
X90534594Y-84717499D02*
X88660675Y-84717499D01*
X195474054Y-61947499D02*
X195474054Y-60049999D01*
X159869594Y-80922499D02*
X159869594Y-79024999D01*
X120517297Y-122667499D02*
X126139054Y-122667499D01*
X88660675Y-132155000D02*
X84912837Y-132155000D01*
X156121756Y-124565000D02*
X156121756Y-126462499D01*
X161743513Y-50562500D02*
X163617432Y-50562500D01*
X126139054Y-84717499D02*
X126139054Y-82819999D01*
X156121756Y-86614999D02*
X156121756Y-92307499D01*
X169239189Y-52459999D02*
X171113108Y-52459999D01*
X169239189Y-92307499D02*
X169239189Y-90410000D01*
X86786756Y-147335000D02*
X81165000Y-147335000D01*
X118643378Y-105589999D02*
X120517297Y-105589999D01*
X111147702Y-63844999D02*
X113021621Y-63844999D01*
X195474054Y-111282499D02*
X195474054Y-109384999D01*
X204843648Y-101794999D02*
X204843648Y-103692499D01*
X204843648Y-82819999D02*
X204843648Y-84717499D01*
X81165000Y-73332499D02*
X86786756Y-73332499D01*
X113021621Y-54357499D02*
X113021621Y-56254999D01*
X216087162Y-61947499D02*
X214213243Y-61947499D01*
X206717567Y-80922499D02*
X210465405Y-80922499D01*
X202969729Y-92307499D02*
X202969729Y-86614999D01*
X148626081Y-128360000D02*
X148626081Y-124565000D01*
X210465405Y-135949999D02*
X206717567Y-135949999D01*
X96156351Y-115077500D02*
X98030270Y-115077500D01*
X197347972Y-84717499D02*
X195474054Y-84717499D01*
X83038918Y-50562500D02*
X83038918Y-48665000D01*
X135508648Y-54357499D02*
X133634729Y-54357499D01*
X118643378Y-79024999D02*
X118643378Y-80922499D01*
X90534594Y-134052500D02*
X94282432Y-134052500D01*
X129886891Y-48665000D02*
X129886891Y-50562500D01*
X187978378Y-132155000D02*
X186104459Y-132155000D01*
X195474054Y-105589999D02*
X195474054Y-103692499D01*
X109273783Y-56254999D02*
X107399864Y-56254999D01*
X206717567Y-134052500D02*
X206717567Y-130257500D01*
X96156351Y-122667499D02*
X96156351Y-120770000D01*
X120517297Y-120770000D02*
X120517297Y-122667499D01*
X202969729Y-130257500D02*
X204843648Y-130257500D01*
X174860945Y-96102499D02*
X176734864Y-96102499D01*
X210465405Y-116975000D02*
X208591486Y-116975000D01*
X182356621Y-115077500D02*
X184230540Y-115077500D01*
X148626081Y-116975000D02*
X146752162Y-116975000D01*
X182356621Y-137847500D02*
X182356621Y-135949999D01*
X206717567Y-50562500D02*
X206717567Y-48665000D01*
X150500000Y-111282499D02*
X150500000Y-113179999D01*
X84912837Y-77127499D02*
X86786756Y-77127499D01*
X84912837Y-103692499D02*
X84912837Y-101794999D01*
X189852297Y-143539999D02*
X189852297Y-145437500D01*
X161743513Y-65742499D02*
X163617432Y-65742499D01*
X114895540Y-67639999D02*
X114895540Y-63844999D01*
X150500000Y-96102499D02*
X154247837Y-96102499D01*
X154247837Y-139744999D02*
X154247837Y-141642500D01*
X174860945Y-115077500D02*
X176734864Y-115077500D01*
X99904189Y-145437500D02*
X101778108Y-145437500D01*
X159869594Y-86614999D02*
X159869594Y-88512499D01*
X137382567Y-65742499D02*
X139256486Y-65742499D01*
X107399864Y-63844999D02*
X107399864Y-65742499D01*
X178608783Y-147335000D02*
X178608783Y-145437500D01*
X184230540Y-48665000D02*
X180482702Y-48665000D01*
X105525945Y-120770000D02*
X103652027Y-120770000D01*
X193600135Y-77127499D02*
X191726216Y-77127499D01*
X176734864Y-130257500D02*
X176734864Y-134052500D01*
X99904189Y-96102499D02*
X99904189Y-94204999D01*
X111147702Y-90410000D02*
X113021621Y-90410000D01*
X187978378Y-113179999D02*
X189852297Y-113179999D01*
X124265135Y-96102499D02*
X126139054Y-96102499D01*
X111147702Y-65742499D02*
X111147702Y-63844999D01*
X113021621Y-90410000D02*
X113021621Y-94204999D01*
X180482702Y-82819999D02*
X178608783Y-82819999D01*
X219835000Y-132155000D02*
X217961081Y-132155000D01*
X124265135Y-79024999D02*
X124265135Y-80922499D01*
X94282432Y-86614999D02*
X94282432Y-88512499D01*
X88660675Y-60049999D02*
X86786756Y-60049999D01*
X118643378Y-67639999D02*
X118643378Y-69537499D01*
X163617432Y-141642500D02*
X163617432Y-139744999D01*
X96156351Y-79024999D02*
X96156351Y-77127499D01*
X154247837Y-103692499D02*
X156121756Y-103692499D01*
X206717567Y-118872500D02*
X206717567Y-116975000D01*
X154247837Y-141642500D02*
X156121756Y-141642500D01*
X165491351Y-67639999D02*
X165491351Y-63844999D01*
X201095810Y-86614999D02*
X201095810Y-92307499D01*
X143004324Y-63844999D02*
X143004324Y-67639999D01*
X180482702Y-69537499D02*
X182356621Y-69537499D01*
X197347972Y-101794999D02*
X191726216Y-101794999D01*
X219835000Y-118872500D02*
X217961081Y-118872500D01*
X172987027Y-48665000D02*
X171113108Y-48665000D01*
X148626081Y-69537499D02*
X148626081Y-63844999D01*
X171113108Y-139744999D02*
X172987027Y-139744999D01*
X206717567Y-141642500D02*
X210465405Y-141642500D01*
X184230540Y-92307499D02*
X184230540Y-86614999D01*
X144878243Y-82819999D02*
X144878243Y-79024999D01*
X208591486Y-52459999D02*
X208591486Y-54357499D01*
X88660675Y-67639999D02*
X84912837Y-67639999D01*
X86786756Y-137847500D02*
X84912837Y-137847500D01*
X163617432Y-77127499D02*
X163617432Y-79024999D01*
X92408513Y-80922499D02*
X98030270Y-80922499D01*
X154247837Y-80922499D02*
X154247837Y-77127499D01*
X157995675Y-103692499D02*
X159869594Y-103692499D01*
X163617432Y-139744999D02*
X165491351Y-139744999D01*
X191726216Y-130257500D02*
X191726216Y-132155000D01*
X122391216Y-65742499D02*
X122391216Y-60049999D01*
X202969729Y-73332499D02*
X208591486Y-73332499D01*
X83038918Y-116975000D02*
X83038918Y-118872500D01*
X186104459Y-94204999D02*
X186104459Y-96102499D01*
X216087162Y-67639999D02*
X212339324Y-67639999D01*
X141130405Y-139744999D02*
X141130405Y-137847500D01*
X178608783Y-58152500D02*
X178608783Y-56254999D01*
X169239189Y-120770000D02*
X169239189Y-122667499D01*
X216087162Y-122667499D02*
X217961081Y-122667499D01*
X204843648Y-67639999D02*
X202969729Y-67639999D01*
X146752162Y-132155000D02*
X144878243Y-132155000D01*
X152373918Y-50562500D02*
X152373918Y-52459999D01*
X96156351Y-103692499D02*
X96156351Y-101794999D01*
X150500000Y-82819999D02*
X150500000Y-84717499D01*
X167365270Y-54357499D02*
X167365270Y-58152500D01*
X81165000Y-143539999D02*
X81165000Y-139744999D01*
X137382567Y-84717499D02*
X137382567Y-82819999D01*
X186104459Y-69537499D02*
X186104459Y-67639999D01*
X195474054Y-115077500D02*
X195474054Y-113179999D01*
X193600135Y-116975000D02*
X193600135Y-118872500D01*
X154247837Y-134052500D02*
X154247837Y-132155000D01*
X163617432Y-132155000D02*
X163617432Y-128360000D01*
X152373918Y-143539999D02*
X152373918Y-139744999D01*
X201095810Y-69537499D02*
X201095810Y-71434999D01*
X135508648Y-137847500D02*
X133634729Y-137847500D01*
X111147702Y-52459999D02*
X111147702Y-48665000D01*
X191726216Y-132155000D02*
X189852297Y-132155000D01*
X84912837Y-90410000D02*
X86786756Y-90410000D01*
X105525945Y-58152500D02*
X109273783Y-58152500D01*
X178608783Y-111282499D02*
X178608783Y-109384999D01*
X187978378Y-135949999D02*
X187978378Y-137847500D01*
X96156351Y-141642500D02*
X96156351Y-139744999D01*
X150500000Y-132155000D02*
X148626081Y-132155000D01*
X88660675Y-97999999D02*
X86786756Y-97999999D01*
X167365270Y-75229999D02*
X165491351Y-75229999D01*
X180482702Y-116975000D02*
X178608783Y-116975000D01*
X126139054Y-116975000D02*
X128012972Y-116975000D01*
D14*
X139250000Y-40750000D02*
X86500000Y-40750000D01*
D13*
X122391216Y-82819999D02*
X120517297Y-82819999D01*
X208591486Y-109384999D02*
X202969729Y-109384999D01*
X131760810Y-128360000D02*
X131760810Y-130257500D01*
X96156351Y-139744999D02*
X98030270Y-139744999D01*
X99904189Y-143539999D02*
X99904189Y-139744999D01*
X116769459Y-107487499D02*
X118643378Y-107487499D01*
X88660675Y-94204999D02*
X90534594Y-94204999D01*
X216087162Y-60049999D02*
X216087162Y-61947499D01*
X163617432Y-94204999D02*
X161743513Y-94204999D01*
X101778108Y-63844999D02*
X101778108Y-65742499D01*
X217961081Y-96102499D02*
X217961081Y-94204999D01*
X98030270Y-50562500D02*
X101778108Y-50562500D01*
X92408513Y-137847500D02*
X92408513Y-135949999D01*
X143004324Y-80922499D02*
X143004324Y-84717499D01*
X165491351Y-48665000D02*
X161743513Y-48665000D01*
X143004324Y-58152500D02*
X141130405Y-58152500D01*
X126139054Y-97999999D02*
X126139054Y-99897499D01*
X172987027Y-101794999D02*
X172987027Y-103692499D01*
X131760810Y-130257500D02*
X133634729Y-130257500D01*
X214213243Y-143539999D02*
X214213243Y-147335000D01*
X156121756Y-96102499D02*
X159869594Y-96102499D01*
X187978378Y-67639999D02*
X187978378Y-69537499D01*
X109273783Y-84717499D02*
X113021621Y-84717499D01*
X131760810Y-137847500D02*
X129886891Y-137847500D01*
X96156351Y-75229999D02*
X96156351Y-73332499D01*
X159869594Y-90410000D02*
X159869594Y-92307499D01*
X99904189Y-92307499D02*
X99904189Y-90410000D01*
X163617432Y-116975000D02*
X161743513Y-116975000D01*
X116769459Y-58152500D02*
X122391216Y-58152500D01*
X83038918Y-61947499D02*
X81165000Y-61947499D01*
X150500000Y-73332499D02*
X152373918Y-73332499D01*
X81165000Y-139744999D02*
X83038918Y-139744999D01*
X195474054Y-54357499D02*
X201095810Y-54357499D01*
X159869594Y-109384999D02*
X159869594Y-105589999D01*
X83038918Y-92307499D02*
X84912837Y-92307499D01*
X128012972Y-82819999D02*
X128012972Y-84717499D01*
X159869594Y-135949999D02*
X157995675Y-135949999D01*
X148626081Y-82819999D02*
X144878243Y-82819999D01*
X159869594Y-54357499D02*
X159869594Y-52459999D01*
X210465405Y-48665000D02*
X208591486Y-48665000D01*
X208591486Y-84717499D02*
X206717567Y-84717499D01*
X88660675Y-124565000D02*
X86786756Y-124565000D01*
X148626081Y-115077500D02*
X150500000Y-115077500D01*
X171113108Y-113179999D02*
X171113108Y-111282499D01*
X189852297Y-137847500D02*
X189852297Y-135949999D01*
X109273783Y-135949999D02*
X109273783Y-141642500D01*
X208591486Y-79024999D02*
X206717567Y-79024999D01*
X83038918Y-65742499D02*
X84912837Y-65742499D01*
X199221891Y-130257500D02*
X201095810Y-130257500D01*
X144878243Y-79024999D02*
X146752162Y-79024999D01*
X111147702Y-105589999D02*
X109273783Y-105589999D01*
X202969729Y-109384999D02*
X202969729Y-107487499D01*
X129886891Y-97999999D02*
X126139054Y-97999999D01*
X180482702Y-58152500D02*
X182356621Y-58152500D01*
X197347972Y-48665000D02*
X193600135Y-48665000D01*
X83038918Y-137847500D02*
X81165000Y-137847500D01*
X90534594Y-141642500D02*
X92408513Y-141642500D01*
X172987027Y-60049999D02*
X171113108Y-60049999D01*
X178608783Y-135949999D02*
X178608783Y-137847500D01*
X206717567Y-145437500D02*
X206717567Y-143539999D01*
X81165000Y-128360000D02*
X81165000Y-120770000D01*
X163617432Y-107487499D02*
X165491351Y-107487499D01*
X174860945Y-82819999D02*
X174860945Y-88512499D01*
X128012972Y-143539999D02*
X128012972Y-147335000D01*
X98030270Y-96102499D02*
X99904189Y-96102499D01*
X137382567Y-113179999D02*
X137382567Y-115077500D01*
X120517297Y-135949999D02*
X120517297Y-137847500D01*
X199221891Y-82819999D02*
X197347972Y-82819999D01*
X197347972Y-115077500D02*
X195474054Y-115077500D01*
X169239189Y-94204999D02*
X171113108Y-94204999D01*
X169239189Y-79024999D02*
X169239189Y-80922499D01*
X167365270Y-79024999D02*
X165491351Y-79024999D01*
X126139054Y-111282499D02*
X126139054Y-109384999D01*
X124265135Y-99897499D02*
X124265135Y-97999999D01*
X219835000Y-128360000D02*
X217961081Y-128360000D01*
X165491351Y-69537499D02*
X167365270Y-69537499D01*
X169239189Y-50562500D02*
X169239189Y-48665000D01*
X101778108Y-92307499D02*
X99904189Y-92307499D01*
X94282432Y-67639999D02*
X90534594Y-67639999D01*
X178608783Y-122667499D02*
X178608783Y-118872500D01*
X88660675Y-135949999D02*
X86786756Y-135949999D01*
X214213243Y-84717499D02*
X214213243Y-82819999D01*
X217961081Y-80922499D02*
X217961081Y-79024999D01*
X169239189Y-115077500D02*
X169239189Y-118872500D01*
X206717567Y-94204999D02*
X208591486Y-94204999D01*
X174860945Y-58152500D02*
X178608783Y-58152500D01*
X92408513Y-94204999D02*
X94282432Y-94204999D01*
X202969729Y-97999999D02*
X201095810Y-97999999D01*
X99904189Y-60049999D02*
X98030270Y-60049999D01*
X98030270Y-122667499D02*
X101778108Y-122667499D01*
X189852297Y-145437500D02*
X191726216Y-145437500D01*
X101778108Y-109384999D02*
X99904189Y-109384999D01*
X163617432Y-58152500D02*
X161743513Y-58152500D01*
X94282432Y-139744999D02*
X94282432Y-141642500D01*
X182356621Y-54357499D02*
X182356621Y-56254999D01*
X184230540Y-130257500D02*
X184230540Y-132155000D01*
X118643378Y-126462499D02*
X120517297Y-126462499D01*
X99904189Y-137847500D02*
X99904189Y-130257500D01*
X159869594Y-96102499D02*
X159869594Y-94204999D01*
X186104459Y-75229999D02*
X184230540Y-75229999D01*
X141130405Y-73332499D02*
X141130405Y-69537499D01*
X186104459Y-61947499D02*
X184230540Y-61947499D01*
X101778108Y-79024999D02*
X99904189Y-79024999D01*
X204843648Y-96102499D02*
X206717567Y-96102499D01*
X159869594Y-52459999D02*
X157995675Y-52459999D01*
X113021621Y-115077500D02*
X111147702Y-115077500D01*
X208591486Y-116975000D02*
X208591486Y-118872500D01*
X96156351Y-73332499D02*
X101778108Y-73332499D01*
X195474054Y-88512499D02*
X195474054Y-86614999D01*
X161743513Y-105589999D02*
X161743513Y-109384999D01*
X148626081Y-61947499D02*
X148626081Y-56254999D01*
X201095810Y-132155000D02*
X197347972Y-132155000D01*
X101778108Y-50562500D02*
X101778108Y-54357499D01*
X124265135Y-147335000D02*
X118643378Y-147335000D01*
X84912837Y-86614999D02*
X83038918Y-86614999D01*
X96156351Y-116975000D02*
X94282432Y-116975000D01*
X137382567Y-92307499D02*
X139256486Y-92307499D01*
X210465405Y-54357499D02*
X210465405Y-48665000D01*
X88660675Y-147335000D02*
X88660675Y-143539999D01*
X172987027Y-79024999D02*
X174860945Y-79024999D01*
X202969729Y-84717499D02*
X202969729Y-80922499D01*
X163617432Y-122667499D02*
X163617432Y-120770000D01*
X208591486Y-122667499D02*
X210465405Y-122667499D01*
X187978378Y-115077500D02*
X187978378Y-113179999D01*
X83038918Y-107487499D02*
X83038918Y-105589999D01*
X182356621Y-128360000D02*
X182356621Y-124565000D01*
X139256486Y-111282499D02*
X139256486Y-113179999D01*
X154247837Y-86614999D02*
X156121756Y-86614999D01*
X176734864Y-92307499D02*
X176734864Y-90410000D01*
X84912837Y-145437500D02*
X86786756Y-145437500D01*
X193600135Y-115077500D02*
X191726216Y-115077500D01*
X103652027Y-50562500D02*
X105525945Y-50562500D01*
X216087162Y-105589999D02*
X212339324Y-105589999D01*
X114895540Y-86614999D02*
X116769459Y-86614999D01*
X210465405Y-97999999D02*
X208591486Y-97999999D01*
X83038918Y-96102499D02*
X83038918Y-94204999D01*
X114895540Y-75229999D02*
X114895540Y-73332499D01*
X217961081Y-56254999D02*
X217961081Y-58152500D01*
X156121756Y-75229999D02*
X154247837Y-75229999D01*
X90534594Y-82819999D02*
X90534594Y-84717499D01*
X83038918Y-60049999D02*
X83038918Y-61947499D01*
X210465405Y-139744999D02*
X208591486Y-139744999D01*
X152373918Y-99897499D02*
X152373918Y-97999999D01*
X202969729Y-111282499D02*
X208591486Y-111282499D01*
X103652027Y-67639999D02*
X103652027Y-69537499D01*
X143004324Y-105589999D02*
X143004324Y-109384999D01*
X210465405Y-71434999D02*
X210465405Y-67639999D01*
X88660675Y-111282499D02*
X90534594Y-111282499D01*
X184230540Y-69537499D02*
X186104459Y-69537499D01*
X176734864Y-137847500D02*
X176734864Y-135949999D01*
X219835000Y-86614999D02*
X219835000Y-92307499D01*
X101778108Y-67639999D02*
X99904189Y-67639999D01*
X139256486Y-50562500D02*
X139256486Y-54357499D01*
X174860945Y-107487499D02*
X174860945Y-105589999D01*
X214213243Y-120770000D02*
X216087162Y-120770000D01*
X122391216Y-60049999D02*
X120517297Y-60049999D01*
X184230540Y-101794999D02*
X182356621Y-101794999D01*
X114895540Y-52459999D02*
X114895540Y-48665000D01*
X206717567Y-130257500D02*
X208591486Y-130257500D01*
X109273783Y-111282499D02*
X111147702Y-111282499D01*
X161743513Y-96102499D02*
X165491351Y-96102499D01*
X128012972Y-88512499D02*
X129886891Y-88512499D01*
X144878243Y-63844999D02*
X143004324Y-63844999D01*
X171113108Y-69537499D02*
X171113108Y-71434999D01*
X206717567Y-101794999D02*
X208591486Y-101794999D01*
X83038918Y-88512499D02*
X81165000Y-88512499D01*
X96156351Y-120770000D02*
X98030270Y-120770000D01*
X135508648Y-105589999D02*
X133634729Y-105589999D01*
X116769459Y-77127499D02*
X116769459Y-75229999D01*
X171113108Y-115077500D02*
X172987027Y-115077500D01*
X109273783Y-82819999D02*
X109273783Y-84717499D01*
X116769459Y-92307499D02*
X114895540Y-92307499D01*
X98030270Y-58152500D02*
X99904189Y-58152500D01*
X208591486Y-96102499D02*
X210465405Y-96102499D01*
X101778108Y-82819999D02*
X101778108Y-84717499D01*
X150500000Y-109384999D02*
X144878243Y-109384999D01*
X122391216Y-116975000D02*
X124265135Y-116975000D01*
X217961081Y-86614999D02*
X219835000Y-86614999D01*
X129886891Y-79024999D02*
X131760810Y-79024999D01*
X105525945Y-128360000D02*
X105525945Y-130257500D01*
X92408513Y-145437500D02*
X94282432Y-145437500D01*
X141130405Y-92307499D02*
X143004324Y-92307499D01*
X118643378Y-143539999D02*
X118643378Y-139744999D01*
X201095810Y-52459999D02*
X195474054Y-52459999D01*
X148626081Y-103692499D02*
X148626081Y-101794999D01*
X81165000Y-75229999D02*
X81165000Y-73332499D01*
X128012972Y-130257500D02*
X128012972Y-134052500D01*
X167365270Y-58152500D02*
X172987027Y-58152500D01*
X120517297Y-99897499D02*
X120517297Y-103692499D01*
X124265135Y-113179999D02*
X124265135Y-115077500D01*
X195474054Y-86614999D02*
X197347972Y-86614999D01*
X92408513Y-63844999D02*
X94282432Y-63844999D01*
X193600135Y-60049999D02*
X193600135Y-65742499D01*
X202969729Y-145437500D02*
X202969729Y-147335000D01*
X174860945Y-130257500D02*
X176734864Y-130257500D01*
X141130405Y-134052500D02*
X141130405Y-130257500D01*
X169239189Y-48665000D02*
X167365270Y-48665000D01*
X167365270Y-143539999D02*
X167365270Y-145437500D01*
X197347972Y-63844999D02*
X197347972Y-65742499D01*
X116769459Y-79024999D02*
X114895540Y-79024999D01*
X216087162Y-101794999D02*
X216087162Y-103692499D01*
X88660675Y-96102499D02*
X88660675Y-94204999D01*
X163617432Y-60049999D02*
X163617432Y-63844999D01*
X167365270Y-94204999D02*
X167365270Y-96102499D01*
X204843648Y-79024999D02*
X202969729Y-79024999D01*
X191726216Y-88512499D02*
X191726216Y-82819999D01*
X182356621Y-120770000D02*
X182356621Y-118872500D01*
X86786756Y-97999999D02*
X86786756Y-99897499D01*
X103652027Y-84717499D02*
X107399864Y-84717499D01*
X107399864Y-50562500D02*
X109273783Y-50562500D01*
X99904189Y-94204999D02*
X101778108Y-94204999D01*
X113021621Y-126462499D02*
X113021621Y-124565000D01*
X86786756Y-109384999D02*
X81165000Y-109384999D01*
X128012972Y-58152500D02*
X128012972Y-56254999D01*
X150500000Y-137847500D02*
X148626081Y-137847500D01*
X139256486Y-141642500D02*
X143004324Y-141642500D01*
X195474054Y-103692499D02*
X201095810Y-103692499D01*
X128012972Y-124565000D02*
X128012972Y-128360000D01*
X105525945Y-71434999D02*
X99904189Y-71434999D01*
X171113108Y-79024999D02*
X169239189Y-79024999D01*
X169239189Y-60049999D02*
X167365270Y-60049999D01*
X217961081Y-139744999D02*
X219835000Y-139744999D01*
X103652027Y-126462499D02*
X103652027Y-124565000D01*
X191726216Y-99897499D02*
X193600135Y-99897499D01*
X98030270Y-67639999D02*
X96156351Y-67639999D01*
X204843648Y-113179999D02*
X202969729Y-113179999D01*
X105525945Y-137847500D02*
X103652027Y-137847500D01*
X187978378Y-50562500D02*
X187978378Y-48665000D01*
X114895540Y-63844999D02*
X116769459Y-63844999D01*
X122391216Y-111282499D02*
X126139054Y-111282499D01*
X144878243Y-147335000D02*
X144878243Y-145437500D01*
X101778108Y-84717499D02*
X99904189Y-84717499D01*
X156121756Y-54357499D02*
X156121756Y-63844999D01*
X212339324Y-122667499D02*
X214213243Y-122667499D01*
X210465405Y-130257500D02*
X212339324Y-130257500D01*
X150500000Y-61947499D02*
X152373918Y-61947499D01*
X152373918Y-75229999D02*
X150500000Y-75229999D01*
X113021621Y-71434999D02*
X107399864Y-71434999D01*
X116769459Y-67639999D02*
X114895540Y-67639999D01*
X94282432Y-52459999D02*
X94282432Y-54357499D01*
X105525945Y-92307499D02*
X107399864Y-92307499D01*
X161743513Y-143539999D02*
X161743513Y-147335000D01*
X107399864Y-75229999D02*
X105525945Y-75229999D01*
X146752162Y-139744999D02*
X144878243Y-139744999D01*
X146752162Y-120770000D02*
X146752162Y-122667499D01*
X88660675Y-116975000D02*
X86786756Y-116975000D01*
X135508648Y-60049999D02*
X133634729Y-60049999D01*
X172987027Y-103692499D02*
X171113108Y-103692499D01*
X150500000Y-115077500D02*
X150500000Y-118872500D01*
X107399864Y-118872500D02*
X109273783Y-118872500D01*
X84912837Y-75229999D02*
X84912837Y-77127499D01*
X152373918Y-118872500D02*
X152373918Y-115077500D01*
X105525945Y-145437500D02*
X105525945Y-147335000D01*
X189852297Y-126462499D02*
X191726216Y-126462499D01*
X144878243Y-122667499D02*
X144878243Y-120770000D01*
X210465405Y-88512499D02*
X210465405Y-82819999D01*
X99904189Y-61947499D02*
X99904189Y-60049999D01*
X182356621Y-116975000D02*
X182356621Y-115077500D01*
X118643378Y-120770000D02*
X120517297Y-120770000D01*
X217961081Y-122667499D02*
X217961081Y-120770000D01*
X99904189Y-84717499D02*
X99904189Y-82819999D01*
X165491351Y-63844999D02*
X167365270Y-63844999D01*
X111147702Y-99897499D02*
X111147702Y-97999999D01*
X116769459Y-115077500D02*
X118643378Y-115077500D01*
X156121756Y-132155000D02*
X156121756Y-134052500D01*
X103652027Y-103692499D02*
X103652027Y-101794999D01*
X156121756Y-63844999D02*
X154247837Y-63844999D01*
X184230540Y-116975000D02*
X182356621Y-116975000D01*
X154247837Y-94204999D02*
X156121756Y-94204999D01*
X116769459Y-84717499D02*
X114895540Y-84717499D01*
X126139054Y-113179999D02*
X124265135Y-113179999D01*
X206717567Y-120770000D02*
X208591486Y-120770000D01*
X133634729Y-145437500D02*
X135508648Y-145437500D01*
X133634729Y-101794999D02*
X135508648Y-101794999D01*
X197347972Y-145437500D02*
X199221891Y-145437500D01*
X201095810Y-96102499D02*
X202969729Y-96102499D01*
X84912837Y-63844999D02*
X86786756Y-63844999D01*
X216087162Y-147335000D02*
X216087162Y-143539999D01*
X139256486Y-92307499D02*
X139256486Y-94204999D01*
X118643378Y-118872500D02*
X118643378Y-116975000D01*
X88660675Y-79024999D02*
X88660675Y-77127499D01*
X219835000Y-139744999D02*
X219835000Y-143539999D01*
X169239189Y-67639999D02*
X169239189Y-69537499D01*
X114895540Y-94204999D02*
X116769459Y-94204999D01*
X131760810Y-120770000D02*
X128012972Y-120770000D01*
X193600135Y-88512499D02*
X195474054Y-88512499D01*
X94282432Y-107487499D02*
X94282432Y-105589999D01*
X157995675Y-145437500D02*
X157995675Y-147335000D01*
X174860945Y-65742499D02*
X176734864Y-65742499D01*
X184230540Y-84717499D02*
X184230540Y-80922499D01*
X84912837Y-116975000D02*
X83038918Y-116975000D01*
X113021621Y-139744999D02*
X113021621Y-141642500D01*
X189852297Y-60049999D02*
X189852297Y-61947499D01*
X86786756Y-84717499D02*
X86786756Y-88512499D01*
X161743513Y-147335000D02*
X159869594Y-147335000D01*
X167365270Y-88512499D02*
X169239189Y-88512499D01*
X111147702Y-75229999D02*
X109273783Y-75229999D01*
X169239189Y-61947499D02*
X169239189Y-60049999D01*
X176734864Y-75229999D02*
X174860945Y-75229999D01*
X124265135Y-145437500D02*
X124265135Y-147335000D01*
X184230540Y-73332499D02*
X189852297Y-73332499D01*
X174860945Y-80922499D02*
X176734864Y-80922499D01*
X154247837Y-132155000D02*
X152373918Y-132155000D01*
X98030270Y-137847500D02*
X96156351Y-137847500D01*
X120517297Y-52459999D02*
X120517297Y-54357499D01*
X103652027Y-135949999D02*
X101778108Y-135949999D01*
X171113108Y-109384999D02*
X171113108Y-105589999D01*
X141130405Y-80922499D02*
X143004324Y-80922499D01*
X113021621Y-141642500D02*
X114895540Y-141642500D01*
X84912837Y-107487499D02*
X86786756Y-107487499D01*
X171113108Y-60049999D02*
X171113108Y-61947499D01*
X120517297Y-79024999D02*
X118643378Y-79024999D01*
X157995675Y-111282499D02*
X157995675Y-113179999D01*
X107399864Y-99897499D02*
X107399864Y-97999999D01*
X133634729Y-67639999D02*
X133634729Y-65742499D01*
X204843648Y-63844999D02*
X204843648Y-65742499D01*
X128012972Y-84717499D02*
X126139054Y-84717499D01*
X163617432Y-54357499D02*
X163617432Y-58152500D01*
X152373918Y-113179999D02*
X152373918Y-111282499D01*
X206717567Y-48665000D02*
X204843648Y-48665000D01*
X191726216Y-77127499D02*
X191726216Y-73332499D01*
X90534594Y-143539999D02*
X90534594Y-147335000D01*
X144878243Y-132155000D02*
X144878243Y-130257500D01*
X109273783Y-88512499D02*
X107399864Y-88512499D01*
X165491351Y-54357499D02*
X167365270Y-54357499D01*
X186104459Y-63844999D02*
X186104459Y-65742499D01*
X186104459Y-99897499D02*
X189852297Y-99897499D01*
X204843648Y-58152500D02*
X210465405Y-58152500D01*
X126139054Y-56254999D02*
X126139054Y-54357499D01*
X156121756Y-126462499D02*
X157995675Y-126462499D01*
X129886891Y-107487499D02*
X131760810Y-107487499D01*
X178608783Y-84717499D02*
X176734864Y-84717499D01*
X83038918Y-134052500D02*
X88660675Y-134052500D01*
X165491351Y-71434999D02*
X165491351Y-69537499D01*
X92408513Y-103692499D02*
X92408513Y-101794999D01*
X122391216Y-54357499D02*
X122391216Y-48665000D01*
X133634729Y-130257500D02*
X133634729Y-124565000D01*
X161743513Y-90410000D02*
X163617432Y-90410000D01*
X187978378Y-145437500D02*
X187978378Y-143539999D01*
X126139054Y-71434999D02*
X126139054Y-69537499D01*
X109273783Y-141642500D02*
X111147702Y-141642500D01*
X204843648Y-120770000D02*
X204843648Y-122667499D01*
X187978378Y-61947499D02*
X187978378Y-60049999D01*
X148626081Y-143539999D02*
X148626081Y-145437500D01*
X191726216Y-120770000D02*
X191726216Y-116975000D01*
X84912837Y-141642500D02*
X84912837Y-139744999D01*
X84912837Y-80922499D02*
X90534594Y-80922499D01*
X212339324Y-124565000D02*
X208591486Y-124565000D01*
X195474054Y-71434999D02*
X195474054Y-69537499D01*
X199221891Y-69537499D02*
X201095810Y-69537499D01*
X139256486Y-120770000D02*
X139256486Y-122667499D01*
X137382567Y-80922499D02*
X139256486Y-80922499D01*
X189852297Y-84717499D02*
X187978378Y-84717499D01*
X214213243Y-80922499D02*
X214213243Y-75229999D01*
X131760810Y-97999999D02*
X131760810Y-101794999D01*
X101778108Y-69537499D02*
X101778108Y-67639999D01*
X107399864Y-107487499D02*
X107399864Y-101794999D01*
X216087162Y-120770000D02*
X216087162Y-122667499D01*
X139256486Y-116975000D02*
X139256486Y-118872500D01*
X124265135Y-116975000D02*
X124265135Y-118872500D01*
X139256486Y-97999999D02*
X139256486Y-99897499D01*
X150500000Y-65742499D02*
X152373918Y-65742499D01*
X94282432Y-97999999D02*
X94282432Y-99897499D01*
X146752162Y-75229999D02*
X146752162Y-77127499D01*
X128012972Y-80922499D02*
X129886891Y-80922499D01*
X206717567Y-56254999D02*
X206717567Y-52459999D01*
X180482702Y-84717499D02*
X180482702Y-82819999D01*
X165491351Y-139744999D02*
X165491351Y-141642500D01*
X150500000Y-63844999D02*
X150500000Y-65742499D01*
X135508648Y-82819999D02*
X135508648Y-84717499D01*
X197347972Y-67639999D02*
X193600135Y-67639999D01*
X126139054Y-109384999D02*
X120517297Y-109384999D01*
X83038918Y-97999999D02*
X83038918Y-99897499D01*
X178608783Y-75229999D02*
X178608783Y-80922499D01*
X94282432Y-137847500D02*
X92408513Y-137847500D01*
X184230540Y-80922499D02*
X186104459Y-80922499D01*
X111147702Y-135949999D02*
X109273783Y-135949999D01*
X133634729Y-73332499D02*
X135508648Y-73332499D01*
X96156351Y-132155000D02*
X96156351Y-134052500D01*
X116769459Y-88512499D02*
X118643378Y-88512499D01*
X193600135Y-80922499D02*
X195474054Y-80922499D01*
X133634729Y-69537499D02*
X139256486Y-69537499D01*
X99904189Y-124565000D02*
X96156351Y-124565000D01*
X101778108Y-134052500D02*
X107399864Y-134052500D01*
X98030270Y-143539999D02*
X96156351Y-143539999D01*
X217961081Y-116975000D02*
X216087162Y-116975000D01*
X180482702Y-145437500D02*
X180482702Y-143539999D01*
X101778108Y-141642500D02*
X103652027Y-141642500D01*
X169239189Y-63844999D02*
X171113108Y-63844999D01*
X113021621Y-73332499D02*
X113021621Y-77127499D01*
X171113108Y-105589999D02*
X172987027Y-105589999D01*
X146752162Y-145437500D02*
X146752162Y-143539999D01*
X150500000Y-54357499D02*
X152373918Y-54357499D01*
X137382567Y-97999999D02*
X135508648Y-97999999D01*
X137382567Y-86614999D02*
X139256486Y-86614999D01*
X159869594Y-124565000D02*
X156121756Y-124565000D01*
X88660675Y-115077500D02*
X88660675Y-111282499D01*
X208591486Y-111282499D02*
X208591486Y-113179999D01*
X204843648Y-99897499D02*
X202969729Y-99897499D01*
X216087162Y-118872500D02*
X214213243Y-118872500D01*
X201095810Y-143539999D02*
X201095810Y-145437500D01*
X141130405Y-58152500D02*
X141130405Y-52459999D01*
X154247837Y-115077500D02*
X154247837Y-113179999D01*
X109273783Y-122667499D02*
X114895540Y-122667499D01*
X129886891Y-50562500D02*
X131760810Y-50562500D01*
X146752162Y-137847500D02*
X146752162Y-139744999D01*
X182356621Y-50562500D02*
X182356621Y-52459999D01*
D14*
X219750000Y-48580000D02*
X219750000Y-46500000D01*
D13*
X103652027Y-139744999D02*
X105525945Y-139744999D01*
X180482702Y-56254999D02*
X180482702Y-58152500D01*
X206717567Y-84717499D02*
X206717567Y-82819999D01*
X212339324Y-143539999D02*
X208591486Y-143539999D01*
X201095810Y-97999999D02*
X201095810Y-101794999D01*
X135508648Y-139744999D02*
X135508648Y-143539999D01*
X148626081Y-101794999D02*
X150500000Y-101794999D01*
X94282432Y-145437500D02*
X94282432Y-143539999D01*
X187978378Y-84717499D02*
X187978378Y-82819999D01*
X120517297Y-134052500D02*
X120517297Y-132155000D01*
X84912837Y-118872500D02*
X84912837Y-116975000D01*
X122391216Y-139744999D02*
X124265135Y-139744999D01*
X189852297Y-65742499D02*
X191726216Y-65742499D01*
X212339324Y-67639999D02*
X212339324Y-71434999D01*
X178608783Y-109384999D02*
X180482702Y-109384999D01*
X171113108Y-48665000D02*
X171113108Y-50562500D01*
X107399864Y-90410000D02*
X109273783Y-90410000D01*
X131760810Y-103692499D02*
X131760810Y-105589999D01*
D14*
X219750000Y-46500000D02*
X214000000Y-40750000D01*
D13*
X86786756Y-113179999D02*
X84912837Y-113179999D01*
X94282432Y-118872500D02*
X92408513Y-118872500D01*
X171113108Y-135949999D02*
X169239189Y-135949999D01*
X210465405Y-105589999D02*
X206717567Y-105589999D01*
X101778108Y-56254999D02*
X101778108Y-58152500D01*
X129886891Y-116975000D02*
X131760810Y-116975000D01*
X129886891Y-118872500D02*
X129886891Y-116975000D01*
X156121756Y-71434999D02*
X156121756Y-75229999D01*
X201095810Y-124565000D02*
X199221891Y-124565000D01*
X81165000Y-111282499D02*
X86786756Y-111282499D01*
X219835000Y-67639999D02*
X217961081Y-67639999D01*
X131760810Y-67639999D02*
X129886891Y-67639999D01*
X88660675Y-141642500D02*
X88660675Y-135949999D01*
X144878243Y-113179999D02*
X144878243Y-111282499D01*
X111147702Y-97999999D02*
X109273783Y-97999999D01*
X169239189Y-86614999D02*
X171113108Y-86614999D01*
X214213243Y-96102499D02*
X214213243Y-94204999D01*
X141130405Y-111282499D02*
X143004324Y-111282499D01*
X94282432Y-69537499D02*
X94282432Y-67639999D01*
X107399864Y-88512499D02*
X107399864Y-86614999D01*
X204843648Y-52459999D02*
X202969729Y-52459999D01*
X122391216Y-141642500D02*
X122391216Y-139744999D01*
X122391216Y-73332499D02*
X131760810Y-73332499D01*
X139256486Y-99897499D02*
X137382567Y-99897499D01*
X122391216Y-135949999D02*
X120517297Y-135949999D01*
X193600135Y-141642500D02*
X193600135Y-135949999D01*
X133634729Y-77127499D02*
X135508648Y-77127499D01*
X114895540Y-77127499D02*
X116769459Y-77127499D01*
X204843648Y-115077500D02*
X204843648Y-113179999D01*
X116769459Y-137847500D02*
X114895540Y-137847500D01*
X120517297Y-105589999D02*
X120517297Y-107487499D01*
X144878243Y-94204999D02*
X144878243Y-90410000D01*
X81165000Y-109384999D02*
X81165000Y-107487499D01*
X186104459Y-96102499D02*
X187978378Y-96102499D01*
X206717567Y-128360000D02*
X206717567Y-124565000D01*
X139256486Y-137847500D02*
X137382567Y-137847500D01*
X137382567Y-88512499D02*
X137382567Y-86614999D01*
X187978378Y-137847500D02*
X186104459Y-137847500D01*
X135508648Y-58152500D02*
X137382567Y-58152500D01*
X157995675Y-116975000D02*
X157995675Y-118872500D01*
X156121756Y-105589999D02*
X156121756Y-107487499D01*
X148626081Y-75229999D02*
X146752162Y-75229999D01*
X167365270Y-116975000D02*
X165491351Y-116975000D01*
X154247837Y-105589999D02*
X152373918Y-105589999D01*
X187978378Y-48665000D02*
X186104459Y-48665000D01*
X137382567Y-105589999D02*
X137382567Y-107487499D01*
X139256486Y-118872500D02*
X137382567Y-118872500D01*
X191726216Y-115077500D02*
X191726216Y-111282499D01*
X171113108Y-134052500D02*
X171113108Y-132155000D01*
X120517297Y-118872500D02*
X118643378Y-118872500D01*
X83038918Y-101794999D02*
X83038918Y-103692499D01*
X201095810Y-67639999D02*
X199221891Y-67639999D01*
X210465405Y-56254999D02*
X206717567Y-56254999D01*
X184230540Y-63844999D02*
X186104459Y-63844999D01*
X214213243Y-103692499D02*
X214213243Y-101794999D01*
X133634729Y-143539999D02*
X133634729Y-145437500D01*
X139256486Y-54357499D02*
X137382567Y-54357499D01*
X216087162Y-94204999D02*
X216087162Y-96102499D01*
X128012972Y-113179999D02*
X128012972Y-115077500D01*
X186104459Y-52459999D02*
X184230540Y-52459999D01*
X214213243Y-147335000D02*
X212339324Y-147335000D01*
X197347972Y-65742499D02*
X199221891Y-65742499D01*
X86786756Y-71434999D02*
X81165000Y-71434999D01*
X90534594Y-86614999D02*
X90534594Y-88512499D01*
X101778108Y-120770000D02*
X99904189Y-120770000D01*
X197347972Y-124565000D02*
X195474054Y-124565000D01*
X180482702Y-99897499D02*
X178608783Y-99897499D01*
X180482702Y-139744999D02*
X178608783Y-139744999D01*
X182356621Y-96102499D02*
X184230540Y-96102499D01*
X167365270Y-124565000D02*
X165491351Y-124565000D01*
X186104459Y-60049999D02*
X186104459Y-61947499D01*
X206717567Y-96102499D02*
X206717567Y-94204999D01*
X163617432Y-90410000D02*
X163617432Y-94204999D01*
X118643378Y-90410000D02*
X116769459Y-90410000D01*
X107399864Y-82819999D02*
X101778108Y-82819999D01*
X189852297Y-88512499D02*
X191726216Y-88512499D01*
X105525945Y-48665000D02*
X98030270Y-48665000D01*
X197347972Y-58152500D02*
X197347972Y-56254999D01*
X114895540Y-145437500D02*
X116769459Y-145437500D01*
X157995675Y-73332499D02*
X159869594Y-73332499D01*
X172987027Y-82819999D02*
X171113108Y-82819999D01*
X114895540Y-137847500D02*
X114895540Y-135949999D01*
X165491351Y-115077500D02*
X165491351Y-113179999D01*
X191726216Y-111282499D02*
X195474054Y-111282499D01*
X141130405Y-143539999D02*
X141130405Y-145437500D01*
X148626081Y-54357499D02*
X148626081Y-48665000D01*
X94282432Y-73332499D02*
X94282432Y-75229999D01*
X216087162Y-88512499D02*
X217961081Y-88512499D01*
X133634729Y-115077500D02*
X135508648Y-115077500D01*
X197347972Y-69537499D02*
X197347972Y-67639999D01*
X197347972Y-56254999D02*
X195474054Y-56254999D01*
X184230540Y-94204999D02*
X186104459Y-94204999D01*
X122391216Y-115077500D02*
X122391216Y-111282499D01*
X146752162Y-143539999D02*
X141130405Y-143539999D01*
X169239189Y-84717499D02*
X169239189Y-82819999D01*
X105525945Y-86614999D02*
X105525945Y-88512499D01*
X118643378Y-113179999D02*
X120517297Y-113179999D01*
X204843648Y-132155000D02*
X202969729Y-132155000D01*
X113021621Y-48665000D02*
X113021621Y-52459999D01*
X202969729Y-132155000D02*
X202969729Y-134052500D01*
X86786756Y-122667499D02*
X88660675Y-122667499D01*
X139256486Y-143539999D02*
X137382567Y-143539999D01*
X103652027Y-141642500D02*
X103652027Y-139744999D01*
X109273783Y-118872500D02*
X109273783Y-122667499D01*
X101778108Y-105589999D02*
X101778108Y-107487499D01*
X101778108Y-101794999D02*
X101778108Y-103692499D01*
X150500000Y-77127499D02*
X152373918Y-77127499D01*
X90534594Y-135949999D02*
X90534594Y-141642500D01*
X84912837Y-126462499D02*
X84912837Y-124565000D01*
X109273783Y-75229999D02*
X109273783Y-80922499D01*
X143004324Y-92307499D02*
X143004324Y-96102499D01*
X133634729Y-86614999D02*
X135508648Y-86614999D01*
X178608783Y-63844999D02*
X178608783Y-65742499D01*
X137382567Y-103692499D02*
X137382567Y-101794999D01*
X208591486Y-94204999D02*
X208591486Y-96102499D01*
X90534594Y-77127499D02*
X90534594Y-75229999D01*
X163617432Y-50562500D02*
X163617432Y-52459999D01*
X180482702Y-50562500D02*
X182356621Y-50562500D01*
X154247837Y-77127499D02*
X156121756Y-77127499D01*
X193600135Y-118872500D02*
X195474054Y-118872500D01*
X88660675Y-86614999D02*
X90534594Y-86614999D01*
X152373918Y-61947499D02*
X152373918Y-63844999D01*
X204843648Y-90410000D02*
X204843648Y-92307499D01*
X210465405Y-103692499D02*
X210465405Y-97999999D01*
X109273783Y-109384999D02*
X109273783Y-111282499D01*
X107399864Y-96102499D02*
X107399864Y-94204999D01*
X156121756Y-118872500D02*
X156121756Y-116975000D01*
X114895540Y-48665000D02*
X113021621Y-48665000D01*
X193600135Y-103692499D02*
X193600135Y-107487499D01*
X88660675Y-71434999D02*
X88660675Y-67639999D01*
X133634729Y-54357499D02*
X133634729Y-50562500D01*
X154247837Y-84717499D02*
X154247837Y-82819999D01*
X150500000Y-145437500D02*
X150500000Y-147335000D01*
X122391216Y-80922499D02*
X122391216Y-79024999D01*
X135508648Y-118872500D02*
X133634729Y-118872500D01*
X191726216Y-101794999D02*
X191726216Y-99897499D01*
X137382567Y-115077500D02*
X141130405Y-115077500D01*
X84912837Y-122667499D02*
X84912837Y-120770000D01*
X144878243Y-61947499D02*
X144878243Y-60049999D01*
X129886891Y-84717499D02*
X129886891Y-82819999D01*
X84912837Y-128360000D02*
X86786756Y-128360000D01*
X191726216Y-137847500D02*
X189852297Y-137847500D01*
X180482702Y-132155000D02*
X178608783Y-132155000D01*
X182356621Y-143539999D02*
X182356621Y-145437500D01*
X178608783Y-92307499D02*
X176734864Y-92307499D01*
X129886891Y-96102499D02*
X129886891Y-94204999D01*
X107399864Y-60049999D02*
X107399864Y-61947499D01*
X167365270Y-120770000D02*
X169239189Y-120770000D01*
X81165000Y-50562500D02*
X83038918Y-50562500D01*
X191726216Y-73332499D02*
X201095810Y-73332499D01*
X99904189Y-56254999D02*
X101778108Y-56254999D01*
X135508648Y-103692499D02*
X137382567Y-103692499D01*
X169239189Y-56254999D02*
X169239189Y-52459999D01*
X144878243Y-130257500D02*
X150500000Y-130257500D01*
X103652027Y-58152500D02*
X103652027Y-54357499D01*
X105525945Y-65742499D02*
X105525945Y-63844999D01*
X152373918Y-63844999D02*
X150500000Y-63844999D01*
X148626081Y-71434999D02*
X144878243Y-71434999D01*
X124265135Y-137847500D02*
X122391216Y-137847500D01*
X163617432Y-113179999D02*
X163617432Y-111282499D01*
X214213243Y-61947499D02*
X214213243Y-60049999D01*
X98030270Y-111282499D02*
X98030270Y-113179999D01*
X167365270Y-139744999D02*
X169239189Y-139744999D01*
X171113108Y-86614999D02*
X171113108Y-88512499D01*
X120517297Y-103692499D02*
X118643378Y-103692499D01*
X206717567Y-122667499D02*
X206717567Y-120770000D01*
X163617432Y-79024999D02*
X161743513Y-79024999D01*
X107399864Y-54357499D02*
X113021621Y-54357499D01*
X86786756Y-126462499D02*
X84912837Y-126462499D01*
X81165000Y-99897499D02*
X81165000Y-96102499D01*
X197347972Y-120770000D02*
X197347972Y-122667499D01*
X204843648Y-116975000D02*
X204843648Y-118872500D01*
X161743513Y-94204999D02*
X161743513Y-96102499D01*
X163617432Y-124565000D02*
X161743513Y-124565000D01*
X217961081Y-67639999D02*
X217961081Y-69537499D01*
X174860945Y-99897499D02*
X176734864Y-99897499D01*
X143004324Y-84717499D02*
X148626081Y-84717499D01*
X171113108Y-71434999D02*
X165491351Y-71434999D01*
X109273783Y-107487499D02*
X107399864Y-107487499D01*
X208591486Y-97999999D02*
X208591486Y-99897499D01*
X161743513Y-52459999D02*
X161743513Y-54357499D01*
X99904189Y-139744999D02*
X101778108Y-139744999D01*
X129886891Y-141642500D02*
X129886891Y-139744999D01*
X126139054Y-63844999D02*
X128012972Y-63844999D01*
X111147702Y-79024999D02*
X113021621Y-79024999D01*
X161743513Y-84717499D02*
X163617432Y-84717499D01*
X129886891Y-88512499D02*
X129886891Y-86614999D01*
X146752162Y-122667499D02*
X148626081Y-122667499D01*
X135508648Y-73332499D02*
X135508648Y-71434999D01*
X219835000Y-120770000D02*
X219835000Y-128360000D01*
X83038918Y-84717499D02*
X83038918Y-82819999D01*
X171113108Y-128360000D02*
X169239189Y-128360000D01*
X167365270Y-113179999D02*
X167365270Y-115077500D01*
X202969729Y-75229999D02*
X202969729Y-73332499D01*
X212339324Y-134052500D02*
X216087162Y-134052500D01*
X171113108Y-118872500D02*
X176734864Y-118872500D01*
X219835000Y-109384999D02*
X214213243Y-109384999D01*
X210465405Y-77127499D02*
X210465405Y-73332499D01*
X101778108Y-54357499D02*
X99904189Y-54357499D01*
X169239189Y-99897499D02*
X167365270Y-99897499D01*
X187978378Y-92307499D02*
X187978378Y-90410000D01*
X86786756Y-73332499D02*
X86786756Y-75229999D01*
X163617432Y-75229999D02*
X157995675Y-75229999D01*
X208591486Y-134052500D02*
X210465405Y-134052500D01*
X122391216Y-120770000D02*
X122391216Y-116975000D01*
X83038918Y-143539999D02*
X81165000Y-143539999D01*
X88660675Y-122667499D02*
X88660675Y-116975000D01*
X186104459Y-134052500D02*
X187978378Y-134052500D01*
X217961081Y-141642500D02*
X217961081Y-139744999D01*
X208591486Y-60049999D02*
X208591486Y-61947499D01*
X143004324Y-111282499D02*
X143004324Y-115077500D01*
X81165000Y-118872500D02*
X81165000Y-115077500D01*
X210465405Y-79024999D02*
X212339324Y-79024999D01*
X197347972Y-82819999D02*
X197347972Y-84717499D01*
D14*
X81250000Y-46000000D02*
X81250000Y-48580000D01*
D13*
X150500000Y-130257500D02*
X150500000Y-132155000D01*
X197347972Y-105589999D02*
X195474054Y-105589999D01*
X92408513Y-128360000D02*
X92408513Y-126462499D01*
X118643378Y-75229999D02*
X118643378Y-77127499D01*
X156121756Y-135949999D02*
X154247837Y-135949999D01*
X139256486Y-84717499D02*
X137382567Y-84717499D01*
X98030270Y-120770000D02*
X98030270Y-122667499D01*
X216087162Y-135949999D02*
X216087162Y-137847500D01*
X120517297Y-48665000D02*
X120517297Y-50562500D01*
X111147702Y-147335000D02*
X111147702Y-145437500D01*
X187978378Y-124565000D02*
X184230540Y-124565000D01*
X195474054Y-52459999D02*
X195474054Y-50562500D01*
X157995675Y-120770000D02*
X157995675Y-122667499D01*
X139256486Y-56254999D02*
X139256486Y-60049999D01*
X199221891Y-96102499D02*
X199221891Y-94204999D01*
X201095810Y-92307499D02*
X199221891Y-92307499D01*
X128012972Y-101794999D02*
X122391216Y-101794999D01*
X176734864Y-52459999D02*
X176734864Y-50562500D01*
X197347972Y-137847500D02*
X197347972Y-135949999D01*
X146752162Y-90410000D02*
X146752162Y-92307499D01*
X152373918Y-115077500D02*
X154247837Y-115077500D01*
X116769459Y-60049999D02*
X116769459Y-61947499D01*
X154247837Y-92307499D02*
X154247837Y-90410000D01*
X187978378Y-120770000D02*
X189852297Y-120770000D01*
X178608783Y-101794999D02*
X180482702Y-101794999D01*
X201095810Y-135949999D02*
X199221891Y-135949999D01*
X99904189Y-75229999D02*
X99904189Y-77127499D01*
X83038918Y-82819999D02*
X81165000Y-82819999D01*
X208591486Y-130257500D02*
X208591486Y-134052500D01*
X137382567Y-77127499D02*
X139256486Y-77127499D01*
X128012972Y-99897499D02*
X128012972Y-101794999D01*
X137382567Y-73332499D02*
X141130405Y-73332499D01*
X111147702Y-141642500D02*
X111147702Y-139744999D01*
X96156351Y-69537499D02*
X98030270Y-69537499D01*
X172987027Y-88512499D02*
X172987027Y-82819999D01*
X195474054Y-118872500D02*
X195474054Y-116975000D01*
X191726216Y-82819999D02*
X189852297Y-82819999D01*
X180482702Y-97999999D02*
X180482702Y-99897499D01*
X184230540Y-145437500D02*
X184230540Y-147335000D01*
X150500000Y-134052500D02*
X150500000Y-137847500D01*
X122391216Y-132155000D02*
X122391216Y-134052500D01*
X126139054Y-60049999D02*
X124265135Y-60049999D01*
X84912837Y-58152500D02*
X88660675Y-58152500D01*
X101778108Y-128360000D02*
X99904189Y-128360000D01*
X169239189Y-97999999D02*
X169239189Y-99897499D01*
X187978378Y-141642500D02*
X189852297Y-141642500D01*
X118643378Y-107487499D02*
X118643378Y-105589999D01*
X135508648Y-90410000D02*
X133634729Y-90410000D01*
X206717567Y-63844999D02*
X208591486Y-63844999D01*
X204843648Y-75229999D02*
X202969729Y-75229999D01*
X214213243Y-75229999D02*
X212339324Y-75229999D01*
X92408513Y-99897499D02*
X92408513Y-97999999D01*
X129886891Y-90410000D02*
X128012972Y-90410000D01*
X146752162Y-56254999D02*
X146752162Y-58152500D01*
X171113108Y-92307499D02*
X169239189Y-92307499D01*
X101778108Y-135949999D02*
X101778108Y-137847500D01*
X126139054Y-65742499D02*
X126139054Y-63844999D01*
X197347972Y-132155000D02*
X197347972Y-128360000D01*
X144878243Y-103692499D02*
X144878243Y-101794999D01*
X135508648Y-63844999D02*
X133634729Y-63844999D01*
X146752162Y-126462499D02*
X146752162Y-128360000D01*
X182356621Y-124565000D02*
X178608783Y-124565000D01*
X159869594Y-50562500D02*
X159869594Y-48665000D01*
X191726216Y-96102499D02*
X191726216Y-90410000D01*
X156121756Y-82819999D02*
X156121756Y-84717499D01*
X216087162Y-113179999D02*
X214213243Y-113179999D01*
X114895540Y-61947499D02*
X114895540Y-54357499D01*
X144878243Y-101794999D02*
X146752162Y-101794999D01*
X176734864Y-120770000D02*
X174860945Y-120770000D01*
X163617432Y-111282499D02*
X169239189Y-111282499D01*
X152373918Y-79024999D02*
X150500000Y-79024999D01*
X180482702Y-143539999D02*
X174860945Y-143539999D01*
X201095810Y-130257500D02*
X201095810Y-124565000D01*
X146752162Y-80922499D02*
X148626081Y-80922499D01*
X163617432Y-73332499D02*
X163617432Y-75229999D01*
X184230540Y-147335000D02*
X178608783Y-147335000D01*
X105525945Y-109384999D02*
X103652027Y-109384999D01*
X193600135Y-99897499D02*
X193600135Y-97999999D01*
X94282432Y-135949999D02*
X94282432Y-137847500D01*
X165491351Y-137847500D02*
X163617432Y-137847500D01*
X131760810Y-69537499D02*
X131760810Y-71434999D01*
X157995675Y-84717499D02*
X159869594Y-84717499D01*
X216087162Y-96102499D02*
X217961081Y-96102499D01*
X101778108Y-111282499D02*
X101778108Y-109384999D01*
X137382567Y-139744999D02*
X139256486Y-139744999D01*
X201095810Y-107487499D02*
X201095810Y-109384999D01*
X159869594Y-122667499D02*
X159869594Y-116975000D01*
X118643378Y-101794999D02*
X116769459Y-101794999D01*
X81165000Y-52459999D02*
X81165000Y-50562500D01*
X167365270Y-80922499D02*
X167365270Y-79024999D01*
X98030270Y-101794999D02*
X98030270Y-105589999D01*
X81165000Y-80922499D02*
X83038918Y-80922499D01*
X189852297Y-73332499D02*
X189852297Y-75229999D01*
X83038918Y-58152500D02*
X83038918Y-56254999D01*
X199221891Y-124565000D02*
X199221891Y-126462499D01*
X163617432Y-109384999D02*
X163617432Y-107487499D01*
X98030270Y-113179999D02*
X96156351Y-113179999D01*
X133634729Y-109384999D02*
X133634729Y-107487499D01*
X212339324Y-90410000D02*
X212339324Y-96102499D01*
X161743513Y-63844999D02*
X161743513Y-65742499D01*
X84912837Y-50562500D02*
X86786756Y-50562500D01*
X197347972Y-147335000D02*
X197347972Y-145437500D01*
D14*
X86500000Y-40750000D02*
X81250000Y-46000000D01*
D13*
X187978378Y-65742499D02*
X187978378Y-63844999D01*
X109273783Y-58152500D02*
X109273783Y-56254999D01*
X157995675Y-79024999D02*
X157995675Y-77127499D01*
X171113108Y-75229999D02*
X169239189Y-75229999D01*
X152373918Y-94204999D02*
X150500000Y-94204999D01*
X98030270Y-75229999D02*
X96156351Y-75229999D01*
X81165000Y-107487499D02*
X83038918Y-107487499D01*
X113021621Y-109384999D02*
X113021621Y-111282499D01*
X184230540Y-122667499D02*
X184230540Y-120770000D01*
X86786756Y-77127499D02*
X86786756Y-79024999D01*
X94282432Y-105589999D02*
X90534594Y-105589999D01*
X172987027Y-111282499D02*
X172987027Y-109384999D01*
X107399864Y-113179999D02*
X103652027Y-113179999D01*
X169239189Y-126462499D02*
X172987027Y-126462499D01*
X152373918Y-145437500D02*
X154247837Y-145437500D01*
X116769459Y-69537499D02*
X116769459Y-67639999D01*
X144878243Y-75229999D02*
X143004324Y-75229999D01*
X98030270Y-128360000D02*
X92408513Y-128360000D01*
X124265135Y-75229999D02*
X124265135Y-77127499D01*
X81165000Y-130257500D02*
X83038918Y-130257500D01*
X98030270Y-88512499D02*
X99904189Y-88512499D01*
X111147702Y-145437500D02*
X113021621Y-145437500D01*
X157995675Y-139744999D02*
X157995675Y-141642500D01*
X216087162Y-75229999D02*
X216087162Y-80922499D01*
X83038918Y-80922499D02*
X83038918Y-79024999D01*
X133634729Y-99897499D02*
X133634729Y-97999999D01*
X92408513Y-86614999D02*
X94282432Y-86614999D01*
X88660675Y-48665000D02*
X84912837Y-48665000D01*
X101778108Y-113179999D02*
X99904189Y-113179999D01*
X206717567Y-97999999D02*
X204843648Y-97999999D01*
X99904189Y-63844999D02*
X101778108Y-63844999D01*
X172987027Y-141642500D02*
X176734864Y-141642500D01*
X92408513Y-71434999D02*
X92408513Y-69537499D01*
X126139054Y-88512499D02*
X126139054Y-86614999D01*
X128012972Y-75229999D02*
X128012972Y-80922499D01*
X118643378Y-145437500D02*
X120517297Y-145437500D01*
X81165000Y-58152500D02*
X83038918Y-58152500D01*
X206717567Y-113179999D02*
X206717567Y-115077500D01*
X135508648Y-96102499D02*
X135508648Y-94204999D01*
X216087162Y-86614999D02*
X216087162Y-88512499D01*
X182356621Y-73332499D02*
X182356621Y-77127499D01*
X148626081Y-137847500D02*
X148626081Y-135949999D01*
X116769459Y-128360000D02*
X111147702Y-128360000D01*
X144878243Y-52459999D02*
X146752162Y-52459999D01*
X208591486Y-124565000D02*
X208591486Y-128360000D01*
X122391216Y-101794999D02*
X122391216Y-99897499D01*
X186104459Y-130257500D02*
X191726216Y-130257500D01*
X206717567Y-61947499D02*
X206717567Y-60049999D01*
X103652027Y-52459999D02*
X103652027Y-50562500D01*
X135508648Y-107487499D02*
X135508648Y-105589999D01*
X178608783Y-99897499D02*
X178608783Y-97999999D01*
X99904189Y-80922499D02*
X103652027Y-80922499D01*
X189852297Y-77127499D02*
X189852297Y-79024999D01*
X167365270Y-135949999D02*
X165491351Y-135949999D01*
X103652027Y-113179999D02*
X103652027Y-115077500D01*
X210465405Y-115077500D02*
X210465405Y-111282499D01*
X157995675Y-135949999D02*
X157995675Y-137847500D01*
X96156351Y-134052500D02*
X98030270Y-134052500D01*
X111147702Y-103692499D02*
X111147702Y-101794999D01*
X180482702Y-80922499D02*
X180482702Y-79024999D01*
X184230540Y-143539999D02*
X182356621Y-143539999D01*
X148626081Y-73332499D02*
X148626081Y-71434999D01*
X191726216Y-116975000D02*
X193600135Y-116975000D01*
X146752162Y-88512499D02*
X144878243Y-88512499D01*
X199221891Y-60049999D02*
X197347972Y-60049999D01*
X133634729Y-105589999D02*
X133634729Y-101794999D01*
X191726216Y-128360000D02*
X186104459Y-128360000D01*
X186104459Y-80922499D02*
X186104459Y-79024999D01*
X197347972Y-60049999D02*
X197347972Y-61947499D01*
X116769459Y-132155000D02*
X114895540Y-132155000D01*
X189852297Y-120770000D02*
X189852297Y-122667499D01*
X216087162Y-69537499D02*
X216087162Y-67639999D01*
X131760810Y-124565000D02*
X131760810Y-126462499D01*
X187978378Y-90410000D02*
X186104459Y-90410000D01*
X197347972Y-118872500D02*
X199221891Y-118872500D01*
X193600135Y-65742499D02*
X195474054Y-65742499D01*
X182356621Y-139744999D02*
X184230540Y-139744999D01*
X154247837Y-101794999D02*
X154247837Y-103692499D01*
X154247837Y-135949999D02*
X154247837Y-137847500D01*
X109273783Y-147335000D02*
X107399864Y-147335000D01*
X193600135Y-90410000D02*
X193600135Y-96102499D01*
X99904189Y-86614999D02*
X101778108Y-86614999D01*
X176734864Y-71434999D02*
X176734864Y-69537499D01*
X94282432Y-82819999D02*
X94282432Y-84717499D01*
X139256486Y-103692499D02*
X141130405Y-103692499D01*
X195474054Y-56254999D02*
X195474054Y-54357499D01*
X150500000Y-120770000D02*
X150500000Y-128360000D01*
X163617432Y-88512499D02*
X161743513Y-88512499D01*
X208591486Y-128360000D02*
X206717567Y-128360000D01*
X128012972Y-107487499D02*
X128012972Y-105589999D01*
X146752162Y-134052500D02*
X146752162Y-132155000D01*
X113021621Y-61947499D02*
X111147702Y-61947499D01*
X184230540Y-61947499D02*
X184230540Y-54357499D01*
X135508648Y-113179999D02*
X133634729Y-113179999D01*
X169239189Y-111282499D02*
X169239189Y-113179999D01*
X180482702Y-63844999D02*
X182356621Y-63844999D01*
X98030270Y-80922499D02*
X98030270Y-79024999D01*
X88660675Y-82819999D02*
X84912837Y-82819999D01*
X165491351Y-73332499D02*
X171113108Y-73332499D01*
X176734864Y-126462499D02*
X176734864Y-124565000D01*
X161743513Y-97999999D02*
X161743513Y-103692499D01*
X129886891Y-75229999D02*
X128012972Y-75229999D01*
X176734864Y-145437500D02*
X176734864Y-147335000D01*
X159869594Y-115077500D02*
X159869594Y-111282499D01*
X131760810Y-145437500D02*
X131760810Y-143539999D01*
X90534594Y-96102499D02*
X92408513Y-96102499D01*
X180482702Y-107487499D02*
X178608783Y-107487499D01*
X210465405Y-80922499D02*
X210465405Y-79024999D01*
X144878243Y-111282499D02*
X150500000Y-111282499D01*
X178608783Y-130257500D02*
X184230540Y-130257500D01*
X94282432Y-61947499D02*
X92408513Y-61947499D01*
X124265135Y-107487499D02*
X128012972Y-107487499D01*
X178608783Y-65742499D02*
X180482702Y-65742499D01*
X201095810Y-111282499D02*
X201095810Y-115077500D01*
X135508648Y-116975000D02*
X135508648Y-118872500D01*
X167365270Y-97999999D02*
X165491351Y-97999999D01*
X206717567Y-88512499D02*
X206717567Y-86614999D01*
X169239189Y-118872500D02*
X167365270Y-118872500D01*
X111147702Y-116975000D02*
X113021621Y-116975000D01*
X156121756Y-69537499D02*
X159869594Y-69537499D01*
X116769459Y-61947499D02*
X114895540Y-61947499D01*
X171113108Y-61947499D02*
X169239189Y-61947499D01*
X109273783Y-52459999D02*
X103652027Y-52459999D01*
X96156351Y-65742499D02*
X96156351Y-63844999D01*
X206717567Y-79024999D02*
X206717567Y-80922499D01*
X187978378Y-139744999D02*
X187978378Y-141642500D01*
X129886891Y-147335000D02*
X129886891Y-145437500D01*
X174860945Y-134052500D02*
X174860945Y-130257500D01*
X141130405Y-60049999D02*
X143004324Y-60049999D01*
X182356621Y-135949999D02*
X178608783Y-135949999D01*
X214213243Y-122667499D02*
X214213243Y-120770000D01*
X157995675Y-77127499D02*
X163617432Y-77127499D01*
X216087162Y-80922499D02*
X217961081Y-80922499D01*
X90534594Y-54357499D02*
X90534594Y-58152500D01*
X163617432Y-126462499D02*
X163617432Y-124565000D01*
X84912837Y-96102499D02*
X88660675Y-96102499D01*
X201095810Y-115077500D02*
X199221891Y-115077500D01*
X94282432Y-84717499D02*
X92408513Y-84717499D01*
X84912837Y-135949999D02*
X83038918Y-135949999D01*
X184230540Y-111282499D02*
X184230540Y-109384999D01*
X116769459Y-48665000D02*
X116769459Y-52459999D01*
X219835000Y-115077500D02*
X219835000Y-118872500D01*
X90534594Y-79024999D02*
X88660675Y-79024999D01*
X116769459Y-143539999D02*
X114895540Y-143539999D01*
X148626081Y-122667499D02*
X148626081Y-120770000D01*
X101778108Y-73332499D02*
X101778108Y-75229999D01*
X191726216Y-90410000D02*
X189852297Y-90410000D01*
X184230540Y-139744999D02*
X184230540Y-143539999D01*
X129886891Y-92307499D02*
X129886891Y-90410000D01*
X204843648Y-122667499D02*
X206717567Y-122667499D01*
D14*
X143250000Y-36750000D02*
X139250000Y-40750000D01*
D13*
X90534594Y-116975000D02*
X90534594Y-122667499D01*
X193600135Y-75229999D02*
X193600135Y-77127499D01*
X118643378Y-122667499D02*
X118643378Y-120770000D01*
X83038918Y-115077500D02*
X83038918Y-113179999D01*
X111147702Y-80922499D02*
X111147702Y-79024999D01*
X182356621Y-94204999D02*
X182356621Y-96102499D01*
X172987027Y-99897499D02*
X172987027Y-97999999D01*
X83038918Y-103692499D02*
X84912837Y-103692499D01*
X191726216Y-58152500D02*
X191726216Y-56254999D01*
X122391216Y-58152500D02*
X122391216Y-56254999D01*
X135508648Y-86614999D02*
X135508648Y-88512499D01*
X180482702Y-67639999D02*
X180482702Y-69537499D01*
X152373918Y-52459999D02*
X150500000Y-52459999D01*
X111147702Y-77127499D02*
X111147702Y-75229999D01*
X120517297Y-82819999D02*
X120517297Y-84717499D01*
X212339324Y-135949999D02*
X212339324Y-141642500D01*
X169239189Y-145437500D02*
X169239189Y-147335000D01*
X216087162Y-82819999D02*
X216087162Y-84717499D01*
X133634729Y-50562500D02*
X135508648Y-50562500D01*
X114895540Y-118872500D02*
X114895540Y-113179999D01*
X84912837Y-79024999D02*
X84912837Y-80922499D01*
X92408513Y-126462499D02*
X94282432Y-126462499D01*
X174860945Y-97999999D02*
X174860945Y-99897499D01*
X214213243Y-52459999D02*
X214213243Y-50562500D01*
X176734864Y-63844999D02*
X178608783Y-63844999D01*
X99904189Y-105589999D02*
X101778108Y-105589999D01*
X186104459Y-84717499D02*
X184230540Y-84717499D01*
X216087162Y-107487499D02*
X216087162Y-105589999D01*
X133634729Y-63844999D02*
X133634729Y-61947499D01*
X92408513Y-75229999D02*
X92408513Y-77127499D01*
X186104459Y-128360000D02*
X186104459Y-126462499D01*
X116769459Y-80922499D02*
X116769459Y-79024999D01*
X189852297Y-134052500D02*
X193600135Y-134052500D01*
X139256486Y-132155000D02*
X139256486Y-134052500D01*
X159869594Y-82819999D02*
X156121756Y-82819999D01*
X156121756Y-65742499D02*
X156121756Y-69537499D01*
X178608783Y-50562500D02*
X178608783Y-48665000D01*
X105525945Y-139744999D02*
X105525945Y-141642500D01*
X139256486Y-145437500D02*
X139256486Y-143539999D01*
X195474054Y-63844999D02*
X197347972Y-63844999D01*
X101778108Y-75229999D02*
X99904189Y-75229999D01*
X133634729Y-124565000D02*
X131760810Y-124565000D01*
X172987027Y-58152500D02*
X172987027Y-56254999D01*
X178608783Y-118872500D02*
X180482702Y-118872500D01*
X101778108Y-130257500D02*
X101778108Y-134052500D01*
X86786756Y-69537499D02*
X86786756Y-71434999D01*
X157995675Y-126462499D02*
X157995675Y-128360000D01*
X156121756Y-141642500D02*
X156121756Y-139744999D01*
D14*
X214000000Y-40750000D02*
X162250000Y-40750000D01*
D13*
X172987027Y-122667499D02*
X172987027Y-120770000D01*
X137382567Y-137847500D02*
X137382567Y-135949999D01*
X195474054Y-82819999D02*
X193600135Y-82819999D01*
X114895540Y-84717499D02*
X114895540Y-80922499D01*
X189852297Y-75229999D02*
X187978378Y-75229999D01*
X129886891Y-137847500D02*
X129886891Y-135949999D01*
X122391216Y-96102499D02*
X122391216Y-90410000D01*
X114895540Y-124565000D02*
X114895540Y-126462499D01*
X146752162Y-107487499D02*
X146752162Y-105589999D01*
X98030270Y-52459999D02*
X98030270Y-58152500D01*
X144878243Y-58152500D02*
X144878243Y-56254999D01*
X99904189Y-130257500D02*
X101778108Y-130257500D01*
X148626081Y-48665000D02*
X146752162Y-48665000D01*
X197347972Y-94204999D02*
X197347972Y-96102499D01*
X165491351Y-101794999D02*
X165491351Y-103692499D01*
X214213243Y-82819999D02*
X212339324Y-82819999D01*
X208591486Y-54357499D02*
X210465405Y-54357499D01*
X139256486Y-122667499D02*
X141130405Y-122667499D01*
X94282432Y-60049999D02*
X94282432Y-61947499D01*
X212339324Y-126462499D02*
X212339324Y-124565000D01*
X182356621Y-67639999D02*
X180482702Y-67639999D01*
X210465405Y-73332499D02*
X219835000Y-73332499D01*
X217961081Y-84717499D02*
X217961081Y-82819999D01*
X107399864Y-84717499D02*
X107399864Y-82819999D01*
X122391216Y-126462499D02*
X124265135Y-126462499D01*
X124265135Y-141642500D02*
X126139054Y-141642500D01*
X187978378Y-86614999D02*
X189852297Y-86614999D01*
X186104459Y-86614999D02*
X186104459Y-88512499D01*
X111147702Y-92307499D02*
X111147702Y-90410000D01*
X214213243Y-60049999D02*
X212339324Y-60049999D01*
X135508648Y-143539999D02*
X133634729Y-143539999D01*
X84912837Y-60049999D02*
X83038918Y-60049999D01*
X148626081Y-113179999D02*
X148626081Y-115077500D01*
X124265135Y-115077500D02*
X122391216Y-115077500D01*
X129886891Y-77127499D02*
X129886891Y-75229999D01*
X156121756Y-80922499D02*
X159869594Y-80922499D01*
X214213243Y-65742499D02*
X214213243Y-63844999D01*
X152373918Y-147335000D02*
X152373918Y-145437500D01*
X150500000Y-80922499D02*
X154247837Y-80922499D01*
X180482702Y-137847500D02*
X180482702Y-139744999D01*
X202969729Y-86614999D02*
X204843648Y-86614999D01*
X150500000Y-99897499D02*
X148626081Y-99897499D01*
X199221891Y-50562500D02*
X201095810Y-50562500D01*
X182356621Y-84717499D02*
X180482702Y-84717499D01*
X143004324Y-60049999D02*
X143004324Y-61947499D01*
X204843648Y-86614999D02*
X204843648Y-88512499D01*
X143004324Y-109384999D02*
X141130405Y-109384999D01*
X187978378Y-63844999D02*
X189852297Y-63844999D01*
X212339324Y-97999999D02*
X212339324Y-103692499D01*
X118643378Y-116975000D02*
X116769459Y-116975000D01*
X189852297Y-96102499D02*
X191726216Y-96102499D01*
X116769459Y-126462499D02*
X116769459Y-128360000D01*
X178608783Y-82819999D02*
X178608783Y-84717499D01*
X216087162Y-84717499D02*
X214213243Y-84717499D01*
X113021621Y-113179999D02*
X113021621Y-115077500D01*
X90534594Y-67639999D02*
X90534594Y-71434999D01*
X186104459Y-145437500D02*
X187978378Y-145437500D01*
X157995675Y-94204999D02*
X157995675Y-90410000D01*
X217961081Y-60049999D02*
X216087162Y-60049999D01*
X219835000Y-107487499D02*
X219835000Y-109384999D01*
X212339324Y-82819999D02*
X212339324Y-88512499D01*
X81165000Y-63844999D02*
X83038918Y-63844999D01*
X144878243Y-97999999D02*
X143004324Y-97999999D01*
X219835000Y-130257500D02*
X219835000Y-132155000D01*
X201095810Y-54357499D02*
X201095810Y-56254999D01*
X217961081Y-88512499D02*
X217961081Y-86614999D01*
%TD*%
M02*
